<svg width="180" height="70" viewBox="0 0 180 70" fill="none" xmlns="http://www.w3.org/2000/svg">
    <path d="M33.2885 0C14.9334 0 0 15.7032 0 34.9956C0 54.288 14.9334 70 33.2885 70C51.6436 70 66.5686 54.2968 66.5686 34.9956C66.5686 15.6944 51.6436 0 33.2885 0ZM33.2885 68.83C15.5441 68.83 1.11268 53.6546 1.11268 34.9956C1.11268 16.3366 15.5441 1.16124 33.2885 1.16124C51.0329 1.16124 65.4643 16.3454 65.4643 34.9956C65.4643 53.6458 51.0245 68.83 33.2885 68.83Z" fill="white"/>
    <path d="M33.2893 8.91016C19.6108 8.91016 8.47559 20.6105 8.47559 34.9941C8.47559 49.3777 19.6108 61.0868 33.2893 61.0868C46.9678 61.0868 58.0946 49.3865 58.0946 34.9941C58.0946 20.6017 46.9678 8.91016 33.2893 8.91016ZM33.2893 60.5326C19.8952 60.5326 9.00265 49.0785 9.00265 34.9941C9.00265 20.9096 19.8952 9.46439 33.2893 9.46439C46.6833 9.46439 57.5675 20.9184 57.5675 34.9941C57.5675 49.0697 46.6749 60.5326 33.2893 60.5326Z" fill="white"/>
    <path d="M22.3705 11.4658L22.4458 11.6066L22.3119 11.6858C21.835 11.9673 21.4502 12.0816 21.149 12.0376C20.8479 11.9937 20.5969 11.7825 20.3961 11.4042L20.3543 11.3251C19.9694 11.457 19.5678 11.413 19.1579 11.1931C18.748 10.9732 18.4133 10.6213 18.154 10.1374C18.0118 9.86472 17.9114 9.592 17.8695 9.32809C17.8193 9.05537 17.8277 8.79145 17.8695 8.52753C17.9197 8.26361 18.0118 8.03488 18.1373 7.84134C18.2627 7.6478 18.4301 7.48945 18.6309 7.37509C18.84 7.25193 19.0575 7.18155 19.2834 7.16395C19.5093 7.14636 19.7435 7.19034 19.9862 7.28711C20.2288 7.38388 20.4547 7.52464 20.6554 7.70938C20.8562 7.89413 21.0235 8.12286 21.1658 8.38677C21.4167 8.86183 21.5255 9.34568 21.4837 9.83833C21.4418 10.3222 21.2578 10.7093 20.9399 10.982C20.9399 10.9996 20.9566 11.0172 20.9733 11.0524C20.9901 11.0875 20.9984 11.1051 21.0068 11.1227C21.1741 11.4394 21.3582 11.6242 21.5673 11.677C21.7765 11.7297 22.0358 11.677 22.3454 11.4834L22.3705 11.4658ZM18.7229 7.49825C18.3882 7.69179 18.2293 7.9733 18.246 8.33399C18.2544 8.69468 18.4552 9.24011 18.84 9.96149C19.1161 10.4893 19.4005 10.8412 19.6933 11.0084C19.9778 11.1755 20.279 11.1755 20.5885 10.9908C20.8897 10.8148 21.0486 10.5597 21.0654 10.2166C21.0821 9.87352 20.9566 9.46004 20.6973 8.9586C20.279 8.16684 19.9276 7.67419 19.6515 7.48065C19.3754 7.28711 19.0659 7.28711 18.7229 7.48065V7.49825Z" fill="white"/>
    <path d="M23.2494 9.65971L23.1992 9.51015L23.651 9.3518L23.6844 4.97075L23.8267 4.91797L26.2779 8.41049L26.6711 8.26973L26.7213 8.41929L25.2824 8.92953L25.2322 8.77998L25.7007 8.61283L24.9143 7.46918L23.8183 7.85626V9.27262L24.3035 9.10548L24.3537 9.25503L23.241 9.65091L23.2494 9.65971ZM23.8267 7.67152L24.8139 7.31963L23.8267 5.89447V7.67152Z" fill="white"/>
    <path d="M27.8848 7.98027L28.3533 7.90989L27.8429 4.07428L27.3995 4.13586L27.3828 3.97751L29.0477 3.73118C29.4911 3.6696 29.8341 3.69599 30.0934 3.81915C30.3528 3.94232 30.5033 4.15345 30.5452 4.44376C30.587 4.73407 30.5033 4.9804 30.3193 5.18273C30.1269 5.39387 29.8508 5.52583 29.4827 5.605V5.65779C29.7839 5.66658 30.0348 5.73696 30.2356 5.86892C30.4364 6.00088 30.5703 6.17683 30.6288 6.40556C30.6623 6.51992 30.6958 6.69587 30.7292 6.9158C30.7627 7.14453 30.8045 7.29408 30.8464 7.37326C30.8798 7.44364 30.9216 7.49642 30.9802 7.52281C31.0388 7.5492 31.0973 7.558 31.1726 7.5492C31.2228 7.5492 31.2647 7.53161 31.3149 7.50522C31.3651 7.48762 31.4152 7.45243 31.4654 7.41724L31.4822 7.57559C31.3901 7.63718 31.2981 7.68116 31.2145 7.71635C31.1224 7.75154 31.0388 7.77793 30.9551 7.78673C30.7041 7.82192 30.5033 7.75154 30.3528 7.5668C30.2022 7.38206 30.085 7.06535 30.0098 6.62549C30.0098 6.61669 30.0098 6.5991 30.0014 6.5815C29.9428 6.2648 29.8592 6.04487 29.7253 5.9305C29.6333 5.85133 29.5245 5.78975 29.399 5.76335C29.2735 5.72817 29.148 5.72817 29.0142 5.74576L28.6628 5.79854L28.9305 7.81312L29.3907 7.74274L29.4074 7.90109L27.9015 8.12103L27.8764 7.96268L27.8848 7.98027ZM28.6461 5.64899L28.9975 5.59621C29.399 5.53463 29.6667 5.43785 29.7839 5.2883C29.9094 5.13875 29.9428 4.91002 29.901 4.58452C29.8592 4.28541 29.7755 4.08307 29.65 3.9863C29.5162 3.88953 29.2819 3.86314 28.9473 3.91592L28.4286 3.9951L28.6461 5.64899Z" fill="white"/>
    <path d="M32.5851 7.5674V7.40905L33.062 7.43544L34.6013 3.37109H34.7519L35.8395 7.5762L36.2578 7.59379V7.75214L34.7352 7.68176V7.52341L35.2288 7.54981L34.8858 6.18623L33.7312 6.13344L33.246 7.45303L33.748 7.47943V7.63778L32.5684 7.58499L32.5851 7.5674ZM33.8065 5.9311L34.8439 5.98389L34.4173 4.27721L33.8065 5.9311Z" fill="white"/>
    <path d="M37.4629 7.93741L37.4964 7.78786L37.923 7.89342L38.7429 4.11939L38.3162 4.01382L38.3497 3.85547L39.8388 4.21616C40.2906 4.32172 40.6085 4.48887 40.8177 4.70881C41.0185 4.92874 41.0854 5.19266 41.0185 5.50056C40.9599 5.75568 40.8344 5.94922 40.6336 6.07238C40.4328 6.19555 40.1735 6.25713 39.8639 6.23074V6.25713C40.1735 6.39788 40.4161 6.58263 40.5667 6.81136C40.7173 7.04009 40.7675 7.28641 40.7173 7.54153C40.642 7.90222 40.4496 8.14854 40.14 8.27171C39.8305 8.40367 39.4289 8.41246 38.9437 8.2893L37.4796 7.93741H37.4629ZM38.9186 6.10757L38.5003 8.02538L39.019 8.14854C39.3453 8.22772 39.5795 8.21013 39.7217 8.11336C39.8723 8.00779 39.9811 7.77906 40.0564 7.41837C40.1317 7.05768 40.1233 6.79376 40.0229 6.60902C39.9225 6.42428 39.705 6.30111 39.3787 6.22194L38.9186 6.11637V6.10757ZM38.952 5.94922L39.3871 6.05479C39.705 6.13397 39.9392 6.12517 40.0815 6.0196C40.2237 5.92283 40.3408 5.7029 40.4161 5.35101C40.483 5.0431 40.4663 4.82317 40.3743 4.67362C40.2822 4.53286 40.0647 4.41849 39.7385 4.33932L39.3202 4.24255L38.952 5.94922Z" fill="white"/>
    <path d="M41.7207 9.05476L41.7793 8.90521L42.2143 9.09875L45.0002 5.84375L45.1424 5.90533L44.7743 10.2336L45.1591 10.4095L45.1006 10.5591L43.7035 9.93449L43.762 9.78493L44.2138 9.98727L44.3476 8.5885L43.2852 8.11345L42.3984 9.17792L42.8585 9.38026L42.7999 9.52981L41.7207 9.04596V9.05476ZM43.4023 7.97269L44.3644 8.40376L44.5233 6.6443L43.4023 7.97269Z" fill="white"/>
    <path d="M48.6982 11.1562L50.02 12.0799L49.9364 12.2119L49.6352 12.0007C49.3926 12.379 49.0998 12.5989 48.74 12.6517C48.3887 12.7045 48.0038 12.5814 47.5939 12.291C47.1505 11.9831 46.9079 11.5785 46.8409 11.0682C46.7824 10.558 46.9246 10.0301 47.2676 9.49351C47.4266 9.23838 47.619 9.02725 47.8281 8.8513C48.0456 8.67536 48.2799 8.5522 48.5392 8.47302C48.7902 8.39384 49.0328 8.37625 49.2671 8.41144C49.5013 8.44663 49.7189 8.5346 49.928 8.67536C50.087 8.78092 50.2208 8.91288 50.3212 9.06244C50.43 9.21199 50.5136 9.37034 50.5638 9.54629L50.865 9.48471L50.9403 9.53749L50.3798 10.426L50.271 10.3556C50.3798 10.0477 50.3965 9.75742 50.3296 9.48471C50.2626 9.22079 50.1037 9.00086 49.8694 8.83371C49.5432 8.60498 49.2169 8.57859 48.8906 8.75453C48.5643 8.93048 48.213 9.31756 47.8281 9.92457C47.46 10.514 47.2676 10.9714 47.2425 11.3233C47.2174 11.6664 47.3596 11.9479 47.6692 12.1679C47.9369 12.3526 48.1711 12.4142 48.3803 12.3526C48.5894 12.291 48.7986 12.0887 49.0077 11.7544L49.083 11.6312L48.6145 11.3057L48.6982 11.1738V11.1562ZM49.8443 7.03906L49.9698 7.12704C49.9196 7.27659 49.9196 7.40855 49.9782 7.53171C50.0368 7.65487 50.1539 7.78683 50.3379 7.90999C50.5136 8.03316 50.6726 8.10353 50.8064 8.10353C50.9403 8.10353 51.0574 8.05955 51.1662 7.95398L51.2917 8.04195C51.116 8.25309 50.9236 8.37625 50.7311 8.41144C50.5304 8.44663 50.3379 8.39384 50.1288 8.25309C49.928 8.11233 49.8025 7.93639 49.7607 7.73405C49.7105 7.52291 49.744 7.29418 49.8527 7.03906H49.8443Z" fill="white"/>
    <path d="M10.4662 54.842L12.4657 52.9418L12.1645 52.5899L12.2733 52.4844L13.2353 53.6016L13.1266 53.6984L12.8338 53.3553L10.8594 55.2291C10.6419 55.4403 10.5247 55.6426 10.4996 55.8625C10.4746 56.0825 10.5582 56.2848 10.7339 56.4871C10.9347 56.7247 11.1606 56.839 11.4115 56.8302C11.6625 56.8214 11.9135 56.6895 12.1896 56.4256L14.005 54.7013L13.7122 54.3582L13.821 54.2526L14.5154 55.062L14.4066 55.1588L14.1138 54.8245L12.29 56.5575C11.9637 56.8654 11.6542 57.015 11.3614 56.9974C11.0685 56.9886 10.7757 56.8126 10.4829 56.4783C10.2403 56.188 10.1148 55.8977 10.1064 55.5986C10.1064 55.2995 10.2236 55.0356 10.4662 54.8069V54.842Z" fill="white"/>
    <path d="M13.3859 59.4248L13.4695 59.3017L13.8042 59.5744L15.9375 56.6449L15.6029 56.381L15.6865 56.2578L16.565 56.9616L16.1969 60.2606L17.7613 58.114L17.4183 57.8413L17.502 57.7182L18.3386 58.3868L18.2465 58.5099L17.8952 58.2284L15.6196 61.3514L15.5025 61.2547L16.0295 56.812L13.938 59.6888L14.281 59.9615L14.189 60.0846L13.3691 59.4248H13.3859Z" fill="white"/>
    <path d="M17.9043 62.7599L17.9712 62.628L18.3895 62.8743L20.0795 59.6457L19.6612 59.3994L19.7281 59.2674L21.0834 60.0504L21.0165 60.1823L20.5898 59.936L18.8999 63.1646L19.3265 63.4109L19.2596 63.5429L17.9043 62.7599ZM20.5647 58.7572C20.5982 58.6868 20.6567 58.6428 20.732 58.6164C20.8073 58.59 20.8826 58.5988 20.9495 58.6428C21.0165 58.678 21.0583 58.7396 21.0834 58.8187C21.1085 58.8979 21.1001 58.9771 21.0583 59.0475C21.0248 59.1179 20.9663 59.1618 20.891 59.1882C20.8157 59.2146 20.7404 59.2058 20.6735 59.1618C20.6065 59.1267 20.5563 59.0651 20.5396 58.9859C20.5145 58.9067 20.5229 58.8275 20.5647 58.7572Z" fill="white"/>
    <path d="M22.6228 65.1965L22.7399 61.0442L22.3467 60.8947L22.3969 60.7539L23.7522 61.2817L23.702 61.4225L23.2837 61.2642L23.2 64.3696L25.0405 61.9503L24.5553 61.7568L24.6055 61.616L25.6262 62.0119L25.576 62.1527L25.1995 62.0031L22.7399 65.2405L22.6228 65.1965Z" fill="white"/>
    <path d="M26.3779 66.323L26.403 66.1735L26.8213 66.2526L27.4404 62.6194L27.0221 62.5402L27.0472 62.3906L29.8247 62.9097L29.6658 63.851L29.5487 63.8246C29.5487 63.5167 29.5068 63.2967 29.3897 63.156C29.2726 63.0152 29.0551 62.9185 28.7204 62.8481L28.0177 62.7161L27.7332 64.3788L27.8504 64.3964C28.093 64.4404 28.277 64.4316 28.3941 64.3524C28.5113 64.282 28.5949 64.1325 28.6535 63.9038L28.7706 63.9214L28.5196 65.3993L28.4025 65.3729C28.436 65.109 28.4025 64.9154 28.3021 64.7835C28.2017 64.6603 28.0177 64.5724 27.7416 64.5196H27.7081L27.3986 66.3318L28.1934 66.4814C28.5029 66.5429 28.7455 66.5166 28.9128 66.4022C29.0802 66.2878 29.2307 66.0591 29.3646 65.7072L29.4901 65.7336L29.2391 66.8421L26.3863 66.3054L26.3779 66.323Z" fill="white"/>
    <path d="M31.6328 66.9562H32.0846L32.0595 63.2614H31.6328V63.1118H33.2391C33.6574 63.0942 33.992 63.1734 34.2179 63.3229C34.4522 63.4725 34.5609 63.6924 34.5693 63.9739C34.5693 64.2554 34.4689 64.4754 34.2681 64.6425C34.059 64.8097 33.7829 64.9064 33.4231 64.9328V64.9768C33.6992 65.0296 33.9251 65.1264 34.1008 65.2759C34.2765 65.4255 34.3769 65.6102 34.4103 65.8302C34.4271 65.9445 34.4438 66.1117 34.4438 66.3316C34.4438 66.5515 34.4689 66.7011 34.494 66.7803C34.5191 66.8506 34.5526 66.9034 34.6028 66.9386C34.653 66.9738 34.7115 66.9826 34.7868 66.9826C34.8286 66.9826 34.8788 66.9826 34.929 66.965C34.9792 66.9562 35.0294 66.9298 35.0796 66.9034V67.053C34.9876 67.097 34.8956 67.1234 34.8119 67.1498C34.7199 67.1761 34.6362 67.1849 34.5609 67.1849C34.3183 67.1849 34.1426 67.0882 34.0171 66.8946C33.9 66.7011 33.8247 66.3932 33.808 65.9621C33.808 65.9533 33.808 65.9357 33.808 65.9181C33.7913 65.6102 33.7327 65.3903 33.6239 65.2671C33.5486 65.1792 33.4482 65.1088 33.3395 65.0648C33.2307 65.0208 33.1052 64.9944 32.9797 64.9944H32.6451L32.6618 66.9386H33.1052V67.0882H31.6579V66.9474L31.6328 66.9562ZM32.6284 64.8537H32.963C33.3479 64.8537 33.6156 64.7833 33.7411 64.6689C33.8749 64.5458 33.9418 64.3346 33.9335 64.0179C33.9335 63.7276 33.8749 63.5253 33.7662 63.4197C33.6574 63.3141 33.4399 63.2526 33.1052 63.2614H32.6116V64.8537H32.6284Z" fill="white"/>
    <path d="M37.3373 66.8527L37.2369 66.8703L37.0696 65.8322L37.1784 65.8146C37.3122 66.0873 37.4963 66.2897 37.7138 66.4304C37.9313 66.5624 38.1656 66.6064 38.4082 66.5624C38.6759 66.5184 38.8851 66.3864 39.044 66.1753C39.203 65.9642 39.2532 65.7354 39.2197 65.4803C39.1695 65.1812 38.8516 64.9877 38.266 64.8997C38.2158 64.8997 38.1823 64.8909 38.1572 64.8821C37.6552 64.8117 37.3122 64.6974 37.1198 64.5566C36.9274 64.4158 36.8186 64.2047 36.7684 63.9144C36.7183 63.5889 36.7684 63.3074 36.9441 63.0699C37.1115 62.8323 37.3624 62.6828 37.6803 62.6212C37.923 62.5772 38.1572 62.6036 38.3915 62.7092C38.4333 62.7268 38.4584 62.7356 38.4668 62.7356C38.4751 62.7356 38.4835 62.7356 38.4919 62.718C38.4919 62.718 38.5086 62.7004 38.5086 62.6916L38.5922 62.5332L38.7094 62.5156L38.86 63.413L38.7596 63.4305C38.6257 63.1666 38.4668 62.9907 38.2743 62.8763C38.0903 62.7707 37.8728 62.7356 37.6385 62.7795C37.421 62.8147 37.2537 62.9203 37.1282 63.0787C37.0027 63.237 36.9525 63.413 36.986 63.6065C37.0111 63.7648 37.0864 63.888 37.2202 63.9672C37.3541 64.0464 37.5465 64.0991 37.8142 64.1255C37.856 64.1255 37.9146 64.1343 37.9899 64.1431C38.4417 64.1871 38.7428 64.2487 38.9018 64.3367C39.044 64.4158 39.1528 64.5214 39.2448 64.6622C39.3285 64.7941 39.3954 64.9613 39.4205 65.146C39.4874 65.5507 39.4205 65.8938 39.2364 66.1841C39.044 66.4656 38.7596 66.6416 38.3664 66.7119C38.0903 66.7647 37.8309 66.7295 37.58 66.6064C37.5381 66.5888 37.513 66.58 37.513 66.58C37.513 66.58 37.5047 66.58 37.4963 66.5888C37.4963 66.5888 37.4796 66.6064 37.4712 66.6152L37.329 66.8351L37.3373 66.8527Z" fill="white"/>
    <path d="M41.6466 65.8747L41.6047 65.7339L42.0649 65.5844L41.0108 62.0654L40.5506 62.215L40.5088 62.0654L41.9896 61.5816L42.0314 61.7223L41.5629 61.8807L42.617 65.3996L43.0855 65.2501L43.1274 65.3908L41.6466 65.8747ZM40.743 61.0889C40.7179 61.0098 40.7263 60.9394 40.7598 60.8602C40.7932 60.7898 40.8518 60.7371 40.9271 60.7107C41.0024 60.6843 41.0693 60.6931 41.1446 60.7283C41.2115 60.7634 41.2617 60.825 41.2868 60.9042C41.3119 60.9834 41.3036 61.0537 41.2701 61.1329C41.2366 61.2121 41.1781 61.2561 41.1028 61.2825C41.0275 61.3089 40.9606 61.3001 40.8853 61.2649C40.8183 61.2297 40.7681 61.1681 40.743 61.0889Z" fill="white"/>
    <path d="M45.6792 64.3363L45.6122 64.1956L46.0473 63.9757L44.5414 60.6503C44.5414 60.6503 44.4912 60.6679 44.4745 60.6855C44.4494 60.6943 44.4159 60.7119 44.3741 60.7383C44.1315 60.8614 43.9809 61.011 43.9223 61.2045C43.8637 61.3892 43.8805 61.6796 43.9725 62.0578L43.8554 62.1194L43.4287 61.055L46.0724 59.7266L46.5827 60.7471L46.4656 60.7998C46.2732 60.4919 46.0807 60.3072 45.8883 60.228C45.6959 60.1576 45.47 60.184 45.2107 60.316C45.1688 60.3336 45.1354 60.3512 45.1103 60.3688C45.0936 60.3776 45.0768 60.3864 45.0601 60.3952L46.566 63.7205L46.9843 63.5094L47.0512 63.6414L45.6792 64.3275V64.3363Z" fill="white"/>
    <path d="M49.5859 62.1619L49.5022 62.0387L49.8536 61.7836L47.8374 58.7661L47.486 59.0212L47.4023 58.8981L49.703 57.1914L50.2301 57.9744L50.1297 58.0447C49.9289 57.8248 49.7365 57.7016 49.5608 57.6929C49.3851 57.6841 49.1592 57.772 48.8831 57.9832L48.3059 58.4142L49.2345 59.7954L49.3265 59.725C49.5273 59.5755 49.6444 59.4347 49.6779 59.294C49.7114 59.1532 49.6779 58.9861 49.5608 58.7837L49.6612 58.7133L50.481 59.945L50.3807 60.0153C50.2217 59.8042 50.0711 59.6898 49.9122 59.6722C49.7616 59.6546 49.5692 59.7338 49.3349 59.901L49.3098 59.9186L50.3221 61.4317L50.983 60.9478C51.2424 60.7543 51.3929 60.5608 51.4348 60.3584C51.4766 60.1561 51.4348 59.8746 51.2842 59.5227L51.3846 59.4435L51.9535 60.4112L49.5859 62.1707V62.1619Z" fill="white"/>
    <path d="M54.1795 58.3802L54.0791 58.2746L54.4221 57.9227L51.9542 55.3011C51.9542 55.3011 51.9123 55.3363 51.8956 55.3539C51.8789 55.3715 51.8454 55.3979 51.8119 55.4419C51.6195 55.6354 51.5275 55.8377 51.5275 56.0401C51.5275 56.2424 51.6362 56.5063 51.837 56.8318L51.745 56.9286L51.0088 56.0665L53.0919 53.9023L53.8951 54.6941L53.803 54.7909C53.527 54.5709 53.2844 54.4566 53.0752 54.4478C52.8744 54.4478 52.6653 54.5445 52.4645 54.7557C52.431 54.7909 52.4059 54.8173 52.3892 54.8349C52.3725 54.8525 52.3641 54.87 52.3474 54.8788L54.807 57.5004L55.1416 57.1573L55.242 57.2629L54.1628 58.389L54.1795 58.3802Z" fill="white"/>
    <path d="M53.7258 51.7114C53.6672 51.6586 53.6254 51.597 53.617 51.5091C53.6086 51.4299 53.617 51.3507 53.6756 51.2891C53.7258 51.2275 53.7843 51.1836 53.8596 51.1748C53.9349 51.166 54.0102 51.1748 54.0688 51.2363C54.1273 51.2891 54.1692 51.3507 54.1775 51.4299C54.1859 51.5091 54.1775 51.5882 54.119 51.6498C54.0688 51.7114 54.0102 51.7554 53.9349 51.7642C53.8596 51.773 53.7843 51.7642 53.7258 51.7114ZM57.0889 55.072L56.9718 54.984L57.2646 54.5793L54.4787 52.3448L54.1859 52.7495L54.0688 52.6615L55.0058 51.3683L55.1229 51.4563L54.8217 51.8698L57.6076 54.1043L57.9088 53.6908L58.0259 53.7788L57.0889 55.072Z" fill="white"/>
    <path d="M2.34277 34.8192V34.5993L3.07878 33.8515C3.31297 33.614 3.4886 33.3941 3.6057 33.1917C3.72279 32.9894 3.78133 32.7959 3.78133 32.6199C3.78133 32.4088 3.72279 32.2416 3.61406 32.1185C3.50533 31.9953 3.34642 31.9337 3.16242 31.9337C2.99514 31.9337 2.86132 31.9777 2.74423 32.0745C2.62714 32.1625 2.57696 32.2768 2.57696 32.3912C2.57696 32.4088 2.57696 32.4264 2.58532 32.4352C2.58532 32.444 2.60205 32.4528 2.61041 32.4528C2.61041 32.4528 2.61878 32.4528 2.62714 32.4528C2.67732 32.4352 2.7275 32.4264 2.77769 32.4264C2.8446 32.4264 2.89478 32.444 2.92823 32.488C2.96169 32.5319 2.98678 32.5847 2.98678 32.6551C2.98678 32.7255 2.96169 32.7871 2.91987 32.8398C2.87805 32.8838 2.81951 32.9102 2.7526 32.9102C2.66896 32.9102 2.59369 32.875 2.53514 32.8047C2.47659 32.7343 2.4515 32.6375 2.4515 32.5231C2.4515 32.312 2.53514 32.1449 2.70241 32.0041C2.86969 31.8633 3.07878 31.793 3.33806 31.793C3.61406 31.793 3.83988 31.8633 4.00715 32.0129C4.17443 32.1537 4.25807 32.3472 4.25807 32.5847C4.25807 32.7431 4.19952 32.9102 4.09079 33.0774C3.9737 33.2445 3.78133 33.4645 3.49697 33.7108L2.6606 34.4585H3.82315C3.92352 34.4585 3.99043 34.441 4.03225 34.397C4.07406 34.353 4.09916 34.2474 4.12425 34.0715H4.24134L4.18279 34.828H2.34277V34.8192Z" fill="white"/>
    <path d="M5.16126 33.3413C5.16126 32.8838 5.26162 32.5143 5.45399 32.224C5.64635 31.9337 5.8889 31.793 6.18163 31.793C6.47436 31.793 6.71691 31.9337 6.90928 32.224C7.10164 32.5143 7.19364 32.8838 7.19364 33.3413C7.19364 33.7988 7.09328 34.1682 6.90091 34.4585C6.70855 34.7489 6.466 34.8896 6.17327 34.8896C6.03945 34.8896 5.92236 34.8544 5.80527 34.7928C5.69654 34.7313 5.58781 34.6345 5.48744 34.5025C5.37035 34.3442 5.28671 34.177 5.22817 33.9923C5.17799 33.8075 5.14453 33.5876 5.14453 33.3413H5.16126ZM5.62126 33.3413C5.62126 33.8515 5.66308 34.221 5.75508 34.4322C5.83872 34.6521 5.9809 34.7577 6.18163 34.7577C6.38236 34.7577 6.52455 34.6521 6.60818 34.4322C6.69182 34.2122 6.73364 33.8515 6.73364 33.3325C6.73364 32.8135 6.69182 32.4704 6.59982 32.2416C6.50782 32.0129 6.36564 31.8985 6.18163 31.8985C5.99763 31.8985 5.85545 32.0129 5.76345 32.2504C5.67145 32.488 5.62963 32.8486 5.62963 33.3325L5.62126 33.3413Z" fill="white"/>
    <path d="M59.3994 34.831V34.611L60.1354 33.8633C60.3696 33.6257 60.5452 33.4058 60.6623 33.2035C60.7794 33.0011 60.838 32.8076 60.838 32.6316C60.838 32.4205 60.7794 32.2533 60.6707 32.1302C60.562 32.007 60.4031 31.9454 60.2191 31.9454C60.0518 31.9454 59.918 31.9894 59.8009 32.0862C59.6838 32.1742 59.6336 32.2885 59.6336 32.4029C59.6336 32.4205 59.6336 32.4381 59.642 32.4469C59.642 32.4557 59.6587 32.4645 59.6671 32.4645C59.6671 32.4645 59.6754 32.4645 59.6838 32.4645C59.734 32.4469 59.7841 32.4381 59.8343 32.4381C59.9012 32.4381 59.9514 32.4557 59.9849 32.4997C60.0183 32.5437 60.0434 32.5964 60.0434 32.6668C60.0434 32.7372 60.0183 32.7988 59.9765 32.8516C59.9347 32.8955 59.8761 32.9219 59.8092 32.9219C59.7256 32.9219 59.6503 32.8868 59.5918 32.8164C59.5332 32.746 59.5081 32.6492 59.5081 32.5349C59.5081 32.3237 59.5918 32.1566 59.7591 32.0158C59.9263 31.8751 60.1354 31.8047 60.3947 31.8047C60.6707 31.8047 60.8965 31.8751 61.0638 32.0246C61.2311 32.1654 61.3147 32.3589 61.3147 32.5964C61.3147 32.7548 61.2562 32.9219 61.1474 33.0891C61.0303 33.2562 60.838 33.4762 60.5536 33.7225L59.7172 34.4703H60.8798C60.9802 34.4703 61.0471 34.4527 61.0889 34.4087C61.1307 34.3647 61.1558 34.2591 61.1809 34.0832H61.298L61.2394 34.8397H59.4078L59.3994 34.831Z" fill="white"/>
    <path d="M62.9045 34.83V34.7068H63.2223V34.0119H62.1016V33.7567C62.2437 33.4664 62.4194 33.1673 62.6201 32.8418C62.8208 32.5251 63.055 32.1732 63.3394 31.7773H63.6238V33.8711H64.0252V33.5192H64.1256V34.3462H64.0252V34.0119H63.6154V34.7068H63.9416V34.83H62.8961H62.9045ZM62.2019 33.8711H63.2307V32.1292C62.963 32.5251 62.7372 32.8682 62.5532 33.1849C62.3692 33.4928 62.2521 33.7127 62.2019 33.8359V33.8711Z" fill="white"/>
    <path d="M43.0174 32.3909C46.3903 32.3909 49.1246 29.5157 49.1246 25.9689C49.1246 22.4221 46.3903 19.5469 43.0174 19.5469C39.6444 19.5469 36.9102 22.4221 36.9102 25.9689C36.9102 29.5157 39.6444 32.3909 43.0174 32.3909Z" fill="white"/>
    <path d="M42.9586 13.4339L42.6659 17.5158L42.3564 13.1523C42.5655 13.2403 42.7579 13.3371 42.9586 13.4339Z" fill="white"/>
    <path d="M41.2859 17.7092L39.9561 12.2109C40.2404 12.2989 40.5081 12.3957 40.7841 12.5012L41.2859 17.7092Z" fill="white"/>
    <path d="M39.9392 18.1507L37.0947 11.5C37.3457 11.544 37.6134 11.588 37.8728 11.6496C37.9815 11.6671 38.107 11.7023 38.2241 11.7375L39.9392 18.1507Z" fill="white"/>
    <path d="M38.6999 18.8353L33.7305 11.1641C33.8141 11.1641 33.8978 11.1641 33.9814 11.1729C34.3998 11.1817 34.8181 11.2168 35.228 11.252L38.6999 18.8353Z" fill="white"/>
    <path d="M37.5785 19.7257L29.8984 11.4299C30.4422 11.3419 30.9944 11.2715 31.5465 11.2363C31.6135 11.2275 31.6888 11.2275 31.7641 11.2188L37.5785 19.7257Z" fill="white"/>
    <path d="M36.6342 20.8131L25.6914 12.526C26.0093 12.4117 26.3356 12.2973 26.6619 12.1917C27.0634 12.0686 27.4734 11.9454 27.8833 11.8398L36.6342 20.8131Z" fill="white"/>
    <path d="M35.8806 22.055L21.3906 14.7093C21.4408 14.6741 21.491 14.6389 21.5328 14.6125C22.244 14.1462 22.9885 13.7328 23.7498 13.3633L35.8806 22.055Z" fill="white"/>
    <path d="M29.2891 21.9599C29.2891 21.9599 29.2975 22.0655 29.2389 22.1271C29.1971 22.1711 29.1636 22.1799 29.1051 22.1799C28.9879 22.1799 28.8123 22.1095 28.5613 22.0919H28.5278C28.3689 22.0919 27.9756 22.1271 27.6828 22.391C27.6159 22.4526 27.5657 22.5405 27.549 22.6373V22.6725L27.5239 22.7429C27.5239 22.7429 27.5155 22.8133 27.5155 22.8484C27.5155 22.998 27.5573 23.1476 27.6494 23.2707C27.7832 23.4555 27.9673 23.737 28.0928 24.1241C28.1346 24.2736 28.1764 24.4408 28.2015 24.6255C28.2099 24.6871 28.2183 24.7399 28.2183 24.7926L28.1179 24.7663C28.0677 24.7487 28.0091 24.7399 27.9506 24.7399H27.9087C27.8167 24.7399 27.7414 24.7487 27.6577 24.7663C27.6159 24.7751 27.5824 24.7839 27.549 24.7926C27.3817 24.8454 27.2311 24.951 27.1056 25.0918H27.0219C26.9215 25.0918 26.8295 25.1181 26.7375 25.1533C26.4279 25.2941 26.11 25.4436 25.7837 25.6196C25.5328 25.7516 25.2818 25.8923 25.0224 26.0507C25.0057 25.9451 24.9722 25.8395 24.9137 25.7516C24.8718 25.6724 24.8216 25.602 24.7547 25.5404H24.7129C24.7129 25.5404 24.7129 25.514 24.7213 25.5052C24.7213 25.3381 24.738 25.1445 24.7798 24.9422C24.8969 24.4232 25.1312 24.0537 25.2985 23.8337C25.3152 23.8161 25.3236 23.7986 25.3403 23.781C25.3487 23.7634 25.3738 23.7458 25.3905 23.7194C25.4407 23.6314 25.4826 23.5434 25.5328 23.4643C25.7168 23.1212 25.9176 22.7781 26.1769 22.4878C26.2271 22.4174 26.2857 22.3558 26.3443 22.2942C26.4865 22.1535 26.5952 22.0127 26.6705 21.8719C26.7793 21.696 27.0387 21.2825 27.4319 21.0802H27.4402C27.5741 21.0098 27.7163 20.9658 27.8753 20.957H27.8836C28.0091 20.9746 28.1932 21.0186 28.3856 21.1418C28.5529 21.2473 28.5529 21.3001 28.737 21.4585H28.7453C28.7453 21.4585 28.7788 21.4937 28.8039 21.5113C29.0967 21.7488 29.2808 21.7928 29.2891 21.9599Z" fill="white"/>
    <path d="M35.3457 23.4191L30.0416 21.8444C29.9914 21.3781 29.64 21.1494 29.4643 21.0174C29.4058 20.9822 29.3388 20.9382 29.2635 20.8767C29.1882 20.8151 29.1464 20.7711 29.113 20.7359C29.046 20.6655 28.9456 20.5687 28.7616 20.4544C28.4771 20.2608 28.1676 20.1905 27.9752 20.1641C27.9417 20.1641 27.9166 20.1641 27.8831 20.1641H27.8748C27.2892 20.1905 26.8374 20.4896 26.5278 20.8151L22.8384 19.7242C21.8429 18.4926 21.1819 17.7976 20.7134 17.3138C20.6465 17.2346 20.5629 17.1466 20.4792 17.0674L20.3872 16.9795C20.3872 16.9795 20.3704 16.9531 20.3537 16.9443C20.1529 16.7595 19.9187 16.6628 19.6593 16.6628C19.6175 16.6628 19.5338 16.6628 19.4418 16.6803C19.3916 16.6891 19.3414 16.7067 19.2996 16.7243C19.1406 16.7859 18.8562 16.9531 18.7056 17.3489C18.6638 17.4633 18.6387 17.5865 18.647 17.7096C18.6638 17.9823 18.6889 18.2463 18.7307 18.5014L17.3252 18.0879C17.9443 17.4369 18.6052 16.8211 19.2912 16.2493C19.4083 16.1613 19.5171 16.0733 19.6342 15.9766L35.3457 23.4279V23.4191Z" fill="white"/>
    <path d="M20.9219 23.3677L13.9111 22.6287C14.2039 22.1096 14.5219 21.6082 14.8565 21.1243C15.1744 20.6493 15.5174 20.183 15.8688 19.7344L19.2821 20.6493C19.7004 21.705 20.2861 22.6111 20.9219 23.3677Z" fill="white"/>
    <path d="M25.3647 22.2736C25.2727 22.388 25.1974 22.5111 25.1222 22.6343C24.9883 22.4495 24.8545 22.2736 24.7207 22.0977L25.3647 22.2736Z" fill="white"/>
    <path d="M32.9284 24.298C32.7611 24.3332 32.5101 24.3948 32.2257 24.4827C32.1587 24.5003 32.0918 24.5267 32.0332 24.5443L28.896 24.21C28.8039 23.7614 28.6283 23.3919 28.4609 23.1016L32.9284 24.298Z" fill="white"/>
    <path d="M35.0364 24.8616L33.8989 24.7385C33.8989 24.7385 33.8822 24.6945 33.8738 24.6769C33.8487 24.6241 33.8153 24.5713 33.7734 24.5273L35.0364 24.8616Z" fill="white"/>
    <path d="M21.5594 25.2829C20.8315 25.8371 20.0368 26.5761 19.3173 27.5614L11.5703 28.1684C11.6205 27.9572 11.6874 27.7373 11.7544 27.5262C12.0639 26.5145 12.4404 25.5468 12.8838 24.6055L21.5594 25.2829Z" fill="white"/>
    <path d="M28.186 25.8047C28.186 25.8047 28.1269 25.8135 28.1016 25.8047H28.186Z" fill="white"/>
    <path d="M34.9779 26.339L33.0459 26.4885C33.1295 26.3918 33.2048 26.295 33.2801 26.207L34.9779 26.339Z" fill="white"/>
    <path d="M18.1451 29.5859C17.6682 30.6768 17.4089 31.7061 17.2834 32.5682L10.624 34.3541C10.6491 33.3864 10.716 32.4451 10.8583 31.5125C10.9085 31.1167 10.9754 30.7208 11.0507 30.3337L18.1451 29.5859Z" fill="white"/>
    <path d="M26.4609 28.7852C26.4609 28.9435 26.4442 29.1195 26.4023 29.2954V29.1898L26.4191 29.0755C26.4191 29.0755 26.4191 28.9963 26.4274 28.9699C26.4358 28.9083 26.4525 28.8467 26.4609 28.7852Z" fill="white"/>
    <path d="M35.1539 27.7891L31.8828 28.6688C31.7657 28.528 31.6318 28.3961 31.498 28.2817C31.4645 28.2465 31.4227 28.2201 31.3809 28.1849L31.5984 28.1673L35.1539 27.7891Z" fill="white"/>
    <path d="M26.5959 33.4671L11.2693 40.7249C11.1522 40.197 11.0435 39.6604 10.9514 39.115C10.8092 38.288 10.7172 37.4435 10.667 36.5901L17.9455 34.4348C17.9455 34.4348 18.0207 34.4436 18.0542 34.4436C18.0626 34.4436 18.0877 34.4348 18.1044 34.4348C18.8657 34.3996 20.0537 34.1973 21.3504 33.5199C21.4676 33.4583 21.5847 33.3879 21.6934 33.3264L25.8597 32.0859C25.9267 32.2619 26.0103 32.4466 26.094 32.6138C26.2446 32.9041 26.4119 33.1944 26.5959 33.4671Z" fill="white"/>
    <path d="M35.5792 29.207L32.8101 30.5178C32.785 30.3595 32.7348 30.2099 32.6846 30.0604L35.5792 29.207Z" fill="white"/>
    <path d="M30.8284 34.3713L26.4112 37.5383C25.4407 37.3536 24.6125 37.3184 24.1272 37.3184C23.826 37.3184 23.642 37.336 23.642 37.336C23.2488 37.3624 22.9392 37.7143 22.9392 38.1278V39.9664C22.9392 39.9664 22.9141 40.0192 22.9058 40.0456L13.5525 46.7491C13.5023 46.6435 13.4438 46.538 13.3852 46.4412C12.7912 45.2888 12.2809 44.0923 11.8877 42.8519L29.0967 34.125C29.4648 34.1778 29.8663 34.1602 30.2763 34.257L30.3767 34.2834C30.3767 34.2834 30.4352 34.2834 30.4687 34.3009C30.5858 34.3273 30.7029 34.3537 30.8284 34.3713Z" fill="white"/>
    <path d="M36.2245 30.5078L33.1458 32.7159C33.1124 32.6016 33.0705 32.496 33.0203 32.3992L32.9952 32.3464C32.9952 32.2849 32.9952 32.2233 32.9785 32.1529L36.2245 30.5078Z" fill="white"/>
    <path d="M22.529 42.6953C22.4286 43.6806 22.3115 44.8682 22.2027 46.0647C22.1693 46.3814 22.1442 46.7069 22.1107 47.0236L17.3253 51.9237C16.564 51.1407 15.8613 50.2874 15.2171 49.3988C15.033 49.1525 14.8573 48.8974 14.6816 48.6335L22.529 42.6953Z" fill="white"/>
    <path d="M37.0772 31.6875L30.0581 38.8837C29.5896 38.5934 29.096 38.347 28.5605 38.1359L37.0772 31.6875Z" fill="white"/>
    <path d="M23.3832 54.1902L22.2621 55.8353C21.6933 55.5098 21.1411 55.1491 20.6057 54.7708C20.0117 54.3398 19.4344 53.8999 18.8906 53.416L21.8187 50.2578C21.7351 51.1815 21.6849 51.7797 21.6849 51.7797C21.6682 51.9205 21.6096 52.5539 21.6012 53.0553L21.5678 53.4072C21.5427 53.6448 21.6263 53.8823 21.7853 54.0582C21.9275 54.199 22.1199 54.287 22.3207 54.287C22.3458 54.287 22.3793 54.2782 22.4127 54.2782C22.647 54.2518 22.9816 54.2166 23.3832 54.1902Z" fill="white"/>
    <path d="M38.1148 32.6836L32.3674 41.085C32.0913 40.6539 31.765 40.2669 31.4053 39.915L38.1148 32.6836Z" fill="white"/>
    <path d="M29.6143 54.5863L27.9745 58.1668C27.7403 58.1228 27.5144 58.0613 27.2969 57.9909C26.2177 57.6918 25.1803 57.3047 24.1763 56.8296H24.168L25.8914 54.1641C27.0041 54.208 28.2924 54.3224 29.6143 54.5863Z" fill="white"/>
    <path d="M27.6483 52.071C27.5312 52.0535 27.4057 52.036 27.2803 52.0185L27.3054 51.9922C27.4225 52.0097 27.5395 52.036 27.6483 52.071Z" fill="white"/>
    <path d="M39.2952 33.4658L36.9192 38.6562C36.4591 38.8938 36.0324 39.1753 35.6308 39.492L35.6141 39.5096C35.4217 39.6591 35.2376 39.8263 35.0703 40.0022L39.3035 33.457L39.2952 33.4658Z" fill="white"/>
    <path d="M34.9354 55.1319L33.9483 58.8355C33.7224 58.8443 33.5049 58.8443 33.2873 58.8443C32.593 58.8443 31.9153 58.8091 31.2377 58.7475C30.8444 58.7036 30.4512 58.6596 30.0664 58.5892L31.5556 55.1055C31.84 55.2022 32.1245 55.3078 32.4005 55.431L32.4758 55.4574C32.5679 55.4926 32.6682 55.5101 32.7603 55.5101C32.9109 55.5101 33.0615 55.4662 33.1869 55.3782C33.2037 55.3694 33.2204 55.3518 33.2371 55.3342C33.2455 55.3518 33.2622 55.3606 33.2706 55.3694C33.279 55.3782 33.279 55.3782 33.2873 55.3782C33.4212 55.5013 33.5885 55.5541 33.7475 55.5541C33.8981 55.5541 34.0403 55.5101 34.1658 55.4222C34.4168 55.3166 34.6761 55.2198 34.9354 55.1319Z" fill="white"/>
    <path d="M33.7731 51.8504L33.748 51.868V51.0234L33.7731 51.8504Z" fill="white"/>
    <path d="M40.5829 34.0352L39.6211 37.642C39.412 37.686 39.1946 37.7476 38.9688 37.8092L40.5829 34.0352Z" fill="white"/>
    <path d="M40.0643 54.1914L39.7129 57.8687C39.2528 58.0006 38.7843 58.1326 38.3158 58.247C37.5879 58.4141 36.8433 58.5637 36.082 58.6516L37.0692 54.5609C38.1066 54.3586 39.1356 54.253 40.0643 54.1914Z" fill="white"/>
    <path d="M41.9542 34.3555L41.6698 37.3465C41.536 37.3553 41.3855 37.3641 41.2266 37.3817L41.9542 34.3555Z" fill="white"/>
    <path d="M43.6123 38.0327C43.6123 38.0327 43.5956 37.9711 43.5873 37.9359C43.5371 37.6896 43.3698 37.4872 43.1523 37.3993L43.3614 34.4258L43.604 37.9095V38.0327H43.6123Z" fill="white"/>
    <path d="M44.8503 55.5033C44.7834 55.5473 44.7165 55.5913 44.6495 55.6264C43.7209 56.1983 42.7588 56.6997 41.7549 57.1132L41.964 54.1485C42.9178 54.1661 43.7042 54.2277 44.1559 54.2805C44.181 54.2805 44.2145 54.2893 44.248 54.2893C44.432 54.2893 44.6161 54.2101 44.7499 54.0781L44.8503 55.5033Z" fill="white"/>
    <path d="M49.0649 52.1154C48.4458 52.7488 47.7766 53.3558 47.0905 53.9188C46.94 54.0244 46.7977 54.1475 46.6555 54.2531L44.748 34.2305L49.0649 52.1154Z" fill="white"/>
    <path d="M52.2286 48.1022C51.9609 48.5157 51.6931 48.9204 51.4087 49.3251C51.1326 49.7034 50.8482 50.0816 50.5554 50.4423L46.0879 33.7891L52.2286 48.1022Z" fill="white"/>
    <path d="M54.3206 43.9076C54.2788 44.0219 54.2286 44.1451 54.1867 44.2594C53.919 44.9192 53.6346 45.5438 53.3167 46.1685L47.335 33.1133L54.3206 43.9076Z" fill="white"/>
    <path d="M55.4915 39.8157C55.3827 40.3875 55.2489 40.9418 55.0983 41.496C55.0732 41.6015 55.0397 41.7071 55.0062 41.8127L48.4473 32.2148L55.4915 39.8157Z" fill="white"/>
    <path d="M55.9348 36.0779C55.9181 36.3242 55.9014 36.5617 55.893 36.808C55.8679 37.116 55.8428 37.4063 55.8093 37.7054L49.3926 31.125L55.9348 36.0779Z" fill="white"/>
    <path d="M55.9426 34.0263L50.1533 29.8828L55.859 32.7771C55.8924 33.1906 55.9175 33.6041 55.9426 34.0263Z" fill="white"/>
    <path d="M55.6087 30.8508L50.6895 28.5195L55.433 29.9271C55.4999 30.235 55.5669 30.5429 55.6087 30.8508Z" fill="white"/>
    <path d="M55.0059 28.1592L50.9902 27.0859L54.8052 27.4906C54.8637 27.6666 54.9223 27.8513 54.9725 28.036C54.9892 28.0712 54.9976 28.124 55.0059 28.1592Z" fill="white"/>
    <path d="M54.22 25.854L51.0576 25.6076L54.0276 25.3789C54.0276 25.3789 54.0359 25.4053 54.0443 25.4229C54.1112 25.5724 54.1698 25.7132 54.22 25.854Z" fill="white"/>
    <path d="M53.3403 23.8861L50.873 24.15L53.1563 23.543C53.2316 23.6485 53.2902 23.7717 53.3403 23.8861Z" fill="white"/>
    <path d="M52.3945 22.1702L50.4541 22.742L52.2272 21.9062C52.2774 21.9766 52.3276 22.0558 52.3694 22.135C52.3778 22.135 52.3861 22.1614 52.3945 22.1702Z" fill="white"/>
    <path d="M51.3751 20.6379L49.8027 21.4297L51.2162 20.418C51.2831 20.4883 51.3333 20.5675 51.3751 20.6379Z" fill="white"/>
    <path d="M50.2952 19.2482L48.957 20.2599L50.128 19.0547C50.1949 19.1251 50.245 19.1866 50.2952 19.2482Z" fill="white"/>
    <path d="M49.1327 17.9543L47.9199 19.2651L48.9487 17.7695C49.0156 17.8223 49.0741 17.8839 49.1327 17.9543Z" fill="white"/>
    <path d="M47.861 16.7424L46.7402 18.4667L47.6268 16.5312L47.6435 16.5488C47.7188 16.6104 47.7857 16.672 47.861 16.7424Z" fill="white"/>
    <path d="M46.4377 15.5793L45.4424 17.9018L46.1282 15.3594C46.2286 15.4298 46.3373 15.5001 46.4377 15.5793Z" fill="white"/>
    <path d="M44.825 14.4788L44.0723 17.5842L44.3901 14.2148C44.4988 14.2764 44.5992 14.338 44.6995 14.3996L44.825 14.4788Z" fill="white"/>
    <path d="M44.2474 53.486C43.8459 53.4333 43.0511 53.3629 42.0221 53.3541C41.8966 53.3453 41.7711 53.3453 41.6372 53.3453C41.1771 53.3453 40.6751 53.3541 40.1397 53.3893C39.2445 53.4333 38.2657 53.5388 37.2702 53.7148C36.5758 53.8467 35.8814 54.0051 35.187 54.225C34.7185 54.357 34.2584 54.5241 33.8066 54.7089H33.7982L33.7899 54.7265C33.7731 54.7353 33.7648 54.7441 33.7648 54.7441C33.7564 54.7441 33.7564 54.7529 33.748 54.7529C33.7564 54.7529 33.7564 54.7441 33.7564 54.7353C33.7648 54.7265 33.7648 54.7177 33.7731 54.7089V51.8497L33.748 51.0228V47.8118L33.7731 47.7238V45.0758C33.7731 43.1492 34.6097 41.3194 36.0654 40.1406C36.0738 40.1406 36.0822 40.1318 36.0905 40.123C36.1658 40.0614 36.2495 39.9998 36.3248 39.947C37.0359 39.428 37.7972 39.0497 38.5502 38.777C38.7426 38.7066 38.9266 38.645 39.119 38.5922C39.2111 38.5658 39.3031 38.5395 39.3868 38.5219C39.9808 38.3635 40.5329 38.2667 41.0265 38.2052C41.2273 38.1788 41.4197 38.1612 41.5954 38.1524C41.9384 38.126 42.2229 38.1172 42.432 38.1172C42.7081 38.1172 42.867 38.126 42.867 38.126V49.2809H42.6913C42.5826 49.2809 42.4487 49.2809 42.3065 49.2897C41.8464 49.3073 41.2273 49.3513 40.5162 49.4745C39.9138 49.58 39.2362 49.756 38.5585 50.0111C38.4163 50.0639 38.2741 50.1167 38.1319 50.1871C37.3622 50.5038 36.5925 50.9612 35.8898 51.577C35.873 51.5946 35.8563 51.6034 35.8396 51.621C35.1703 52.2192 34.5679 52.9846 34.1078 53.9347L34.0576 54.0403C33.999 54.1722 33.9321 54.3218 33.8735 54.4625C33.8484 54.5329 33.815 54.6033 33.7899 54.6825C34.0074 54.2602 34.5428 53.4509 35.5969 52.6591C36.1658 52.228 36.902 51.797 37.8223 51.4363C38.5502 51.146 39.4035 50.8996 40.3907 50.7237C40.9512 50.6269 41.5619 50.5565 42.2229 50.5038C42.6161 50.4774 43.026 50.4598 43.4527 50.4598L42.9842 40.4309C43.0595 40.4309 43.3439 43.2812 43.6032 46.1403C43.871 48.9994 44.1219 51.8497 44.1219 51.8497C43.4276 51.753 42.7666 51.709 42.1392 51.7002H42.0304C41.4197 51.7002 40.8341 51.7442 40.2903 51.8146C39.2696 51.9377 38.3661 52.1752 37.5797 52.4656C36.6929 52.7823 35.9483 53.1605 35.3711 53.5212C34.5261 54.0403 34.0158 54.5065 33.8568 54.6649C34.0158 54.5593 34.4843 54.2514 35.2707 53.8995C35.8228 53.6532 36.5339 53.3981 37.404 53.1781C38.2071 52.967 39.1358 52.7999 40.2066 52.7031C40.7672 52.6591 41.3695 52.6327 42.0137 52.6327H42.0723C42.7332 52.6327 43.4359 52.6679 44.1721 52.7383L44.2474 53.486Z" fill="white"/>
    <path d="M32.7611 54.709C32.4683 54.5946 32.1755 54.4802 31.8743 54.3835C31.8158 54.3571 31.7488 54.3395 31.6903 54.3219C31.2469 54.1723 30.8035 54.0492 30.3601 53.9436C30.2262 53.9084 30.084 53.882 29.9501 53.8556C28.7203 53.5829 27.4905 53.4422 26.3946 53.3894C25.8759 53.3542 25.3823 53.3454 24.9222 53.3454C24.5708 53.3454 24.2445 53.3542 23.9517 53.363C23.2071 53.3894 22.6382 53.4422 22.3203 53.4861L22.3956 52.7384C23.1235 52.668 23.8095 52.6328 24.4537 52.6328H24.5457L25.7169 52.668H25.7755C26.1352 52.6856 26.4782 52.7208 26.8045 52.756C27.0471 52.7824 27.2897 52.8088 27.5156 52.8439C28.5363 53.0023 29.4147 53.2222 30.1342 53.4598C30.2932 53.5125 30.4354 53.5653 30.5776 53.6181C30.586 53.6181 30.6027 53.6269 30.6111 53.6269C31.1632 53.8292 31.6066 54.0404 31.9413 54.2163C32.3261 54.4099 32.5771 54.577 32.6942 54.6562C32.7109 54.665 32.7277 54.6826 32.736 54.6914C32.7444 54.6914 32.7528 54.7002 32.7611 54.709Z" fill="white"/>
    <path d="M32.2012 53.4609C32.2012 53.4609 32.2349 53.5051 32.2349 53.5317L32.2518 53.4963C32.2518 53.4963 32.2181 53.4786 32.2012 53.4609Z" fill="white"/>
    <path d="M32.2005 53.4613C32.2005 53.4613 32.2339 53.5053 32.2339 53.5317L32.2507 53.4965C32.2507 53.4965 32.2172 53.4789 32.2005 53.4613ZM27.3063 51.9922L27.2812 52.0186C27.4067 52.0362 27.5322 52.0538 27.6494 52.0714C27.5406 52.0362 27.4235 52.0098 27.3063 51.9922Z" fill="white"/>
    <path d="M32.2339 53.5317C32.2339 53.5317 32.2172 53.4877 32.2005 53.4613L32.2339 53.5317ZM32.8112 54.7457H32.8028H32.8112ZM32.2005 53.4613C32.2005 53.4613 32.2339 53.5053 32.2339 53.5317L32.2507 53.4965C32.2507 53.4965 32.2172 53.4789 32.2005 53.4613ZM32.2005 53.4613C32.2005 53.4613 32.2339 53.5053 32.2339 53.5317L32.2507 53.4965C32.2507 53.4965 32.2172 53.4789 32.2005 53.4613ZM27.3063 51.9922L27.2812 52.0186C27.4067 52.0362 27.5322 52.0538 27.6494 52.0714C27.5406 52.0362 27.4235 52.0098 27.3063 51.9922ZM33.2713 55.3703C33.2713 55.3703 33.2462 55.3528 33.2379 55.3352C33.2211 55.3528 33.2044 55.3703 33.1877 55.3791C33.0622 55.4671 32.9116 55.5111 32.761 55.5111C32.669 55.5111 32.5686 55.4935 32.4766 55.4583L32.4013 55.4319C32.5268 55.5111 32.669 55.5551 32.8112 55.5551C32.9785 55.5551 33.1542 55.4935 33.2881 55.3791C33.2881 55.3791 33.2825 55.3762 33.2713 55.3703Z" fill="white"/>
    <path d="M32.803 54.7353C32.803 54.7353 32.7863 54.7353 32.7779 54.7265H32.7612V54.7089C32.7612 54.7089 32.7445 54.6913 32.7361 54.6913C32.7361 54.6913 32.711 54.6649 32.6943 54.6561C32.5771 54.5329 32.3513 54.3306 31.9999 54.0667C31.6903 53.8291 31.2804 53.5476 30.7701 53.2661C30.7617 53.2573 30.7533 53.2573 30.745 53.2485C30.6111 53.1781 30.4689 53.1078 30.3267 53.0374C29.5905 52.6679 28.6953 52.316 27.6495 52.0697C27.5408 52.0345 27.4237 52.0081 27.3065 51.9905C26.6289 51.841 25.8843 51.7442 25.0812 51.7178C24.8971 51.7002 24.7131 51.7002 24.529 51.7002C23.8681 51.7002 23.1737 51.7442 22.4375 51.8497C22.4375 51.8497 22.5295 50.8117 22.655 49.3513C22.747 48.41 22.8474 47.284 22.9562 46.1579C23.0901 44.6624 23.2323 43.1668 23.3494 42.076C23.4582 41.0819 23.5418 40.4309 23.5753 40.4309L23.5084 41.9528L23.3243 45.762L23.1821 48.7707L23.1068 50.4598C24.094 50.4686 24.9891 50.5478 25.7923 50.6621C26.5536 50.7765 27.2396 50.9348 27.8503 51.1284C28.9965 51.4803 29.9 51.9289 30.6028 52.4128C30.9876 52.6591 31.3055 52.923 31.5816 53.1781C31.7991 53.3717 31.9832 53.574 32.1337 53.75C32.1923 53.8203 32.2425 53.8907 32.2927 53.9523H32.3094C32.5269 54.2514 32.6775 54.4977 32.7696 54.6825C32.7361 54.6033 32.711 54.5329 32.6775 54.4625C32.6273 54.3306 32.5688 54.1986 32.5102 54.0755C32.5019 54.0667 32.5019 54.0491 32.4935 54.0403C32.4768 54.0051 32.46 53.9699 32.4517 53.9347C32.3847 53.794 32.3094 53.662 32.2258 53.53L32.2425 53.4948C32.2425 53.4948 32.209 53.4772 32.1923 53.4597C31.8242 52.8087 31.3808 52.2456 30.8872 51.797C30.8286 51.7266 30.7701 51.6738 30.7115 51.621C30.0088 50.9876 29.2307 50.5302 28.4527 50.1959C28.2937 50.1255 28.1431 50.0639 27.9926 50.0111C27.4906 49.8264 27.0054 49.6856 26.5369 49.5801C25.3907 49.3249 24.4035 49.2809 23.8597 49.2809H23.6924V38.126C23.6924 38.126 23.8514 38.1172 24.1191 38.1172C24.437 38.1172 24.9138 38.1348 25.4827 38.1964C26.06 38.2667 26.7376 38.3811 27.4404 38.5922C27.5575 38.6274 27.6746 38.6626 27.7918 38.7066C28.3523 38.8913 28.9296 39.1377 29.4817 39.4544C29.8164 39.6479 30.1426 39.8678 30.4605 40.123C30.4689 40.1318 30.4856 40.1406 30.494 40.1406C30.6279 40.2461 30.7534 40.3605 30.8705 40.4837C31.272 40.8619 31.6067 41.293 31.8828 41.7681C32.2425 42.3663 32.4935 43.0349 32.6441 43.7299C32.7277 44.1697 32.7779 44.6184 32.7779 45.0758V54.7089C32.7779 54.7089 32.7947 54.7265 32.7947 54.7353H32.803Z" fill="white"/>
    <path d="M24.6955 23.3483C24.6119 23.4539 24.5199 23.5858 24.4362 23.7442C24.2856 24.0169 24.135 24.3512 24.043 24.7559C24.0179 24.8526 24.0012 24.9494 23.9928 25.0374L23.5159 24.6679C23.449 24.6151 23.3821 24.5799 23.3068 24.5535C23.2984 24.5447 23.2817 24.5447 23.2566 24.5359H23.2482C22.8801 24.2456 22.4785 23.9025 22.0853 23.489C21.3993 22.8117 20.7217 21.9495 20.2197 20.8938C19.9687 20.366 19.7512 19.7942 19.609 19.1696C19.5755 19.02 19.5504 18.8705 19.5337 18.7297C19.4668 18.3602 19.4249 17.9995 19.4082 17.6476C19.4082 17.6389 19.45 17.5069 19.5755 17.4541H19.5839C19.5839 17.4541 19.6341 17.4453 19.6592 17.4453C19.7345 17.4453 19.8014 17.4805 19.8516 17.5333C19.9436 17.6213 20.0608 17.7356 20.1862 17.8676C20.4707 18.1579 20.889 18.6066 21.4997 19.3103C21.8427 19.7238 22.2443 20.2077 22.7212 20.8059C22.9554 21.0962 23.2148 21.4129 23.4992 21.7736C23.8589 22.2398 24.2605 22.7677 24.6955 23.3483Z" fill="white"/>
    <path d="M33.2115 25.0625C32.9438 25.388 32.6761 25.7223 32.3916 26.0654C32.3749 26.083 32.3582 26.1094 32.3331 26.127L31.9566 26.5756C31.5969 27.0067 31.2371 27.4202 30.869 27.8248C30.6515 27.6929 30.4172 27.5785 30.1746 27.4906C30.0324 27.4378 29.932 27.385 29.8567 27.3234C29.7229 27.2178 29.6308 27.1299 29.5555 27.0331C29.4802 26.9451 29.4217 26.8571 29.3799 26.778C29.3548 26.734 29.338 26.6988 29.3213 26.6636C29.7229 26.5404 30.0408 26.4085 30.2583 26.3205C30.4842 26.2149 30.6766 26.1182 30.8523 26.0126C31.3793 25.7223 31.7642 25.4496 32.4418 25.2384C32.7765 25.1329 33.0442 25.0801 33.2115 25.0625Z" fill="white"/>
    <path d="M26.4599 28.7852C26.4599 28.9435 26.4432 29.1195 26.4014 29.2954V29.1898L26.4181 29.0755C26.4181 29.0755 26.4181 28.9963 26.4265 28.9699C26.4348 28.9083 26.4515 28.8467 26.4599 28.7852Z" fill="white"/>
    <path d="M32.3997 33.2455C32.3663 33.3774 32.2743 33.4918 32.1571 33.5622C32.0818 33.6062 31.9982 33.6326 31.856 33.6414H31.8476C31.8476 33.6414 31.7472 33.6502 31.6886 33.6502H31.5966C31.2201 33.6414 30.9022 33.5798 30.6094 33.5182C30.5676 33.5094 30.509 33.5006 30.4588 33.483C30.4421 33.4742 30.417 33.4742 30.4003 33.4654C29.8565 33.3335 29.3378 33.0871 28.8944 32.7264C28.8023 32.6561 28.7103 32.5857 28.6183 32.5065C28.5263 32.4185 28.4259 32.3306 28.3255 32.225C28.2669 32.0315 28.2 31.8467 28.1247 31.662C28.0912 31.5916 28.0661 31.5124 28.0243 31.442C27.7901 30.9054 27.4805 30.3952 27.1124 29.9377C27.104 29.9201 27.0873 29.9113 27.0789 29.8937C27.0622 29.8761 27.0538 29.8585 27.0371 29.8497C27.1877 29.4187 27.2295 28.9788 27.2295 28.6269C27.2295 28.5037 27.2212 28.3894 27.2128 28.2926C27.4303 27.8264 27.6311 27.3601 27.8486 26.8938C27.9072 26.7795 27.9574 26.6651 28.0159 26.542C28.0661 26.4452 28.0996 26.322 28.0996 26.2077V26.1901C28.0996 26.1109 28.0912 25.9613 28.0243 25.7942V25.7766C27.9992 25.6974 27.9574 25.6182 27.8988 25.5391H27.949C28.0661 25.5655 28.1582 25.6534 28.1749 25.759C28.1749 25.7766 28.1749 25.7942 28.1749 25.803H28.0912C28.0912 25.803 28.1414 25.8118 28.1749 25.8118V25.8294C28.1749 25.8294 28.1749 25.8558 28.1833 25.8646C28.1833 25.8998 28.1916 25.9525 28.2 26.0053C28.2084 26.0669 28.2251 26.1285 28.2418 26.1989C28.2418 26.1989 28.2418 26.1989 28.2502 26.1989C28.2669 26.2428 28.2837 26.2692 28.3004 26.322C28.3171 26.366 28.3338 26.4012 28.3589 26.4452C28.3589 26.454 28.3673 26.4716 28.3757 26.4804C28.4426 26.5859 28.4928 26.7091 28.543 26.8323C28.543 26.8411 28.5514 26.8411 28.5514 26.8499C28.6434 27.0522 28.7605 27.2897 28.9613 27.5272C29.0952 27.7032 29.2457 27.8352 29.3796 27.9407C29.5386 28.0727 29.7226 28.1607 29.9067 28.231C29.9652 28.2486 30.0322 28.2838 30.1074 28.3102C30.1744 28.3454 30.2497 28.3806 30.325 28.4246C30.4086 28.4686 30.4923 28.5125 30.5759 28.5741C30.6596 28.6269 30.7433 28.6885 30.8353 28.7589C30.8939 28.7941 30.9441 28.838 31.0026 28.8908C31.1616 29.0316 31.3289 29.1987 31.4795 29.4011V29.4187C31.6803 29.6826 31.8309 29.9729 31.9396 30.272C32.0065 30.4567 32.0567 30.6503 32.0818 30.8438C32.1069 30.9494 32.1237 31.0638 32.132 31.1781C32.132 31.3101 32.1488 31.4332 32.1571 31.5652C32.1822 31.8731 32.2073 32.181 32.2241 32.4889C32.2241 32.4977 32.2241 32.5065 32.2324 32.5153C32.2324 32.5681 32.2492 32.6121 32.2743 32.6561L32.3412 32.7792C32.4248 32.9288 32.4332 33.0959 32.383 33.2367L32.3997 33.2455Z" fill="white"/>
    <path d="M28.184 25.8047C28.184 25.8047 28.1249 25.8135 28.0996 25.8047H28.184Z" fill="white"/>
    <path d="M27.34 26.1809C27.2229 26.4537 27.0974 26.7088 26.9803 26.9639C26.8213 27.2982 26.6708 27.6325 26.5202 27.9668C26.47 28.0811 26.4449 28.2043 26.4532 28.3187C26.4532 28.4242 26.47 28.5562 26.47 28.7058C26.47 28.7321 26.47 28.7585 26.4616 28.7849C26.4616 28.8465 26.4365 28.9081 26.4281 28.9697C26.4198 28.9961 26.4198 29.0488 26.4198 29.0752L26.403 29.1896V29.3128C26.3779 29.4183 26.3445 29.5239 26.3027 29.6383C26.2106 29.6559 26.127 29.6999 26.0517 29.7614C25.9931 29.8054 25.9345 29.8582 25.8927 29.9198L25.6334 30.2717C25.6334 30.2717 25.5999 30.3245 25.5915 30.3508C25.5413 30.4212 25.5079 30.5004 25.4995 30.5884V30.606C25.3489 30.6851 25.1816 30.7291 25.0059 30.7291C24.9641 30.7291 24.9055 30.7203 24.8553 30.7115C24.7466 30.6939 24.6545 30.6588 24.5709 30.6236C24.4789 30.5796 24.4036 30.5268 24.345 30.474C24.345 30.2805 24.2781 30.0957 24.1442 29.9286C24.0187 29.779 23.8514 29.5591 23.7259 29.2424C23.6924 29.1544 23.6757 29.0752 23.6506 29.0049C23.6172 28.8553 23.5921 28.7234 23.5837 28.6266C23.567 28.4594 23.6088 28.3099 23.7008 28.1691C23.8598 27.9404 24.0438 27.7644 24.253 27.6501C24.3032 27.6237 24.3366 27.6061 24.3785 27.5885C24.5291 27.5181 24.6629 27.4126 24.7717 27.2894C24.8051 27.2366 24.847 27.1838 24.8721 27.131L24.9223 27.0519C25.0477 26.9639 25.1816 26.8759 25.3155 26.7967C25.876 26.4537 26.403 26.1809 26.8715 25.961C26.9217 25.9346 26.9719 25.9082 27.0221 25.8906H27.0556C27.0556 25.8906 27.1895 25.8994 27.2647 25.9698C27.2898 25.9962 27.3066 26.0314 27.3149 26.0578C27.3233 26.0842 27.3317 26.1106 27.3317 26.1282C27.34 26.1545 27.34 26.1721 27.34 26.1809Z" fill="white"/>
    <path d="M26.4619 28.7852C26.4619 28.9435 26.4451 29.1195 26.4033 29.2954V29.1898L26.42 29.0755C26.42 29.0755 26.42 28.9963 26.4284 28.9699C26.4368 28.9083 26.4535 28.8467 26.4619 28.7852Z" fill="white"/>
    <path d="M24.2942 26.4639V26.5255H24.2858C24.2774 26.6398 24.2356 26.7366 24.1603 26.7982C24.1268 26.8246 24.0934 26.8422 24.0599 26.8598C24.0181 26.8862 23.9763 26.9038 23.9261 26.9301C23.7671 27.0181 23.6249 27.1237 23.4994 27.2381C23.3237 27.3876 23.1815 27.5548 23.0727 27.7219C22.8803 28.0122 22.7966 28.3553 22.8301 28.7072C22.8385 28.8216 22.8636 28.9447 22.897 29.0855C22.9221 29.2262 22.964 29.3846 23.0225 29.5429C23.1815 29.9564 23.399 30.2467 23.558 30.4403C23.5998 30.493 23.6081 30.5458 23.5663 30.581C23.5412 30.6074 23.5245 30.6426 23.491 30.6778C23.4241 30.7658 23.3488 30.8713 23.2568 30.9769C22.7883 31.5311 22.0604 32.2437 21.0063 32.8067C19.8183 33.4313 18.7307 33.6073 18.0615 33.6425H18.0531C17.9862 33.6425 17.9443 33.5897 17.9443 33.5193C17.9694 33.2114 18.0113 32.8155 18.0949 32.3581C18.2371 31.5487 18.5216 30.5458 19.0487 29.4902C19.1407 29.3054 19.2411 29.1119 19.3498 28.9271C19.6677 28.3817 20.0107 27.9066 20.3705 27.4844C21.2657 26.4111 22.211 25.7513 22.8134 25.3906L23.1313 25.4082H23.2066L23.7922 25.8657C23.834 25.9009 23.8842 25.9273 23.9261 25.9537C23.9428 25.9624 23.9512 25.9712 23.9679 25.9712C23.9679 25.9712 24.0599 26.024 24.1101 26.0416C24.1185 26.0416 24.1352 26.0592 24.1436 26.0592C24.2189 26.0768 24.2774 26.1472 24.2858 26.2352C24.2942 26.3055 24.2942 26.3847 24.2942 26.4639Z" fill="white"/>
    <path d="M23.2066 25.4156H23.1313L22.8135 25.3893C22.8637 25.3543 22.9138 25.328 22.9557 25.3017H22.9724C22.9724 25.3017 22.9891 25.293 23.0058 25.293C23.0226 25.293 23.0477 25.3017 23.0644 25.3105L23.2066 25.4156Z" fill="white"/>
    <path d="M27.6568 33.3846C27.6568 33.3846 27.6317 33.3934 27.6149 33.3934C27.5313 33.3934 27.4226 33.2879 27.3975 33.2527C27.364 33.2175 27.3389 33.1735 27.3055 33.1295C27.1215 32.8832 26.9375 32.5841 26.7618 32.2322C26.7033 32.109 26.6447 31.9947 26.5946 31.8715C26.4524 31.5548 26.352 31.2557 26.2851 30.9918C26.26 30.9214 26.2433 30.8598 26.2266 30.7982C26.2349 30.7806 26.2349 30.7718 26.2349 30.7542L26.3018 30.6575L26.4942 30.4023H26.5026C26.5527 30.4639 26.5946 30.5255 26.6447 30.5871C26.7117 30.6751 26.7786 30.7718 26.8455 30.8774C26.9458 31.0269 27.0378 31.1853 27.1298 31.3612C27.1298 31.3612 27.1298 31.37 27.1298 31.3788C27.1884 31.4668 27.2302 31.5636 27.2804 31.6604C27.3306 31.7571 27.3808 31.8627 27.4226 31.9771C27.5397 32.2586 27.6233 32.5225 27.6902 32.7688C27.6986 32.7952 27.7069 32.8216 27.7069 32.848C27.7153 32.8744 27.7153 32.9008 27.7153 32.9272C27.7488 33.1735 27.7237 33.3406 27.6484 33.3846H27.6568Z" fill="white"/>
    <path d="M88.5476 24.8192H90.7067L92.2266 26.8008L92.9439 27.6815L95.3658 30.842H93.1214L91.5021 28.7326L90.9482 27.9656L88.5476 24.8192ZM95.8345 22.2624C95.8345 23.8155 95.5504 25.1507 94.9822 26.2681C94.4141 27.3808 93.6352 28.2378 92.6456 28.8391C91.6607 29.4357 90.541 29.734 89.2862 29.734C88.0268 29.734 86.9022 29.4357 85.9126 28.8391C84.9278 28.2378 84.1513 27.3784 83.5831 26.261C83.0149 25.1436 82.7308 23.8107 82.7308 22.2624C82.7308 20.7094 83.0149 19.3765 83.5831 18.2638C84.1513 17.1464 84.9278 16.2894 85.9126 15.6928C86.9022 15.0915 88.0268 14.7908 89.2862 14.7908C90.541 14.7908 91.6607 15.0915 92.6456 15.6928C93.6352 16.2894 94.4141 17.1464 94.9822 18.2638C95.5504 19.3765 95.8345 20.7094 95.8345 22.2624ZM93.6612 22.2624C93.6612 21.0787 93.4695 20.082 93.0859 19.2724C92.7071 18.458 92.1863 17.8424 91.5234 17.4258C90.8653 17.0044 90.1196 16.7937 89.2862 16.7937C88.4482 16.7937 87.7 17.0044 87.0419 17.4258C86.3838 17.8424 85.8629 18.458 85.4794 19.2724C85.1006 20.082 84.9112 21.0787 84.9112 22.2624C84.9112 23.4461 85.1006 24.4452 85.4794 25.2596C85.8629 26.0692 86.3838 26.6848 87.0419 27.1062C87.7 27.5228 88.4482 27.7312 89.2862 27.7312C90.1196 27.7312 90.8653 27.5228 91.5234 27.1062C92.1863 26.6848 92.7071 26.0692 93.0859 25.2596C93.4695 24.4452 93.6612 23.4461 93.6612 22.2624ZM99.0767 29.5352H96.7472L101.982 14.9897H104.517L109.751 29.5352H107.422L103.31 17.6317H103.196L99.0767 29.5352ZM99.4673 23.8391H107.024V25.6857H99.4673V23.8391ZM111.852 29.5352V14.9897H117.037C118.163 14.9897 119.099 15.1838 119.842 15.5721C120.59 15.9603 121.149 16.4978 121.518 17.1843C121.887 17.8661 122.072 18.6545 122.072 19.5494C122.072 20.4395 121.885 21.2231 121.511 21.9002C121.142 22.5726 120.583 23.0958 119.835 23.4698C119.092 23.8439 118.156 24.0309 117.029 24.0309H113.102V22.1417H116.831C117.541 22.1417 118.118 22.0399 118.564 21.8363C119.013 21.6327 119.342 21.3368 119.551 20.9485C119.759 20.5603 119.863 20.0939 119.863 19.5494C119.863 19.0001 119.757 18.5243 119.544 18.1218C119.335 17.7193 119.006 17.4116 118.556 17.1985C118.111 16.9807 117.527 16.8718 116.802 16.8718H114.047V29.5352H111.852ZM119.032 22.9727L122.626 29.5352H120.126L116.603 22.9727H119.032ZM125.971 29.5352H123.642L128.876 14.9897H131.412L136.646 29.5352H134.316L130.204 17.6317H130.091L125.971 29.5352ZM126.362 23.8391H133.919V25.6857H126.362V23.8391ZM138.746 29.5352V14.9897H144.073C145.105 14.9897 145.96 15.1602 146.637 15.5011C147.314 15.8372 147.821 16.2942 148.157 16.8718C148.493 17.4447 148.661 18.091 148.661 18.8107C148.661 19.4168 148.55 19.9281 148.327 20.3448C148.105 20.7567 147.807 21.0882 147.433 21.3391C147.063 21.5853 146.656 21.7653 146.211 21.8789V22.021C146.694 22.0446 147.165 22.2009 147.624 22.4897C148.088 22.7738 148.472 23.1786 148.775 23.7042C149.078 24.2298 149.229 24.869 149.229 25.6218C149.229 26.3652 149.054 27.0328 148.704 27.6246C148.358 28.2118 147.823 28.6781 147.099 29.0238C146.374 29.3647 145.449 29.5352 144.322 29.5352H138.746ZM140.941 27.6531H144.109C145.16 27.6531 145.913 27.4495 146.367 27.0423C146.822 26.6351 147.049 26.1261 147.049 25.5153C147.049 25.056 146.933 24.6346 146.701 24.2511C146.469 23.8675 146.138 23.5621 145.707 23.3349C145.281 23.1076 144.774 22.994 144.187 22.994H140.941V27.6531ZM140.941 21.2823H143.881C144.374 21.2823 144.817 21.1876 145.21 20.9982C145.607 20.8088 145.922 20.5437 146.154 20.2028C146.391 19.8571 146.509 19.4499 146.509 18.9812C146.509 18.3799 146.299 17.8756 145.877 17.4684C145.456 17.0612 144.809 16.8576 143.938 16.8576H140.941V21.2823ZM153.061 29.5352H150.732L155.966 14.9897H158.501L163.736 29.5352H161.406L157.294 17.6317H157.18L153.061 29.5352ZM153.452 23.8391H161.009V25.6857H153.452V23.8391ZM174.996 19.5849C174.859 19.154 174.674 18.7681 174.442 18.4272C174.215 18.0816 173.943 17.788 173.626 17.5465C173.308 17.3003 172.946 17.1133 172.539 16.9854C172.137 16.8576 171.694 16.7937 171.211 16.7937C170.392 16.7937 169.653 17.0044 168.995 17.4258C168.337 17.8472 167.816 18.4651 167.433 19.2795C167.054 20.0891 166.864 21.0811 166.864 22.2553C166.864 23.4343 167.056 24.431 167.44 25.2454C167.823 26.0598 168.349 26.6777 169.016 27.0991C169.684 27.5205 170.444 27.7312 171.296 27.7312C172.087 27.7312 172.776 27.5702 173.363 27.2482C173.955 26.9263 174.412 26.4717 174.734 25.8846C175.06 25.2927 175.224 24.5967 175.224 23.7965L175.792 23.9031H171.63V22.092H177.347V23.7468C177.347 24.9684 177.087 26.029 176.566 26.9286C176.05 27.8235 175.335 28.5148 174.421 29.0025C173.512 29.4902 172.47 29.734 171.296 29.734C169.98 29.734 168.825 29.431 167.83 28.8249C166.841 28.2189 166.069 27.3595 165.515 26.2468C164.961 25.1294 164.684 23.8036 164.684 22.2695C164.684 21.1095 164.845 20.0678 165.167 19.1445C165.489 18.2212 165.941 17.4376 166.523 16.7937C167.111 16.145 167.799 15.6502 168.59 15.3093C169.386 14.9637 170.254 14.7908 171.197 14.7908C171.983 14.7908 172.714 14.9068 173.391 15.1388C174.073 15.3709 174.679 15.6999 175.21 16.1261C175.745 16.5522 176.187 17.0588 176.538 17.646C176.888 18.2283 177.125 18.8746 177.248 19.5849H174.996ZM172.567 11.2965H174.315C174.315 12.0967 174.031 12.7478 173.462 13.2496C172.899 13.7468 172.137 13.9954 171.175 13.9954C170.219 13.9954 169.459 13.7468 168.896 13.2496C168.332 12.7478 168.05 12.0967 168.05 11.2965H169.79C169.79 11.6516 169.895 11.9665 170.103 12.2411C170.311 12.511 170.669 12.646 171.175 12.646C171.673 12.646 172.028 12.511 172.241 12.2411C172.459 11.9712 172.567 11.6564 172.567 11.2965Z" fill="white"/>
    <path d="M89.905 44.3533H91.138V51.0948C91.138 51.7908 90.9739 52.4123 90.6458 52.9592C90.321 53.5027 89.862 53.9319 89.2687 54.2468C88.6754 54.5584 87.9794 54.7141 87.1806 54.7141C86.3818 54.7141 85.6858 54.5584 85.0925 54.2468C84.4993 53.9319 84.0386 53.5027 83.7104 52.9592C83.3856 52.4123 83.2232 51.7908 83.2232 51.0948V44.3533H84.4562V50.9954C84.4562 51.4925 84.5656 51.935 84.7843 52.3228C85.0031 52.7073 85.3146 53.0105 85.719 53.2326C86.1266 53.4513 86.6139 53.5607 87.1806 53.5607C87.7474 53.5607 88.2346 53.4513 88.6423 53.2326C89.0499 53.0105 89.3615 52.7073 89.5769 52.3228C89.7957 51.935 89.905 51.4925 89.905 50.9954V44.3533ZM101.954 44.3533V54.5352H100.761L95.2126 46.5408H95.1131V54.5352H93.8802V44.3533H95.0734L100.642 52.3675H100.741V44.3533H101.954ZM105.934 44.3533V54.5352H104.701V44.3533H105.934ZM105.318 43.0806C105.089 43.0806 104.892 43.0027 104.726 42.8469C104.564 42.6912 104.482 42.5039 104.482 42.2852C104.482 42.0664 104.564 41.8791 104.726 41.7234C104.892 41.5676 105.089 41.4897 105.318 41.4897C105.546 41.4897 105.742 41.5676 105.904 41.7234C106.07 41.8791 106.153 42.0664 106.153 42.2852C106.153 42.5039 106.07 42.6912 105.904 42.8469C105.742 43.0027 105.546 43.0806 105.318 43.0806ZM109.104 44.3533L112.127 52.9244H112.246L115.269 44.3533H116.561L112.823 54.5352H111.55L107.811 44.3533H109.104ZM118.427 54.5352V44.3533H124.572V45.4471H119.66V48.8874H124.254V49.9812H119.66V53.4414H124.652V54.5352H118.427ZM127.074 54.5352V44.3533H130.515C131.31 44.3533 131.963 44.4892 132.474 44.761C132.984 45.0295 133.362 45.399 133.607 45.8697C133.852 46.3403 133.975 46.8756 133.975 47.4755C133.975 48.0754 133.852 48.6074 133.607 49.0714C133.362 49.5354 132.986 49.9 132.479 50.1651C131.971 50.427 131.323 50.5579 130.535 50.5579H127.751V49.4442H130.495C131.038 49.4442 131.476 49.3647 131.807 49.2056C132.142 49.0465 132.384 48.8211 132.533 48.5295C132.686 48.2345 132.762 47.8832 132.762 47.4755C132.762 47.0678 132.686 46.7115 132.533 46.4066C132.381 46.1017 132.137 45.8664 131.802 45.7006C131.468 45.5316 131.025 45.4471 130.475 45.4471H128.307V54.5352H127.074ZM131.867 49.9613L134.373 54.5352H132.941L130.475 49.9613H131.867ZM141.878 46.8988C141.818 46.395 141.576 46.0039 141.152 45.7255C140.728 45.4471 140.207 45.3079 139.591 45.3079C139.14 45.3079 138.746 45.3808 138.407 45.5266C138.073 45.6725 137.811 45.873 137.622 46.1282C137.436 46.3834 137.344 46.6734 137.344 46.9982C137.344 47.27 137.408 47.5037 137.537 47.6992C137.67 47.8915 137.839 48.0522 138.045 48.1815C138.25 48.3074 138.465 48.4118 138.691 48.4947C138.916 48.5742 139.123 48.6388 139.312 48.6886L140.346 48.967C140.612 49.0366 140.907 49.1327 141.231 49.2553C141.559 49.378 141.873 49.5453 142.171 49.7575C142.473 49.9663 142.721 50.2347 142.917 50.5629C143.112 50.891 143.21 51.2937 143.21 51.771C143.21 52.3211 143.066 52.8183 142.778 53.2624C142.492 53.7066 142.075 54.0595 141.525 54.3214C140.978 54.5832 140.313 54.7141 139.531 54.7141C138.802 54.7141 138.171 54.5965 137.637 54.3612C137.107 54.1258 136.689 53.7977 136.384 53.3768C136.082 52.9558 135.912 52.467 135.872 51.9102H137.145C137.178 52.2946 137.307 52.6128 137.532 52.8647C137.761 53.1133 138.05 53.2989 138.398 53.4215C138.749 53.5408 139.127 53.6005 139.531 53.6005C140.002 53.6005 140.424 53.5243 140.799 53.3718C141.173 53.216 141.47 53.0006 141.689 52.7255C141.907 52.4471 142.017 52.1223 142.017 51.7511C142.017 51.413 141.922 51.1379 141.733 50.9258C141.545 50.7137 141.296 50.5413 140.988 50.4087C140.68 50.2762 140.346 50.1602 139.988 50.0607L138.736 49.7028C137.94 49.4741 137.31 49.1476 136.846 48.7234C136.382 48.2991 136.15 47.744 136.15 47.0579C136.15 46.4878 136.305 45.9906 136.613 45.5664C136.924 45.1388 137.342 44.8074 137.866 44.5721C138.393 44.3335 138.981 44.2141 139.631 44.2141C140.287 44.2141 140.87 44.3318 141.381 44.5671C141.891 44.7991 142.295 45.1173 142.594 45.5217C142.895 45.926 143.054 46.3851 143.071 46.8988H141.878ZM146.75 44.3533V54.5352H145.517V44.3533H146.75ZM146.134 43.0806C145.905 43.0806 145.708 43.0027 145.542 42.8469C145.38 42.6912 145.298 42.5039 145.298 42.2852C145.298 42.0664 145.38 41.8791 145.542 41.7234C145.708 41.5676 145.905 41.4897 146.134 41.4897C146.362 41.4897 146.558 41.5676 146.72 41.7234C146.886 41.8791 146.969 42.0664 146.969 42.2852C146.969 42.5039 146.886 42.6912 146.72 42.8469C146.558 43.0027 146.362 43.0806 146.134 43.0806ZM148.945 45.4471V44.3533H156.582V45.4471H153.38V54.5352H152.147V45.4471H148.945ZM158.765 54.5352V44.3533H164.91V45.4471H159.998V48.8874H164.591V49.9812H159.998V53.4414H164.989V54.5352H158.765ZM166.855 45.4471V44.3533H174.491V45.4471H171.29V54.5352H170.057V45.4471H166.855ZM177.907 44.3533V54.5352H176.674V44.3533H177.907ZM177.291 43.0806C177.062 43.0806 176.865 43.0027 176.699 42.8469C176.537 42.6912 176.456 42.5039 176.456 42.2852C176.456 42.0664 176.537 41.8791 176.699 41.7234C176.865 41.5676 177.062 41.4897 177.291 41.4897C177.519 41.4897 177.715 41.5676 177.877 41.7234C178.043 41.8791 178.126 42.0664 178.126 42.2852C178.126 42.5039 178.043 42.6912 177.877 42.8469C177.715 43.0027 177.519 43.0806 177.291 43.0806Z" fill="white"/>
</svg>
