<svg width="120" height="100" viewBox="0 0 120 100" fill="none" xmlns="http://www.w3.org/2000/svg">
    <g clip-path="url(#clip0_6450_1950)">
        <path d="M80.0704 25.2015V36.9807C80.0704 42.3217 77.9745 47.3564 74.1737 51.1573C70.3776 54.9581 65.3381 57.0539 59.9972 57.0539C54.6563 57.0539 49.6215 54.9581 45.8207 51.1573C42.0199 47.3564 39.9287 42.3217 39.9287 36.9807V25.2015L39.9334 25.1968L43.8273 22.9844V36.9807C43.8273 41.2784 45.5134 45.3336 48.5783 48.3985C51.6432 51.4634 55.6983 53.1542 59.996 53.1542C64.2937 53.1542 68.3536 51.4634 71.4197 48.3985C74.4846 45.3336 76.1707 41.2784 76.1707 36.9807V22.9844L80.0692 25.2015H80.0704Z" fill="white"/>
        <path d="M72.6346 17.027L67.3184 14.0009L60.0029 9.84337L39.9344 21.2564L39.9297 16.5572L60.0029 5.14062L80.0749 16.5513V21.2529L72.6346 17.027Z" fill="white"/>
        <path d="M80.0749 0H39.9297V4.14463H80.0749V0Z" fill="white"/>
        <path d="M13.0544 80.3046H8.86621L3.20502 73.758V80.3246H0V65.7266H3.20502V72.0872L8.88623 65.7266H12.9261L6.32056 72.756L13.0544 80.3046Z" fill="white"/>
        <path d="M24.9585 80.3273L24.0153 77.7122H18.1175L17.1743 80.3273H13.6455L19.3467 65.7305H22.6695L28.5874 80.3273H24.9608H24.9585ZM19.0017 75.216H23.111L21.0564 69.5148L19.0017 75.216Z" fill="white"/>
        <path d="M43.696 80.3273H39.7539L34.0527 74.5861V80.3273H30.8477V65.7305H37.837C39.5408 65.7305 40.876 66.1496 41.8427 66.9892C42.8094 67.8287 43.2921 68.9649 43.2921 70.4002C43.2921 71.8356 42.8565 72.907 41.9852 73.7324C41.1139 74.559 39.96 74.9711 38.5258 74.9711H38.3198L43.696 80.3285V80.3273ZM34.0527 68.5705V72.7375H37.6604C38.414 72.7375 38.9874 72.5526 39.3806 72.1817C39.7739 71.812 39.9706 71.3057 39.9706 70.6628C39.9706 69.9811 39.7657 69.4618 39.3559 69.105C38.9462 68.7483 38.3939 68.5693 37.6992 68.5693H34.0527V68.5705Z" fill="white"/>
        <path d="M56.0923 80.3273L55.1491 77.7122H49.2513L48.3081 80.3273H44.7793L50.4805 65.7305H53.8033L59.7212 80.3273H56.0946H56.0923ZM50.1355 75.216H54.2448L52.1902 69.5148L50.1355 75.216Z" fill="white"/>
        <path d="M71.6446 72.756C72.3982 73.0374 72.9704 73.4836 73.3601 74.0924C73.7499 74.7011 73.9453 75.4158 73.9453 76.2353C73.9453 77.388 73.5391 78.3583 72.7267 79.1448C71.9142 79.9313 70.7015 80.3246 69.0895 80.3246H61.9824V65.7266H68.854C70.3153 65.7266 71.4586 66.0857 72.284 66.8028C73.1093 67.5198 73.5226 68.4795 73.5226 69.6781C73.5226 70.3598 73.3601 70.9698 73.0363 71.5067C72.7114 72.0448 72.2486 72.4604 71.6458 72.7548M65.1674 68.2428V71.7327H68.2053C68.8599 71.7327 69.3603 71.5703 69.7042 71.2465C70.048 70.9215 70.2211 70.4917 70.2211 69.9536C70.2211 69.4155 70.0574 68.9975 69.7301 68.6949C69.4027 68.3935 68.9435 68.2428 68.3536 68.2428H65.1686H65.1674ZM68.4113 77.8072C69.106 77.8072 69.6382 77.6365 70.0091 77.2962C70.3788 76.9559 70.5649 76.4944 70.5649 75.9103C70.5649 75.2945 70.3765 74.8224 69.9997 74.4951C69.6229 74.1677 69.1143 74.0029 68.4714 74.0029H65.1686V77.8072H68.4125H68.4113Z" fill="white"/>
        <path d="M86.6159 80.3273L85.6727 77.7122H79.7749L78.8306 80.3273H75.3018L81.003 65.7305H84.3257L90.2436 80.3273H86.6171H86.6159ZM80.6592 75.216H84.7685L82.7138 69.5148L80.6592 75.216Z" fill="white"/>
        <path d="M105.559 80.3046H101.371L95.7099 73.758V80.3246H92.5049V65.7266H95.7099V72.0872L101.391 65.7266H105.431L98.8254 72.756L105.559 80.3046Z" fill="white"/>
        <path d="M107.477 80.3246V65.7266H110.682V71.6056H116.806V65.7266H120V80.3246H116.806V74.2007H110.682V80.3246H107.477Z" fill="white"/>
        <path d="M0 94.6667V86.0312H2.98837V94.5383C2.98837 95.3755 3.22622 96.0208 3.70426 96.4729C4.18113 96.925 4.8252 97.1511 5.63882 97.1511C6.45244 97.1511 7.13771 96.9156 7.58632 96.4458C8.03611 95.976 8.25983 95.3402 8.25983 94.5395V86.0324H11.267V94.6679C11.267 96.2574 10.769 97.5149 9.77285 98.4404C8.77673 99.3659 7.39911 99.8286 5.63882 99.8286C3.87853 99.8286 2.5221 99.3694 1.51303 98.4487C0.505127 97.5291 0 96.268 0 94.6679" fill="white"/>
        <path d="M23.204 86.0312H26.2112V99.6449H23.1675L17.3097 90.9542V99.6449H14.3213V86.0312H17.3638L23.204 94.7397V86.0312Z" fill="white"/>
        <path d="M32.3995 86.0312H29.4111V99.6449H32.3995V86.0312Z" fill="white"/>
        <path d="M34.0693 86.0312H37.4239L41.3848 95.923L45.3905 86.0312H48.7274L42.7966 99.6449H40.019L34.0693 86.0312Z" fill="white"/>
        <path d="M50.3975 99.6449V86.0312H60.1232V88.644H53.3858V91.6324H59.5651V94.0897H53.3858V97.0322H60.1232V99.6449H50.3975Z" fill="white"/>
        <path d="M74.8392 99.6449H71.1632L65.8458 94.2911V99.6449H62.8574V86.0312H69.3758C70.9642 86.0312 72.2099 86.4222 73.1118 87.2052C74.0138 87.987 74.4636 89.0479 74.4636 90.3866C74.4636 91.7254 74.0573 92.7239 73.2437 93.4939C72.4301 94.264 71.3551 94.649 70.0163 94.649H69.8244L74.8392 99.6449ZM65.8458 88.6805V92.5673H69.2109C69.9139 92.5673 70.4484 92.3954 70.8146 92.0492C71.1808 91.7042 71.3645 91.232 71.3645 90.6327C71.3645 89.9969 71.1738 89.513 70.7923 89.1798C70.4108 88.8465 69.895 88.6805 69.2474 88.6805H65.8458Z" fill="white"/>
        <path d="M81.7974 99.8264C80.1843 99.8264 78.8797 99.446 77.8836 98.6854C76.8874 97.9248 76.3399 96.9051 76.2422 95.6287H79.3036C79.3518 96.1668 79.6062 96.5884 80.0642 96.8933C80.5222 97.1983 81.1192 97.3514 81.8516 97.3514C82.5839 97.3514 83.0997 97.2112 83.4882 96.9298C83.8768 96.6484 84.0699 96.2575 84.0699 95.7571C84.0699 95.5428 84.0251 95.3521 83.9368 95.1837C83.8485 95.0165 83.7543 94.8881 83.6578 94.7986C83.56 94.7103 83.4199 94.6315 83.2362 94.5655C83.0526 94.4984 82.9136 94.4525 82.8194 94.4277C82.7241 94.403 82.5969 94.3759 82.4391 94.3453L80.2385 93.9791C77.6104 93.5152 76.2963 92.2436 76.2963 90.1665C76.2963 88.8643 76.785 87.8199 77.7635 87.031C78.7407 86.2421 80.03 85.8477 81.6314 85.8477C83.2327 85.8477 84.4561 86.2327 85.4134 87.0027C86.3694 87.7728 86.8604 88.7866 86.884 90.0465H83.8226C83.8097 89.5084 83.5918 89.0809 83.1668 88.763C82.7417 88.4451 82.1848 88.2862 81.4936 88.2862C80.8696 88.2862 80.3703 88.418 79.9947 88.6806C79.6191 88.9432 79.4307 89.307 79.4307 89.7721C79.4307 90.1995 79.5909 90.5198 79.9123 90.7306C80.2326 90.9413 80.6741 91.0956 81.2369 91.1933L83.4282 91.5512C84.7057 91.7644 85.6571 92.2236 86.2835 92.9265C86.9099 93.6294 87.2231 94.4913 87.2231 95.5122C87.2231 96.8015 86.725 97.8435 85.7289 98.6383C84.7328 99.4331 83.4223 99.8299 81.7962 99.8299" fill="white"/>
        <path d="M92.7442 86.0312H89.7559V99.6449H92.7442V86.0312Z" fill="white"/>
        <path d="M105.634 86.0312V88.6075H101.73V99.6449H98.7318V88.6075H94.8262V86.0312H105.634Z" fill="white"/>
        <path d="M106.516 86.0312H109.935L113.262 91.3663L116.599 86.0312H120L114.757 93.979V99.6449H111.776V93.979L106.516 86.0312Z" fill="white"/>
        <path d="M78.2886 24.4688H76.7461V27.8869H78.2886V24.4688Z" fill="white"/>
        <path d="M79.9741 33.0469H78.4316V35.609H79.9741V33.0469Z" fill="white"/>
        <path d="M48.9377 45.9527L51.1831 44.2383C51.74 43.8015 51.9626 43.5271 51.9626 43.1586C51.9626 42.79 51.6965 42.5416 51.2855 42.5416C50.8746 42.5416 50.5649 42.7818 50.094 43.3222L48.9707 42.3873C49.6136 41.5643 50.2564 41.1016 51.4139 41.1016C52.7173 41.1016 53.6251 41.8822 53.6251 43.0137V43.0314C53.6251 43.991 53.1283 44.4891 52.2369 45.132L51.2078 45.8526H53.6852V47.2067H48.9365V45.955L48.9377 45.9527Z" fill="white"/>
        <path d="M54.3555 44.2199V44.2023C54.3555 42.5044 55.4352 41.082 57.1413 41.082C58.8474 41.082 59.9107 42.4879 59.9107 44.1846V44.2023C59.9107 45.9002 58.8392 47.3225 57.1248 47.3225C55.4105 47.3225 54.3555 45.9166 54.3555 44.2199ZM58.2387 44.2199V44.2023C58.2387 43.2427 57.7842 42.548 57.1248 42.548C56.4655 42.548 56.0274 43.225 56.0274 44.1858V44.2035C56.0274 45.1725 56.4819 45.8495 57.1413 45.8495C57.8007 45.8495 58.2387 45.1725 58.2387 44.2211V44.2199Z" fill="white"/>
        <path d="M60.4592 45.9527L62.7046 44.2383C63.2615 43.8015 63.4841 43.5271 63.4841 43.1586C63.4841 42.79 63.2179 42.5416 62.807 42.5416C62.3961 42.5416 62.0864 42.7818 61.6154 43.3222L60.4922 42.3873C61.135 41.5643 61.7779 41.1016 62.9354 41.1016C64.2388 41.1016 65.1466 41.8822 65.1466 43.0137V43.0314C65.1466 43.991 64.6497 44.4891 63.7584 45.132L62.7293 45.8526H65.2067V47.2067H60.458V45.955L60.4592 45.9527Z" fill="white"/>
        <path d="M68.6979 46.0372H65.7837L65.5176 44.8632L68.6296 41.1602H70.3016V44.795H71.0646V46.0383H70.3016V47.204H68.6991V46.0383L68.6979 46.0372ZM68.6979 44.8032V43.0712L67.2579 44.8032H68.6979Z" fill="white"/>
    </g>
    <defs>
        <clipPath id="clip0_6450_1950">
            <rect width="120" height="99.8279" fill="white"/>
        </clipPath>
    </defs>
</svg>
