<svg width="117" height="122" viewBox="0 0 117 122" fill="none" xmlns="http://www.w3.org/2000/svg">
<path d="M58.0171 0C26.0268 0 0 27.3684 0 60.9923C0 94.6163 26.0268 122 58.0171 122C90.0074 122 116.02 94.6316 116.02 60.9923C116.02 27.353 90.0074 0 58.0171 0ZM58.0171 119.961C27.0912 119.961 1.93925 93.5124 1.93925 60.9923C1.93925 28.4723 27.0912 2.02388 58.0171 2.02388C88.943 2.02388 114.095 28.4876 114.095 60.9923C114.095 93.497 88.9284 119.961 58.0171 119.961Z" fill="white"/>
<path d="M58.0182 15.5312C34.1786 15.5312 14.7715 35.9233 14.7715 60.9918C14.7715 86.0603 34.1786 106.468 58.0182 106.468C81.8578 106.468 101.25 86.0757 101.25 60.9918C101.25 35.908 81.8578 15.5312 58.0182 15.5312ZM58.0182 105.502C34.6743 105.502 15.6901 85.539 15.6901 60.9918C15.6901 36.4447 34.6743 16.4972 58.0182 16.4972C81.3621 16.4972 100.332 36.46 100.332 60.9918C100.332 85.5237 81.3475 105.502 58.0182 105.502Z" fill="white"/>
<path d="M38.9887 19.9788L39.12 20.2241L38.8867 20.3621C38.0556 20.8527 37.3848 21.052 36.8599 20.9754C36.335 20.8987 35.8976 20.5307 35.5477 19.8714L35.4748 19.7335C34.804 19.9634 34.1042 19.8868 33.3897 19.5035C32.6752 19.1202 32.092 18.5069 31.64 17.6636C31.3921 17.1883 31.2172 16.713 31.1443 16.253C31.0568 15.7777 31.0713 15.3177 31.1443 14.8577C31.2317 14.3978 31.3921 13.9991 31.6108 13.6618C31.8296 13.3245 32.1212 13.0485 32.4711 12.8492C32.8356 12.6345 33.2147 12.5119 33.6084 12.4812C34.0021 12.4506 34.4104 12.5272 34.8332 12.6959C35.256 12.8645 35.6497 13.1099 35.9997 13.4318C36.3496 13.7538 36.6412 14.1525 36.8891 14.6124C37.3265 15.4404 37.5161 16.2837 37.4432 17.1423C37.3703 17.9856 37.0495 18.6602 36.4954 19.1355C36.4954 19.1662 36.5246 19.1968 36.5537 19.2582C36.5829 19.3195 36.5975 19.3501 36.6121 19.3808C36.9037 19.9328 37.2245 20.2548 37.589 20.3468C37.9535 20.4387 38.4055 20.3468 38.945 20.0094L38.9887 19.9788ZM32.6315 13.0639C32.0483 13.4012 31.7712 13.8918 31.8004 14.5204C31.815 15.1491 32.1649 16.0997 32.8356 17.3569C33.3168 18.2769 33.8125 18.8902 34.3229 19.1815C34.8186 19.4728 35.3435 19.4728 35.883 19.1508C36.4079 18.8442 36.685 18.3995 36.7141 17.8016C36.7433 17.2036 36.5246 16.483 36.0726 15.609C35.3435 14.2291 34.7311 13.3705 34.25 13.0332C33.7688 12.6959 33.2293 12.6959 32.6315 13.0332V13.0639Z" fill="white"/>
<path d="M40.5211 16.8364L40.4336 16.5758L41.221 16.2998L41.2793 8.66426L41.5272 8.57227L45.7993 14.6592L46.4846 14.4139L46.5721 14.6746L44.0642 15.5638L43.9767 15.3032L44.7933 15.0119L43.4227 13.0187L41.5126 13.6933V16.1618L42.3583 15.8705L42.4457 16.1311L40.5065 16.8211L40.5211 16.8364ZM41.5272 13.3713L43.2477 12.758L41.5272 10.2742V13.3713Z" fill="white"/>
<path d="M48.5985 13.9066L49.415 13.7839L48.5256 7.09898L47.7528 7.20631L47.7236 6.93033L50.6252 6.50102C51.398 6.39369 51.9958 6.43969 52.4478 6.65434C52.8998 6.869 53.1623 7.23697 53.2352 7.74294C53.3081 8.24891 53.1623 8.67822 52.8415 9.03087C52.5061 9.39884 52.025 9.62883 51.3834 9.76682V9.85882C51.9083 9.87415 52.3458 9.99681 52.6957 10.2268C53.0456 10.4568 53.2789 10.7634 53.381 11.1621C53.4393 11.3614 53.4976 11.668 53.556 12.0514C53.6143 12.45 53.6872 12.7106 53.7601 12.8486C53.8184 12.9713 53.8913 13.0633 53.9934 13.1093C54.0955 13.1553 54.1975 13.1706 54.3287 13.1553C54.4162 13.1553 54.4891 13.1246 54.5766 13.0786C54.6641 13.048 54.7516 12.9866 54.8391 12.9253L54.8682 13.2013C54.7078 13.3086 54.5475 13.3853 54.4017 13.4466C54.2413 13.5079 54.0955 13.5539 53.9496 13.5693C53.5122 13.6306 53.1623 13.5079 52.8998 13.186C52.6374 12.864 52.4332 12.312 52.302 11.5454C52.302 11.5301 52.302 11.4994 52.2874 11.4687C52.1854 10.9168 52.0396 10.5334 51.8063 10.3341C51.6459 10.1961 51.4563 10.0888 51.2376 10.0428C51.0189 9.98148 50.8002 9.98148 50.5669 10.0121L49.9545 10.1041L50.4211 13.6153L51.223 13.4926L51.2522 13.7686L48.6276 14.1519L48.5839 13.8759L48.5985 13.9066ZM49.9253 9.84348L50.5377 9.75149C51.2376 9.64416 51.7042 9.47551 51.9083 9.21486C52.127 8.9542 52.1854 8.55556 52.1125 7.98826C52.0396 7.46696 51.8937 7.11432 51.675 6.94566C51.4417 6.777 51.0335 6.731 50.4502 6.823L49.5462 6.96099L49.9253 9.84348Z" fill="white"/>
<path d="M56.7919 13.1866V12.9106L57.623 12.9566L60.3058 5.87305H60.5683L62.4638 13.2019L63.1928 13.2326V13.5086L60.5391 13.3859V13.1099L61.3994 13.1559L60.8016 10.7794L58.7894 10.6874L57.9437 12.9873L58.8186 13.0333V13.3093L56.7627 13.2173L56.7919 13.1866ZM58.9207 10.3348L60.7287 10.4268L59.9851 7.45229L58.9207 10.3348Z" fill="white"/>
<path d="M65.292 13.831L65.3503 13.5704L66.0939 13.7544L67.5229 7.17677L66.7792 6.99278L66.8376 6.7168L69.4329 7.34543C70.2203 7.52941 70.7744 7.82073 71.1389 8.20404C71.4888 8.58735 71.6055 9.04732 71.4888 9.58396C71.3868 10.0286 71.1681 10.3659 70.8181 10.5806C70.4682 10.7952 70.0162 10.9025 69.4767 10.8565V10.9025C70.0162 11.1479 70.439 11.4698 70.7015 11.8685C70.9639 12.2671 71.0514 12.6964 70.9639 13.1411C70.8327 13.7697 70.4973 14.199 69.9579 14.4137C69.4184 14.6437 68.7185 14.659 67.8728 14.4443L65.3212 13.831H65.292ZM67.8291 10.6419L67.1 13.9844L68.004 14.199C68.5727 14.337 68.9809 14.3063 69.2288 14.1377C69.4913 13.9537 69.6808 13.5551 69.8121 12.9264C69.9433 12.2978 69.9287 11.8378 69.7537 11.5158C69.5788 11.1939 69.1997 10.9792 68.631 10.8412L67.8291 10.6572V10.6419ZM67.8874 10.3659L68.6456 10.5499C69.1997 10.6879 69.6079 10.6726 69.8558 10.4886C70.1037 10.3199 70.3078 9.9366 70.439 9.32331C70.5557 8.78667 70.5265 8.40336 70.3661 8.14271C70.2057 7.89739 69.8266 7.69807 69.258 7.56008L68.5289 7.39142L67.8874 10.3659Z" fill="white"/>
<path d="M72.7129 15.778L72.815 15.5173L73.5732 15.8546L78.4286 10.1816L78.6764 10.289L78.0349 17.8325L78.7056 18.1392L78.6035 18.3998L76.1685 17.3112L76.2706 17.0506L77.058 17.4032L77.2913 14.9654L75.4395 14.1374L73.8939 15.9926L74.6959 16.3453L74.5938 16.6059L72.7129 15.7626V15.778ZM75.6436 13.8921L77.3204 14.6434L77.5975 11.5769L75.6436 13.8921Z" fill="white"/>
<path d="M84.8745 19.4412L87.1783 21.0511L87.0325 21.2811L86.5076 20.9131C86.0847 21.5724 85.5744 21.9557 84.9474 22.0477C84.335 22.1397 83.6643 21.925 82.9498 21.4191C82.177 20.8824 81.7542 20.1771 81.6376 19.2879C81.5355 18.3986 81.7834 17.4786 82.3812 16.5434C82.6582 16.0987 82.9936 15.7308 83.3581 15.4241C83.7372 15.1175 84.1455 14.9028 84.5975 14.7648C85.0349 14.6268 85.4577 14.5962 85.866 14.6575C86.2743 14.7188 86.6534 14.8721 87.0179 15.1175C87.2949 15.3014 87.5282 15.5314 87.7032 15.7921C87.8927 16.0527 88.0385 16.3287 88.126 16.6354L88.6509 16.528L88.7822 16.62L87.8052 18.1686L87.6157 18.0459C87.8052 17.5093 87.8344 17.0033 87.7178 16.528C87.6011 16.0681 87.3241 15.6848 86.9158 15.3934C86.3472 14.9948 85.7785 14.9488 85.2099 15.2554C84.6412 15.5621 84.0288 16.2367 83.3581 17.2947C82.7165 18.3219 82.3812 19.1192 82.3374 19.7325C82.2937 20.3305 82.5416 20.8211 83.0811 21.2044C83.5476 21.5264 83.9559 21.6337 84.3204 21.5264C84.685 21.4191 85.0495 21.0664 85.414 20.4838L85.5452 20.2691L84.7287 19.7018L84.8745 19.4719V19.4412ZM86.8721 12.2656L87.0908 12.4189C87.0033 12.6796 87.0033 12.9096 87.1054 13.1242C87.2074 13.3389 87.4116 13.5689 87.7323 13.7835C88.0385 13.9982 88.3156 14.1208 88.5489 14.1208C88.7822 14.1208 88.9863 14.0442 89.1758 13.8602L89.3946 14.0135C89.0884 14.3815 88.753 14.5962 88.4176 14.6575C88.0677 14.7188 87.7323 14.6268 87.3678 14.3815C87.0179 14.1362 86.7992 13.8295 86.7263 13.4769C86.6388 13.1089 86.6971 12.7103 86.8867 12.2656H86.8721Z" fill="white"/>
<path d="M18.2412 95.5817L21.726 92.2699L21.2011 91.6566L21.3907 91.4727L23.0675 93.4199L22.8779 93.5885L22.3676 92.9906L18.9265 96.2564C18.5474 96.6243 18.3433 96.977 18.2996 97.3603C18.2558 97.7436 18.4016 98.0963 18.7078 98.4489C19.0578 98.8629 19.4514 99.0622 19.8889 99.0469C20.3263 99.0315 20.7637 98.8015 21.2449 98.3416L24.4089 95.3364L23.8986 94.7385L24.0881 94.5545L25.2984 95.9651L25.1088 96.1337L24.5985 95.5511L21.4199 98.5716C20.8512 99.1082 20.3117 99.3689 19.8014 99.3382C19.2911 99.3229 18.7807 99.0162 18.2704 98.4336C17.8476 97.9276 17.6288 97.4216 17.6143 96.9003C17.6143 96.379 17.8184 95.9191 18.2412 95.5204V95.5817Z" fill="white"/>
<path d="M23.3309 103.57L23.4767 103.356L24.06 103.831L27.7781 98.7254L27.1948 98.2654L27.3406 98.0508L28.8716 99.2774L28.2301 105.027L30.9567 101.286L30.3589 100.811L30.5047 100.596L31.9628 101.761L31.8024 101.976L31.19 101.485L27.224 106.928L27.0199 106.76L27.9385 99.0167L24.2933 104.03L24.8911 104.506L24.7307 104.72L23.3018 103.57H23.3309Z" fill="white"/>
<path d="M31.2041 109.382L31.3207 109.152L32.0498 109.582L34.9951 103.955L34.2661 103.525L34.3827 103.295L36.7448 104.66L36.6282 104.89L35.8845 104.46L32.9392 110.088L33.6828 110.517L33.5662 110.747L31.2041 109.382ZM35.8408 102.406C35.8991 102.283 36.0012 102.207 36.1324 102.161C36.2636 102.115 36.3949 102.13 36.5115 102.207C36.6282 102.268 36.7011 102.375 36.7448 102.513C36.7886 102.651 36.774 102.789 36.7011 102.912C36.6427 103.035 36.5407 103.111 36.4095 103.157C36.2782 103.203 36.147 103.188 36.0304 103.111C35.9137 103.05 35.8262 102.943 35.7971 102.805C35.7533 102.667 35.7679 102.529 35.8408 102.406Z" fill="white"/>
<path d="M39.4284 113.63L39.6326 106.393L38.9473 106.132L39.0348 105.887L41.3968 106.807L41.3094 107.052L40.5803 106.776L40.4345 112.188L43.6423 107.972L42.7966 107.635L42.8841 107.389L44.6629 108.079L44.5755 108.325L43.9193 108.064L39.6326 113.706L39.4284 113.63Z" fill="white"/>
<path d="M45.9727 115.592L46.0164 115.331L46.7454 115.469L47.8244 109.137L47.0954 108.999L47.1391 108.738L51.98 109.643L51.7029 111.283L51.4988 111.237C51.4988 110.701 51.4259 110.318 51.2218 110.072C51.0176 109.827 50.6385 109.658 50.0553 109.536L48.8305 109.306L48.3348 112.203L48.5389 112.234C48.9617 112.311 49.2825 112.295 49.4866 112.157C49.6908 112.035 49.8366 111.774 49.9386 111.375L50.1428 111.406L49.7053 113.982L49.5012 113.936C49.5595 113.476 49.5012 113.139 49.3262 112.909C49.1513 112.694 48.8305 112.541 48.3493 112.449H48.291L47.7515 115.607L49.1367 115.868C49.6762 115.975 50.099 115.929 50.3906 115.73C50.6823 115.531 50.9447 115.132 51.178 114.519L51.3967 114.565L50.9593 116.496L45.9872 115.561L45.9727 115.592Z" fill="white"/>
<path d="M55.1309 116.695H55.9182L55.8745 110.255H55.1309V109.994H57.9304C58.6594 109.964 59.2427 110.102 59.6363 110.362C60.0446 110.623 60.2341 111.006 60.2487 111.497C60.2487 111.988 60.0738 112.371 59.7238 112.662C59.3593 112.954 58.8781 113.122 58.2512 113.168V113.245C58.7323 113.337 59.126 113.506 59.4322 113.766C59.7384 114.027 59.9134 114.349 59.9717 114.732C60.0009 114.931 60.03 115.223 60.03 115.606C60.03 115.989 60.0738 116.25 60.1175 116.388C60.1612 116.511 60.2196 116.603 60.3071 116.664C60.3945 116.725 60.4966 116.741 60.6278 116.741C60.7007 116.741 60.7882 116.741 60.8757 116.71C60.9632 116.695 61.0507 116.649 61.1382 116.603V116.863C60.9778 116.94 60.8174 116.986 60.6716 117.032C60.5112 117.078 60.3654 117.093 60.2341 117.093C59.8113 117.093 59.5051 116.925 59.2864 116.587C59.0823 116.25 58.951 115.713 58.9219 114.962C58.9219 114.947 58.9219 114.916 58.9219 114.885C58.8927 114.349 58.7906 113.966 58.6011 113.751C58.4699 113.598 58.2949 113.475 58.1053 113.398C57.9158 113.322 57.6971 113.276 57.4784 113.276H56.8951L56.9243 116.664H57.6971V116.925H55.1746V116.679L55.1309 116.695ZM56.866 113.03H57.4492C58.1199 113.03 58.5865 112.908 58.8052 112.708C59.0385 112.494 59.1552 112.126 59.1406 111.574C59.1406 111.068 59.0385 110.715 58.849 110.531C58.6594 110.347 58.2803 110.24 57.6971 110.255H56.8368V113.03H56.866Z" fill="white"/>
<path d="M65.0744 116.51L64.8995 116.541L64.6078 114.731L64.7974 114.701C65.0307 115.176 65.3515 115.529 65.7306 115.774C66.1097 116.004 66.5179 116.081 66.9408 116.004C67.4074 115.927 67.7719 115.697 68.0489 115.329C68.326 114.961 68.4134 114.563 68.3551 114.118C68.2676 113.597 67.7136 113.26 66.6929 113.106C66.6054 113.106 66.5471 113.091 66.5034 113.076C65.6285 112.953 65.0307 112.754 64.6953 112.508C64.36 112.263 64.1704 111.895 64.0829 111.389C63.9955 110.822 64.0829 110.331 64.3891 109.917C64.6807 109.503 65.1182 109.242 65.6722 109.135C66.0951 109.059 66.5033 109.104 66.9116 109.288C66.9845 109.319 67.0283 109.334 67.0428 109.334C67.0574 109.334 67.072 109.334 67.0866 109.304C67.0866 109.304 67.1157 109.273 67.1157 109.258L67.2616 108.982L67.4657 108.951L67.7281 110.515L67.5532 110.546C67.3199 110.086 67.0428 109.779 66.7075 109.58C66.3867 109.396 66.0076 109.334 65.5993 109.411C65.2202 109.472 64.9286 109.656 64.7099 109.932C64.4912 110.208 64.4037 110.515 64.462 110.852C64.5058 111.128 64.637 111.343 64.8703 111.481C65.1036 111.619 65.439 111.711 65.9055 111.757C65.9784 111.757 66.0805 111.772 66.2117 111.788C66.9991 111.864 67.524 111.972 67.801 112.125C68.0489 112.263 68.2385 112.447 68.3989 112.692C68.5447 112.922 68.6613 113.214 68.7051 113.536C68.8217 114.241 68.7051 114.839 68.3843 115.345C68.0489 115.835 67.5532 116.142 66.8679 116.265C66.3867 116.357 65.9347 116.295 65.4973 116.081C65.4244 116.05 65.3806 116.035 65.3806 116.035C65.3806 116.035 65.366 116.035 65.3515 116.05C65.3515 116.05 65.3223 116.081 65.3077 116.096L65.0598 116.479L65.0744 116.51Z" fill="white"/>
<path d="M72.5836 114.81L72.5107 114.565L73.3126 114.304L71.4754 108.171L70.6735 108.432L70.6006 108.171L73.1814 107.328L73.2543 107.573L72.4378 107.849L74.275 113.982L75.0915 113.721L75.1644 113.967L72.5836 114.81ZM71.0089 106.469C70.9651 106.331 70.9797 106.209 71.038 106.071C71.0963 105.948 71.1984 105.856 71.3296 105.81C71.4609 105.764 71.5775 105.779 71.7087 105.841C71.8254 105.902 71.9129 106.009 71.9566 106.147C72.0003 106.285 71.9858 106.408 71.9274 106.546C71.8691 106.684 71.7671 106.761 71.6358 106.807C71.5046 106.853 71.388 106.837 71.2567 106.776C71.1401 106.715 71.0526 106.607 71.0089 106.469Z" fill="white"/>
<path d="M79.6117 112.126L79.495 111.881L80.2533 111.497L77.6287 105.702C77.6287 105.702 77.5412 105.732 77.5121 105.763C77.4683 105.778 77.41 105.809 77.3371 105.855C76.9142 106.07 76.6518 106.33 76.5497 106.668C76.4477 106.99 76.4768 107.496 76.6372 108.155L76.4331 108.262L75.6895 106.407L80.297 104.092L81.1864 105.87L80.9823 105.962C80.6469 105.426 80.3116 105.104 79.9762 104.966C79.6409 104.843 79.2472 104.889 78.7952 105.119C78.7223 105.15 78.6639 105.18 78.6202 105.211C78.591 105.226 78.5619 105.242 78.5327 105.257L81.1573 111.053L81.8863 110.685L82.003 110.915L79.6117 112.111V112.126Z" fill="white"/>
<path d="M86.4208 108.339L86.275 108.124L86.8874 107.679L83.3734 102.42L82.761 102.865L82.6152 102.65L86.625 99.6758L87.5436 101.04L87.3686 101.163C87.0186 100.78 86.6833 100.565 86.3771 100.55C86.0709 100.534 85.6772 100.688 85.196 101.056L84.19 101.807L85.8084 104.214L85.9688 104.092C86.3188 103.831 86.5229 103.586 86.5812 103.34C86.6395 103.095 86.5812 102.804 86.3771 102.451L86.5521 102.328L87.981 104.475L87.806 104.597C87.529 104.23 87.2665 104.03 86.9895 104C86.727 103.969 86.3917 104.107 85.9834 104.398L85.9397 104.429L87.7039 107.066L88.8558 106.223C89.3078 105.885 89.5703 105.548 89.6432 105.195C89.7161 104.843 89.6432 104.352 89.3807 103.739L89.5557 103.601L90.5472 105.287L86.4208 108.354V108.339Z" fill="white"/>
<path d="M94.4265 101.746L94.2516 101.562L94.8494 100.948L90.548 96.3793C90.548 96.3793 90.4751 96.4406 90.446 96.4713C90.4168 96.5019 90.3585 96.5479 90.3001 96.6246C89.9648 96.9619 89.8044 97.3145 89.8044 97.6672C89.8044 98.0198 89.9939 98.4798 90.3439 99.0471L90.1835 99.2158L88.9004 97.7132L92.531 93.9414L93.9308 95.3213L93.7704 95.49C93.2892 95.1067 92.8664 94.9073 92.5019 94.892C92.1519 94.892 91.7874 95.0607 91.4375 95.4287C91.3791 95.49 91.3354 95.536 91.3062 95.5666C91.2771 95.5973 91.2625 95.628 91.2333 95.6433L95.5201 100.212L96.1033 99.6144L96.2783 99.7984L94.3974 101.761L94.4265 101.746Z" fill="white"/>
<path d="M93.6377 90.1239C93.5356 90.0319 93.4627 89.9246 93.4481 89.7713C93.4336 89.6333 93.4482 89.4953 93.5502 89.388C93.6377 89.2806 93.7398 89.204 93.871 89.1886C94.0022 89.1733 94.1334 89.1886 94.2355 89.296C94.3376 89.388 94.4105 89.4953 94.4251 89.6333C94.4397 89.7713 94.4251 89.9093 94.323 90.0166C94.2355 90.1239 94.1335 90.2006 94.0022 90.2159C93.871 90.2312 93.7398 90.2159 93.6377 90.1239ZM99.4992 95.9809L99.2951 95.8276L99.8054 95.1223L94.95 91.2278L94.4396 91.9331L94.2355 91.7798L95.8686 89.5259L96.0727 89.6793L95.5478 90.3999L100.403 94.2943L100.928 93.5737L101.132 93.727L99.4992 95.9809Z" fill="white"/>
<path d="M4.08398 60.6865V60.3032L5.36674 58.9999C5.77489 58.5859 6.081 58.2026 6.28508 57.85C6.48915 57.4973 6.59119 57.16 6.59119 56.8534C6.59119 56.4854 6.48915 56.1941 6.29966 55.9794C6.11016 55.7648 5.8332 55.6574 5.51251 55.6574C5.22097 55.6574 4.98774 55.7341 4.78367 55.9027C4.57959 56.0561 4.49213 56.2554 4.49213 56.4547C4.49213 56.4854 4.49213 56.516 4.50671 56.5314C4.50671 56.5467 4.53586 56.562 4.55044 56.562C4.55044 56.562 4.56502 56.562 4.5796 56.562C4.66706 56.5314 4.75452 56.516 4.84198 56.516C4.95859 56.516 5.04605 56.5467 5.10436 56.6234C5.16267 56.7 5.2064 56.792 5.2064 56.9147C5.2064 57.0373 5.16267 57.1447 5.08978 57.2367C5.0169 57.3133 4.91486 57.3593 4.79825 57.3593C4.65248 57.3593 4.52129 57.298 4.41925 57.1753C4.31721 57.0527 4.27348 56.884 4.27348 56.6847C4.27348 56.3167 4.41925 56.0254 4.71079 55.7801C5.00232 55.5348 5.36674 55.4121 5.81862 55.4121C6.29966 55.4121 6.69323 55.5348 6.98476 55.7954C7.2763 56.0407 7.42207 56.3781 7.42207 56.792C7.42207 57.068 7.32003 57.3593 7.13053 57.6506C6.92646 57.942 6.59119 58.3253 6.09558 58.7546L4.6379 60.0578H6.66407C6.839 60.0578 6.95561 60.0272 7.02849 59.9505C7.10138 59.8738 7.14511 59.6899 7.18884 59.3832H7.39291L7.29088 60.7018H4.08398V60.6865Z" fill="white"/>
<path d="M8.99693 58.1106C8.99693 57.3133 9.17185 56.6694 9.50711 56.1634C9.84238 55.6574 10.2651 55.4121 10.7753 55.4121C11.2855 55.4121 11.7082 55.6574 12.0435 56.1634C12.3787 56.6694 12.5391 57.3133 12.5391 58.1106C12.5391 58.9079 12.3642 59.5519 12.0289 60.0578C11.6936 60.5638 11.2709 60.8091 10.7607 60.8091C10.5275 60.8091 10.3234 60.7478 10.1193 60.6405C9.92984 60.5331 9.74034 60.3645 9.56542 60.1345C9.36135 59.8585 9.21558 59.5672 9.11354 59.2452C9.02608 58.9232 8.96777 58.5399 8.96777 58.1106H8.99693ZM9.79865 58.1106C9.79865 58.9999 9.87153 59.6439 10.0319 60.0118C10.1776 60.3951 10.4255 60.5791 10.7753 60.5791C11.1251 60.5791 11.3729 60.3951 11.5187 60.0118C11.6645 59.6285 11.7374 58.9999 11.7374 58.0953C11.7374 57.1907 11.6645 56.5927 11.5041 56.1941C11.3438 55.7954 11.096 55.5961 10.7753 55.5961C10.4546 55.5961 10.2068 55.7954 10.0465 56.2094C9.88611 56.6234 9.81323 57.252 9.81323 58.0953L9.79865 58.1106Z" fill="white"/>
<path d="M103.523 60.7021V60.3188L104.806 59.0155C105.214 58.6015 105.52 58.2182 105.725 57.8656C105.929 57.5129 106.031 57.1756 106.031 56.869C106.031 56.501 105.929 56.2097 105.739 55.995C105.55 55.7804 105.273 55.6731 104.952 55.6731C104.66 55.6731 104.427 55.7497 104.223 55.9184C104.019 56.0717 103.932 56.271 103.932 56.4703C103.932 56.501 103.932 56.5317 103.946 56.547C103.946 56.5623 103.975 56.5777 103.99 56.5777C103.99 56.5777 104.004 56.5777 104.019 56.5777C104.107 56.547 104.194 56.5317 104.281 56.5317C104.398 56.5317 104.486 56.5623 104.544 56.639C104.602 56.7157 104.646 56.8077 104.646 56.9303C104.646 57.053 104.602 57.1603 104.529 57.2523C104.456 57.329 104.354 57.3749 104.238 57.3749C104.092 57.3749 103.961 57.3136 103.859 57.191C103.757 57.0683 103.713 56.8996 103.713 56.7003C103.713 56.3323 103.859 56.041 104.15 55.7957C104.442 55.5504 104.806 55.4277 105.258 55.4277C105.739 55.4277 106.133 55.5504 106.424 55.811C106.716 56.0564 106.862 56.3937 106.862 56.8076C106.862 57.0836 106.759 57.3749 106.57 57.6663C106.366 57.9576 106.031 58.3409 105.535 58.7702L104.077 60.0735H106.104C106.278 60.0735 106.395 60.0428 106.468 59.9661C106.541 59.8895 106.585 59.7055 106.628 59.3988H106.832L106.73 60.7174H103.538L103.523 60.7021Z" fill="white"/>
<path d="M109.633 60.7012V60.4866H110.187V59.2753H108.233V58.8307C108.481 58.3247 108.787 57.8034 109.137 57.2361C109.487 56.6841 109.895 56.0708 110.391 55.3809H110.886V59.03H111.586V58.4167H111.761V59.8579H111.586V59.2753H110.872V60.4866H111.44V60.7012H109.618H109.633ZM108.408 59.03H110.201V55.9942C109.735 56.6841 109.341 57.2821 109.021 57.834C108.7 58.3707 108.496 58.754 108.408 58.9686V59.03Z" fill="white"/>
<path d="M74.9731 56.4537C80.8516 56.4537 85.6171 51.4426 85.6171 45.261C85.6171 39.0795 80.8516 34.0684 74.9731 34.0684C69.0946 34.0684 64.3291 39.0795 64.3291 45.261C64.3291 51.4426 69.0946 56.4537 74.9731 56.4537Z" fill="white"/>
<path d="M74.8708 23.4125L74.3606 30.5268L73.8213 22.9219C74.1857 23.0752 74.521 23.2439 74.8708 23.4125Z" fill="white"/>
<path d="M71.9554 30.864L69.6377 21.2812C70.1333 21.4346 70.5998 21.6032 71.0808 21.7872L71.9554 30.864Z" fill="white"/>
<path d="M69.6088 31.6304L64.6514 20.0391C65.0888 20.1157 65.5554 20.1924 66.0074 20.2997C66.1969 20.3304 66.4156 20.3917 66.6198 20.453L69.6088 31.6304Z" fill="white"/>
<path d="M67.4481 32.8269L58.7871 19.457C58.9329 19.457 59.0787 19.457 59.2245 19.4724C59.9536 19.4877 60.6826 19.549 61.3971 19.6104L67.4481 32.8269Z" fill="white"/>
<path d="M65.4946 34.3753L52.1094 19.9168C53.0571 19.7635 54.0195 19.6408 54.9818 19.5795C55.0984 19.5642 55.2297 19.5642 55.3609 19.5488L65.4946 34.3753Z" fill="white"/>
<path d="M63.8491 36.2777L44.7773 21.8346C45.3314 21.6353 45.9001 21.436 46.4687 21.252C47.1686 21.0373 47.8831 20.8227 48.5975 20.6387L63.8491 36.2777Z" fill="white"/>
<path d="M62.5352 38.4394L37.2812 25.6369C37.3687 25.5755 37.4562 25.5142 37.5291 25.4682C38.7685 24.6556 40.0662 23.935 41.393 23.291L62.5352 38.4394Z" fill="white"/>
<path d="M51.046 38.2694C51.046 38.2694 51.0606 38.4534 50.9585 38.5607C50.8856 38.6374 50.8273 38.6527 50.7252 38.6527C50.5211 38.6527 50.2149 38.53 49.7775 38.4994H49.7192C49.4421 38.4994 48.7568 38.5607 48.2465 39.0207C48.1299 39.128 48.0424 39.2813 48.0132 39.45V39.5113L47.9695 39.634C47.9695 39.634 47.9549 39.7566 47.9549 39.818C47.9549 40.0786 48.0278 40.3393 48.1882 40.5539C48.4215 40.8759 48.7423 41.3665 48.961 42.0412C49.0339 42.3018 49.1068 42.5931 49.1505 42.9151C49.1651 43.0224 49.1797 43.1144 49.1797 43.2064L49.0047 43.1604C48.9172 43.1298 48.8152 43.1144 48.7131 43.1144H48.6402C48.4798 43.1144 48.3486 43.1298 48.2028 43.1604C48.1299 43.1758 48.0715 43.1911 48.0132 43.2064C47.7216 43.2984 47.4591 43.4824 47.2404 43.7277H47.0946C46.9196 43.7277 46.7593 43.7737 46.5989 43.835C46.0594 44.0804 45.5053 44.341 44.9367 44.6477C44.4992 44.8777 44.0618 45.123 43.6098 45.399C43.5806 45.215 43.5223 45.031 43.4203 44.8777C43.3473 44.7397 43.2599 44.617 43.1432 44.5097H43.0703C43.0703 44.5097 43.0703 44.4637 43.0849 44.4483C43.0849 44.157 43.1141 43.8197 43.187 43.4671C43.3911 42.5625 43.7994 41.9185 44.091 41.5352C44.1201 41.5045 44.1347 41.4739 44.1639 41.4432C44.1785 41.4125 44.2222 41.3819 44.2514 41.3359C44.3388 41.1825 44.4117 41.0292 44.4992 40.8912C44.82 40.2933 45.17 39.6953 45.622 39.1893C45.7094 39.0667 45.8115 38.9593 45.9136 38.852C46.1614 38.6067 46.351 38.3614 46.4822 38.1161C46.6718 37.8094 47.1238 37.0888 47.8091 36.7361H47.8237C48.057 36.6135 48.3048 36.5368 48.5819 36.5215H48.5964C48.8152 36.5521 49.1359 36.6288 49.4713 36.8435C49.7629 37.0275 49.7629 37.1194 50.0837 37.3954H50.0983C50.0983 37.3954 50.1566 37.4568 50.2003 37.4874C50.7107 37.9014 51.0314 37.9781 51.046 38.2694Z" fill="white"/>
<path d="M61.6034 40.815L52.3591 38.0705C52.2717 37.2579 51.6593 36.8592 51.3531 36.6292C51.251 36.5679 51.1344 36.4912 51.0031 36.3839C50.8719 36.2766 50.799 36.1999 50.7407 36.1386C50.624 36.0159 50.4491 35.8473 50.1283 35.6479C49.6325 35.3106 49.093 35.188 48.7577 35.142C48.6994 35.142 48.6556 35.142 48.5973 35.142H48.5827C47.5621 35.188 46.7747 35.7093 46.2352 36.2766L39.8051 34.3754C38.0699 32.2288 36.9181 31.0176 36.1015 30.1743C35.9849 30.0363 35.8391 29.883 35.6933 29.745L35.5329 29.5916C35.5329 29.5916 35.5037 29.5456 35.4745 29.5303C35.1246 29.2083 34.7163 29.0397 34.2643 29.0397C34.1914 29.0397 34.0456 29.0397 33.8852 29.0703C33.7978 29.0857 33.7103 29.1163 33.6374 29.147C33.3603 29.2543 32.8646 29.5456 32.6021 30.2356C32.5292 30.4349 32.4855 30.6496 32.5001 30.8642C32.5292 31.3395 32.573 31.7995 32.6459 32.2442L30.1963 31.5235C31.2753 30.3889 32.4272 29.3157 33.6228 28.3191C33.8269 28.1657 34.0165 28.0124 34.2206 27.8438L61.6034 40.8303V40.815Z" fill="white"/>
<path d="M36.4648 40.7229L24.2461 39.435C24.7564 38.5304 25.3105 37.6564 25.8937 36.8131C26.4478 35.9852 27.0456 35.1726 27.658 34.3906L33.607 35.9852C34.336 37.8251 35.3567 39.4043 36.4648 40.7229Z" fill="white"/>
<path d="M44.2074 38.8223C44.047 39.0216 43.9158 39.2362 43.7846 39.4509C43.5514 39.1289 43.3182 38.8223 43.085 38.5156L44.2074 38.8223Z" fill="white"/>
<path d="M57.3897 42.3489C57.0981 42.4102 56.6606 42.5175 56.1649 42.6709C56.0482 42.7015 55.9316 42.7475 55.8295 42.7782L50.3617 42.1956C50.2013 41.4136 49.8951 40.7696 49.6035 40.2637L57.3897 42.3489Z" fill="white"/>
<path d="M61.0634 43.3287L59.081 43.1141C59.081 43.1141 59.0518 43.0374 59.0372 43.0067C58.9935 42.9148 58.9352 42.8228 58.8623 42.7461L61.0634 43.3287Z" fill="white"/>
<path d="M37.5745 44.0654C36.306 45.0313 34.9208 46.3192 33.6669 48.0365L20.165 49.0944C20.2525 48.7264 20.3692 48.3431 20.4858 47.9751C21.0253 46.2119 21.6814 44.5253 22.4542 42.8848L37.5745 44.0654Z" fill="white"/>
<path d="M49.1237 44.9707C49.1237 44.9707 49.0207 44.9861 48.9766 44.9707H49.1237Z" fill="white"/>
<path d="M60.962 45.9058L57.5947 46.1664C57.7405 45.9978 57.8717 45.8291 58.0029 45.6758L60.962 45.9058Z" fill="white"/>
<path d="M31.6248 51.5625C30.7937 53.4637 30.3416 55.2576 30.1229 56.7602L18.5166 59.8727C18.5603 58.1861 18.677 56.5455 18.9249 54.9203C19.0123 54.2303 19.129 53.5404 19.2602 52.8658L31.6248 51.5625Z" fill="white"/>
<path d="M46.1167 50.168C46.1167 50.444 46.0875 50.7506 46.0146 51.0572V50.8733L46.0438 50.6739C46.0438 50.6739 46.0438 50.5359 46.0584 50.4899C46.073 50.3826 46.1021 50.2753 46.1167 50.168Z" fill="white"/>
<path d="M61.2683 48.4355L55.5672 49.9688C55.3631 49.7235 55.1298 49.4935 54.8965 49.2942C54.8382 49.2328 54.7653 49.1868 54.6924 49.1255L55.0715 49.0948L61.2683 48.4355Z" fill="white"/>
<path d="M46.3527 58.3252L19.6406 70.9744C19.4365 70.0545 19.247 69.1192 19.0866 68.1686C18.8387 66.7273 18.6783 65.2554 18.5908 63.7682L31.2761 60.0117C31.2761 60.0117 31.4074 60.0271 31.4657 60.0271C31.4803 60.0271 31.524 60.0117 31.5532 60.0117C32.88 59.9504 34.9505 59.5977 37.2105 58.4171C37.4147 58.3098 37.6188 58.1872 37.8083 58.0798L45.0696 55.918C45.1862 56.2246 45.3321 56.5466 45.4779 56.8379C45.7403 57.3439 46.0319 57.8499 46.3527 58.3252Z" fill="white"/>
<path d="M62.0098 50.9043L57.1836 53.1888C57.1398 52.9128 57.0523 52.6522 56.9648 52.3915L62.0098 50.9043Z" fill="white"/>
<path d="M53.7297 59.9039L46.0311 65.4236C44.3397 65.1016 42.8962 65.0403 42.0505 65.0403C41.5256 65.0403 41.2048 65.0709 41.2048 65.0709C40.5195 65.1169 39.98 65.7302 39.98 66.4509V69.6553C39.98 69.6553 39.9363 69.7473 39.9217 69.7933L23.6203 81.4766C23.5329 81.2926 23.4308 81.1086 23.3287 80.94C22.2935 78.9314 21.404 76.8462 20.7188 74.6844L50.7115 59.4746C51.3531 59.5666 52.0529 59.5359 52.7674 59.7046L52.9424 59.7506C52.9424 59.7506 53.0444 59.7506 53.1028 59.7813C53.3069 59.8273 53.511 59.8733 53.7297 59.9039Z" fill="white"/>
<path d="M63.1349 53.1719L57.7692 57.0203C57.7108 56.821 57.6379 56.637 57.5504 56.4683L57.5067 56.3763C57.5067 56.269 57.5067 56.1617 57.4775 56.039L63.1349 53.1719Z" fill="white"/>
<path d="M39.2647 74.4082C39.0897 76.1254 38.8856 78.1953 38.6961 80.2805C38.6377 80.8325 38.594 81.3998 38.5357 81.9518L30.1954 90.4919C28.8686 89.1273 27.6438 87.6401 26.5211 86.0915C26.2003 85.6622 25.8941 85.2176 25.5879 84.7576L39.2647 74.4082Z" fill="white"/>
<path d="M64.6206 55.2285L52.3873 67.7704C51.5708 67.2645 50.7105 66.8351 49.7773 66.4672L64.6206 55.2285Z" fill="white"/>
<path d="M40.7537 94.4473L38.7999 97.3145C37.8084 96.7472 36.8461 96.1186 35.9129 95.4593C34.8777 94.708 33.8716 93.9414 32.9238 93.0981L38.0271 87.5938C37.8813 89.2037 37.7938 90.2463 37.7938 90.2463C37.7647 90.4916 37.6626 91.5955 37.648 92.4695L37.5897 93.0828C37.5459 93.4967 37.6918 93.9107 37.9688 94.2174C38.2167 94.4627 38.552 94.616 38.902 94.616C38.9457 94.616 39.004 94.6007 39.0624 94.6007C39.4706 94.5547 40.0539 94.4933 40.7537 94.4473Z" fill="white"/>
<path d="M66.4292 56.9609L56.4121 71.6034C55.931 70.8521 55.3623 70.1775 54.7354 69.5642L66.4292 56.9609Z" fill="white"/>
<path d="M51.6142 95.1383L48.7563 101.379C48.3481 101.302 47.9544 101.195 47.5753 101.072C45.6944 100.551 43.8864 99.876 42.1367 99.0481H42.1221L45.1257 94.4023C47.065 94.479 49.3104 94.6783 51.6142 95.1383Z" fill="white"/>
<path d="M48.1883 90.7526C47.9842 90.7221 47.7655 90.6916 47.5469 90.661L47.5906 90.6152C47.7947 90.6458 47.9988 90.6916 48.1883 90.7526Z" fill="white"/>
<path d="M68.4864 58.3239L64.3454 67.37C63.5435 67.784 62.7998 68.2747 62.1 68.8266L62.0708 68.8573C61.7354 69.1179 61.4147 69.4093 61.123 69.7159L68.5009 58.3086L68.4864 58.3239Z" fill="white"/>
<path d="M60.8884 96.089L59.1679 102.544C58.7742 102.559 58.3951 102.559 58.016 102.559C56.8058 102.559 55.6247 102.498 54.4437 102.391C53.7584 102.314 53.0731 102.237 52.4023 102.115L54.9977 96.043C55.4935 96.2116 55.9892 96.3956 56.4704 96.6103L56.6016 96.6563C56.762 96.7176 56.937 96.7483 57.0974 96.7483C57.3598 96.7483 57.6223 96.6716 57.841 96.5183C57.8702 96.5029 57.8993 96.4723 57.9285 96.4416C57.9431 96.4723 57.9722 96.4876 57.9868 96.5029C58.0014 96.5183 58.0014 96.5183 58.016 96.5183C58.2493 96.7329 58.5409 96.8249 58.8179 96.8249C59.0804 96.8249 59.3282 96.7483 59.5469 96.5949C59.9844 96.4109 60.4364 96.2423 60.8884 96.089Z" fill="white"/>
<path d="M58.8631 90.369L58.8193 90.3996V88.9277L58.8631 90.369Z" fill="white"/>
<path d="M70.7313 59.3203L69.055 65.6066C68.6905 65.6833 68.3115 65.7906 67.918 65.8979L70.7313 59.3203Z" fill="white"/>
<path d="M69.8262 94.4473L69.2138 100.856C68.4119 101.086 67.5953 101.316 66.7788 101.516C65.5103 101.807 64.2126 102.067 62.8857 102.221L64.6063 95.0912C66.4143 94.7386 68.2077 94.5546 69.8262 94.4473Z" fill="white"/>
<path d="M73.1217 59.873L72.6261 65.0861C72.3929 65.1014 72.1305 65.1167 71.8535 65.1474L73.1217 59.873Z" fill="white"/>
<path d="M76.0097 66.2824C76.0097 66.2824 75.9806 66.1751 75.966 66.1137C75.8785 65.6844 75.587 65.3318 75.208 65.1784L75.5724 59.9961L75.9951 66.0677V66.2824H76.0097Z" fill="white"/>
<path d="M78.1683 96.7319C78.0517 96.8086 77.935 96.8852 77.8184 96.9465C76.1999 97.9432 74.5231 98.8171 72.7734 99.5377L73.138 94.3707C74.8002 94.4014 76.1708 94.5087 76.9581 94.6007C77.0019 94.6007 77.0602 94.616 77.1185 94.616C77.4393 94.616 77.7601 94.478 77.9934 94.248L78.1683 96.7319Z" fill="white"/>
<path d="M85.5139 90.829C84.435 91.9329 83.2685 92.9909 82.0729 93.9721C81.8104 94.1561 81.5625 94.3708 81.3147 94.5548L77.9902 59.6582L85.5139 90.829Z" fill="white"/>
<path d="M91.0285 83.8384C90.5619 84.559 90.0953 85.2643 89.5996 85.9696C89.1184 86.6289 88.6227 87.2882 88.1123 87.9168L80.3262 58.8926L91.0285 83.8384Z" fill="white"/>
<path d="M94.673 76.5238C94.6001 76.7231 94.5126 76.9378 94.4397 77.1371C93.9731 78.287 93.4774 79.3756 92.9233 80.4642L82.498 57.7109L94.673 76.5238Z" fill="white"/>
<path d="M96.7146 69.3937C96.525 70.3903 96.2917 71.3562 96.0293 72.3222C95.9855 72.5062 95.9272 72.6902 95.8689 72.8741L84.4375 56.1465L96.7146 69.3937Z" fill="white"/>
<path d="M97.4862 62.8782C97.457 63.3075 97.4279 63.7215 97.4133 64.1508C97.3695 64.6875 97.3258 65.1934 97.2675 65.7147L86.084 54.2461L97.4862 62.8782Z" fill="white"/>
<path d="M97.5011 59.3056L87.4111 52.084L97.3552 57.1283C97.4136 57.849 97.4573 58.5696 97.5011 59.3056Z" fill="white"/>
<path d="M96.9183 53.7721L88.3447 49.709L96.6121 52.1622C96.7287 52.6988 96.8453 53.2354 96.9183 53.7721Z" fill="white"/>
<path d="M95.8679 49.0795L88.8691 47.209L95.518 47.9143C95.6201 48.2209 95.7221 48.5429 95.8096 48.8649C95.8388 48.9262 95.8534 49.0182 95.8679 49.0795Z" fill="white"/>
<path d="M94.4969 45.0623L88.9854 44.633L94.1615 44.2344C94.1615 44.2344 94.1761 44.2804 94.1907 44.311C94.3074 44.5717 94.4094 44.817 94.4969 45.0623Z" fill="white"/>
<path d="M92.9642 41.6273L88.6641 42.0872L92.6435 41.0293C92.7747 41.2133 92.8767 41.4279 92.9642 41.6273Z" fill="white"/>
<path d="M91.3164 38.6377L87.9346 39.6343L91.0248 38.1777C91.1123 38.3004 91.1998 38.4384 91.2726 38.5764C91.2872 38.5764 91.3018 38.6224 91.3164 38.6377Z" fill="white"/>
<path d="M89.5393 35.9692L86.7988 37.3492L89.2623 35.5859C89.3789 35.7086 89.4664 35.8466 89.5393 35.9692Z" fill="white"/>
<path d="M87.6585 33.5482L85.3262 35.3115L87.3669 33.2109C87.4835 33.3336 87.571 33.4409 87.6585 33.5482Z" fill="white"/>
<path d="M85.6312 31.2927L83.5176 33.5772L85.3105 30.9707C85.4271 31.0627 85.5292 31.17 85.6312 31.2927Z" fill="white"/>
<path d="M83.4152 29.1785L81.4619 32.1837L83.0071 28.8105L83.0362 28.8412C83.1674 28.9485 83.284 29.0559 83.4152 29.1785Z" fill="white"/>
<path d="M80.9358 27.1528L79.2012 31.2006L80.3965 26.7695C80.5714 26.8922 80.7609 27.0148 80.9358 27.1528Z" fill="white"/>
<path d="M78.1234 25.2373L76.8115 30.6497L77.3654 24.7773C77.5549 24.8847 77.7299 24.992 77.9048 25.0993L78.1234 25.2373Z" fill="white"/>
<path d="M77.1173 93.2213C76.4174 93.1293 75.0322 93.0066 73.2388 92.9913C73.0201 92.976 72.8014 92.9759 72.5681 92.9759C71.7661 92.9759 70.8913 92.9913 69.9581 93.0526C68.398 93.1293 66.692 93.3133 64.9569 93.6199C63.7467 93.8499 62.5365 94.1259 61.3263 94.5092C60.5097 94.7392 59.7078 95.0305 58.9204 95.3525H58.9058L58.8913 95.3831C58.8621 95.3985 58.8475 95.4138 58.8475 95.4138C58.8329 95.4138 58.8329 95.4291 58.8184 95.4291C58.8329 95.4291 58.8329 95.4138 58.8329 95.3985C58.8475 95.3831 58.8475 95.3678 58.8621 95.3525V90.3694L58.8184 88.9282V83.3319L58.8621 83.1785V78.5635C58.8621 75.2057 60.3202 72.0165 62.8572 69.962C62.8718 69.962 62.8864 69.9467 62.901 69.9313C63.0322 69.824 63.178 69.7167 63.3092 69.6247C64.5486 68.7201 65.8755 68.0608 67.1878 67.5855C67.5231 67.4628 67.8439 67.3555 68.1792 67.2635C68.3396 67.2175 68.5 67.1715 68.6458 67.1408C69.6811 66.8649 70.6434 66.6962 71.5037 66.5889C71.8536 66.5429 72.189 66.5122 72.4952 66.4969C73.093 66.4509 73.5887 66.4355 73.9533 66.4355C74.4344 66.4355 74.7115 66.4509 74.7115 66.4509V85.8924H74.4053C74.2157 85.8924 73.9824 85.8924 73.7345 85.9077C72.9326 85.9384 71.8536 86.015 70.6142 86.2297C69.5644 86.4137 68.3834 86.7203 67.2023 87.165C66.9545 87.257 66.7066 87.349 66.4587 87.4716C65.1173 88.0236 63.7758 88.8209 62.5511 89.8941C62.5219 89.9248 62.4927 89.9401 62.4636 89.9708C61.2971 91.0134 60.2473 92.3473 59.4453 94.0032L59.3578 94.1872C59.2558 94.4172 59.1391 94.6778 59.0371 94.9232C58.9933 95.0458 58.935 95.1685 58.8913 95.3065C59.2704 94.5705 60.2035 93.1599 62.0407 91.78C63.0322 91.0287 64.3153 90.2774 65.9192 89.6488C67.1877 89.1428 68.675 88.7135 70.3955 88.4069C71.3724 88.2382 72.4368 88.1156 73.5887 88.0236C74.274 87.9776 74.9885 87.9469 75.7321 87.9469L74.9156 70.468C75.0468 70.468 75.5426 75.4357 75.9946 80.4187C76.4612 85.4017 76.8986 90.3694 76.8986 90.3694C75.6884 90.2008 74.5365 90.1241 73.4429 90.1088H73.2534C72.189 90.1088 71.1683 90.1855 70.2206 90.3081C68.4417 90.5228 66.867 90.9367 65.4964 91.4427C63.9508 91.9947 62.6531 92.654 61.647 93.2826C60.1744 94.1872 59.2849 94.9998 59.0079 95.2758C59.2849 95.0918 60.1015 94.5552 61.4721 93.9419C62.4344 93.5126 63.6738 93.0679 65.1902 92.6846C66.5899 92.3167 68.2084 92.0253 70.0748 91.8567C71.0517 91.78 72.1015 91.734 73.2242 91.734H73.3263C74.4782 91.734 75.7029 91.7954 76.9861 91.918L77.1173 93.2213Z" fill="white"/>
<path d="M57.0982 95.3528C56.5879 95.1535 56.0776 94.9542 55.5527 94.7855C55.4506 94.7395 55.334 94.7089 55.2319 94.6782C54.4591 94.4175 53.6863 94.2029 52.9135 94.0189C52.6802 93.9576 52.4324 93.9116 52.1991 93.8656C50.0557 93.3903 47.9123 93.145 46.0022 93.053C45.0982 92.9916 44.2379 92.9763 43.436 92.9763C42.8236 92.9763 42.255 92.9916 41.7446 93.007C40.4469 93.053 39.4554 93.145 38.9014 93.2216L39.0326 91.9184C40.3011 91.7957 41.4968 91.7344 42.6195 91.7344H42.7799L44.8212 91.7957H44.9232C45.5502 91.8264 46.148 91.8877 46.7167 91.949C47.1395 91.995 47.5624 92.041 47.9561 92.1023C49.7349 92.3783 51.2659 92.7616 52.5199 93.1756C52.7969 93.2676 53.0448 93.3596 53.2926 93.4516C53.3072 93.4516 53.3364 93.4669 53.351 93.4669C54.3133 93.8196 55.0861 94.1876 55.6693 94.4942C56.34 94.8315 56.7775 95.1228 56.9816 95.2608C57.0107 95.2762 57.0399 95.3068 57.0545 95.3222C57.0691 95.3222 57.0837 95.3375 57.0982 95.3528Z" fill="white"/>
<path d="M56.1221 93.1758C56.1221 93.1758 56.1809 93.2528 56.1809 93.2991L56.2103 93.2374C56.2103 93.2374 56.1515 93.2066 56.1221 93.1758Z" fill="white"/>
<path d="M56.1214 93.1758C56.1214 93.1758 56.1797 93.2524 56.1797 93.2984L56.2089 93.2371C56.2089 93.2371 56.1505 93.2064 56.1214 93.1758ZM47.5916 90.6152L47.5479 90.6612C47.7666 90.6919 47.9853 90.7226 48.1894 90.7532C47.9999 90.6919 47.7957 90.6459 47.5916 90.6152Z" fill="white"/>
<path d="M56.1797 93.2984C56.1797 93.2984 56.1505 93.2217 56.1214 93.1758L56.1797 93.2984ZM57.1858 95.4143H57.1712H57.1858ZM56.1214 93.1758C56.1214 93.1758 56.1797 93.2524 56.1797 93.2984L56.2089 93.2371C56.2089 93.2371 56.1505 93.2064 56.1214 93.1758ZM56.1214 93.1758C56.1214 93.1758 56.1797 93.2524 56.1797 93.2984L56.2089 93.2371C56.2089 93.2371 56.1505 93.2064 56.1214 93.1758ZM47.5916 90.6152L47.5479 90.6612C47.7666 90.6919 47.9853 90.7226 48.1894 90.7532C47.9999 90.6919 47.7957 90.6459 47.5916 90.6152ZM57.9877 96.5029C57.9877 96.5029 57.944 96.4722 57.9294 96.4416C57.9002 96.4722 57.8711 96.5029 57.8419 96.5182C57.6232 96.6715 57.3607 96.7482 57.0983 96.7482C56.9379 96.7482 56.7629 96.7175 56.6025 96.6562L56.4713 96.6102C56.69 96.7482 56.9379 96.8249 57.1858 96.8249C57.4774 96.8249 57.7836 96.7175 58.0169 96.5182C58.0169 96.5182 58.0072 96.5131 57.9877 96.5029Z" fill="white"/>
<path d="M57.1721 95.3985C57.1721 95.3985 57.1429 95.3985 57.1283 95.3831H57.0992V95.3525C57.0992 95.3525 57.07 95.3218 57.0554 95.3218C57.0554 95.3218 57.0117 95.2758 56.9825 95.2605C56.7784 95.0458 56.3847 94.6932 55.7723 94.2332C55.2328 93.8192 54.5184 93.3286 53.6289 92.838C53.6144 92.8226 53.5998 92.8226 53.5852 92.8073C53.3519 92.6846 53.104 92.562 52.8562 92.4393C51.573 91.7954 50.0129 91.1821 48.1903 90.7528C48.0007 90.6914 47.7966 90.6454 47.5925 90.6148C46.4114 90.3541 45.1137 90.1855 43.714 90.1395C43.3932 90.1088 43.0724 90.1088 42.7517 90.1088C41.5998 90.1088 40.3896 90.1855 39.1064 90.3694C39.1064 90.3694 39.2668 88.5602 39.4855 86.015C39.6459 84.3745 39.8209 82.4119 40.0105 80.4494C40.2438 77.8429 40.4916 75.2364 40.6958 73.3351C40.8853 71.6026 41.0311 70.468 41.0894 70.468L40.9728 73.1205L40.652 79.7594L40.4041 85.0031L40.2729 87.9469C41.9934 87.9623 43.5536 88.1002 44.9534 88.2996C46.2802 88.4989 47.4758 88.7749 48.5402 89.1122C50.5378 89.7255 52.1125 90.5074 53.3373 91.3507C54.008 91.78 54.5621 92.24 55.0433 92.6846C55.4224 93.022 55.7432 93.3746 56.0056 93.6812C56.1077 93.8039 56.1952 93.9266 56.2827 94.0339H56.3118C56.6909 94.5552 56.9534 94.9845 57.1138 95.3065C57.0554 95.1685 57.0117 95.0458 56.9534 94.9232C56.8659 94.6932 56.7638 94.4632 56.6618 94.2485C56.6472 94.2332 56.6472 94.2025 56.6326 94.1872C56.6034 94.1259 56.5743 94.0646 56.5597 94.0032C56.443 93.7579 56.3118 93.5279 56.166 93.2979L56.1952 93.2366C56.1952 93.2366 56.1368 93.2059 56.1077 93.1753C55.4661 92.0407 54.6933 91.0594 53.8331 90.2774C53.731 90.1548 53.6289 90.0628 53.5269 89.9708C52.3021 88.8669 50.9461 88.0696 49.5901 87.4869C49.313 87.3643 49.0506 87.257 48.7881 87.165C47.9133 86.843 47.0676 86.5977 46.251 86.4137C44.2535 85.969 42.5329 85.8924 41.5852 85.8924H41.2936V66.4509C41.2936 66.4509 41.5706 66.4355 42.0372 66.4355C42.5913 66.4355 43.4224 66.4662 44.4139 66.5735C45.4199 66.6962 46.601 66.8955 47.8258 67.2635C48.0299 67.3248 48.234 67.3862 48.4382 67.4628C49.4151 67.7848 50.4212 68.2141 51.3835 68.7661C51.9667 69.1034 52.5354 69.4867 53.0895 69.9313C53.104 69.9467 53.1332 69.962 53.1478 69.962C53.3811 70.146 53.5998 70.3453 53.8039 70.56C54.5038 71.2193 55.087 71.9705 55.5682 72.7985C56.1952 73.8411 56.6326 75.0064 56.8951 76.2176C57.0409 76.9842 57.1283 77.7662 57.1283 78.5635V95.3525C57.1283 95.3525 57.1575 95.3831 57.1575 95.3985H57.1721Z" fill="white"/>
<path d="M43.0413 40.6923C42.8954 40.8763 42.7351 41.1063 42.5892 41.3823C42.3268 41.8576 42.0643 42.4402 41.9039 43.1455C41.8602 43.3142 41.831 43.4828 41.8165 43.6362L40.9854 42.9922C40.8687 42.9002 40.7521 42.8389 40.6208 42.7929C40.6063 42.7776 40.5771 42.7776 40.5333 42.7622H40.5188C39.8772 42.2563 39.1773 41.6583 38.492 40.9377C37.2964 39.7571 36.1154 38.2545 35.2405 36.4146C34.8031 35.4947 34.424 34.4981 34.1761 33.4095C34.1178 33.1488 34.074 32.8881 34.0449 32.6428C33.9282 31.9989 33.8553 31.3702 33.8262 30.7569C33.8262 30.7416 33.8991 30.5116 34.1178 30.4196H34.1324C34.1324 30.4196 34.2199 30.4043 34.2636 30.4043C34.3948 30.4043 34.5115 30.4656 34.599 30.5576C34.7593 30.7109 34.9635 30.9103 35.1822 31.1403C35.6779 31.6462 36.407 32.4282 37.4714 33.6548C38.0692 34.3754 38.7691 35.2187 39.6002 36.2613C40.0084 36.7672 40.4604 37.3192 40.9562 37.9478C41.5832 38.7605 42.2831 39.6804 43.0413 40.6923Z" fill="white"/>
<path d="M57.8836 43.6816C57.417 44.2489 56.9504 44.8316 56.4547 45.4295C56.4255 45.4602 56.3964 45.5062 56.3526 45.5369L55.6965 46.3188C55.0695 47.0701 54.4425 47.7907 53.801 48.496C53.4219 48.266 53.0136 48.0667 52.5908 47.9134C52.3429 47.8214 52.1679 47.7294 52.0367 47.6221C51.8034 47.4381 51.643 47.2848 51.5118 47.1161C51.3806 46.9628 51.2785 46.8095 51.2056 46.6715C51.1618 46.5948 51.1327 46.5335 51.1035 46.4721C51.8034 46.2575 52.3575 46.0275 52.7366 45.8742C53.1302 45.6902 53.4656 45.5215 53.7718 45.3375C54.6904 44.8316 55.3611 44.3563 56.5422 43.9883C57.1254 43.8043 57.592 43.7123 57.8836 43.6816Z" fill="white"/>
<path d="M46.1167 50.168C46.1167 50.444 46.0875 50.7506 46.0146 51.0572V50.8733L46.0438 50.6739C46.0438 50.6739 46.0438 50.5359 46.0584 50.4899C46.073 50.3826 46.1021 50.2753 46.1167 50.168Z" fill="white"/>
<path d="M56.4694 57.941C56.411 58.1709 56.2506 58.3703 56.0465 58.4929C55.9153 58.5696 55.7695 58.6156 55.5216 58.6309H55.507C55.507 58.6309 55.3321 58.6462 55.23 58.6462H55.0696C54.4135 58.6309 53.8594 58.5236 53.3491 58.4163C53.2762 58.4009 53.1741 58.3856 53.0866 58.3549C53.0574 58.3396 53.0137 58.3396 52.9845 58.3243C52.0368 58.0943 51.1328 57.665 50.36 57.0363C50.1996 56.9137 50.0392 56.791 49.8788 56.653C49.7184 56.4997 49.5435 56.3464 49.3685 56.1624C49.2664 55.8251 49.1498 55.5031 49.0186 55.1811C48.9602 55.0585 48.9165 54.9205 48.8436 54.7978C48.4353 53.8625 47.8958 52.9733 47.2543 52.176C47.2397 52.1453 47.2105 52.13 47.1959 52.0993C47.1668 52.0686 47.1522 52.038 47.123 52.0226C47.3855 51.2714 47.4584 50.5047 47.4584 49.8914C47.4584 49.6768 47.4438 49.4775 47.4292 49.3088C47.8083 48.4962 48.1583 47.6836 48.5374 46.871C48.6395 46.6716 48.7269 46.4723 48.829 46.2577C48.9165 46.089 48.9748 45.8744 48.9748 45.675V45.6444C48.9748 45.5064 48.9602 45.2457 48.8436 44.9544V44.9237C48.7998 44.7857 48.7269 44.6478 48.6249 44.5098H48.7124C48.9165 44.5558 49.0769 44.7091 49.106 44.8931C49.106 44.9237 49.106 44.9544 49.106 44.9697H48.9602C48.9602 44.9697 49.0477 44.9851 49.106 44.9851V45.0157C49.106 45.0157 49.106 45.0617 49.1206 45.0771C49.1206 45.1384 49.1352 45.2304 49.1498 45.3224C49.1644 45.4297 49.1935 45.537 49.2227 45.6597C49.2227 45.6597 49.2227 45.6597 49.2373 45.6597C49.2664 45.7364 49.2956 45.7824 49.3248 45.8743C49.3539 45.951 49.3831 46.0123 49.4268 46.089C49.4268 46.1043 49.4414 46.135 49.456 46.1503C49.5726 46.3343 49.6601 46.549 49.7476 46.7636C49.7476 46.779 49.7622 46.779 49.7622 46.7943C49.9226 47.1469 50.1267 47.5609 50.4766 47.9749C50.7099 48.2815 50.9724 48.5115 51.2057 48.6955C51.4827 48.9255 51.8035 49.0788 52.1243 49.2015C52.2263 49.2321 52.343 49.2935 52.4742 49.3395C52.5909 49.4008 52.7221 49.4621 52.8533 49.5388C52.9991 49.6155 53.1449 49.6921 53.2907 49.7994C53.4365 49.8914 53.5824 49.9988 53.7427 50.1214C53.8448 50.1828 53.9323 50.2594 54.0344 50.3514C54.3114 50.5967 54.603 50.888 54.8655 51.2407V51.2714C55.2154 51.7313 55.4779 52.2373 55.6674 52.7586C55.7841 53.0806 55.8715 53.4179 55.9153 53.7552C55.959 53.9392 55.9882 54.1385 56.0028 54.3378C56.0028 54.5678 56.0319 54.7825 56.0465 55.0125C56.0903 55.5491 56.134 56.0857 56.1632 56.6224C56.1632 56.6377 56.1632 56.653 56.1777 56.6684C56.1777 56.7604 56.2069 56.837 56.2506 56.9137L56.3673 57.1283C56.5131 57.389 56.5277 57.6803 56.4402 57.9256L56.4694 57.941Z" fill="white"/>
<path d="M49.1208 44.9707C49.1208 44.9707 49.0178 44.9861 48.9736 44.9707H49.1208Z" fill="white"/>
<path d="M47.6498 45.629C47.4456 46.1043 47.2269 46.549 47.0228 46.9936C46.7457 47.5762 46.4833 48.1589 46.2208 48.7415C46.1334 48.9408 46.0896 49.1555 46.1042 49.3548C46.1042 49.5388 46.1334 49.7688 46.1334 50.0294C46.1334 50.0754 46.1334 50.1214 46.1188 50.1674C46.1188 50.2747 46.075 50.3821 46.0605 50.4894C46.0459 50.5354 46.0459 50.6274 46.0459 50.6734L46.0167 50.8727V51.0874C45.973 51.2713 45.9146 51.4553 45.8417 51.6547C45.6814 51.6853 45.5355 51.762 45.4043 51.8693C45.3022 51.946 45.2002 52.038 45.1273 52.1453L44.6753 52.7586C44.6753 52.7586 44.6169 52.8506 44.6024 52.8966C44.5149 53.0192 44.4566 53.1572 44.442 53.3106V53.3412C44.1795 53.4792 43.8879 53.5559 43.5817 53.5559C43.5088 53.5559 43.4067 53.5405 43.3193 53.5252C43.1297 53.4945 42.9693 53.4332 42.8235 53.3719C42.6631 53.2952 42.5319 53.2032 42.4298 53.1112C42.4298 52.7739 42.3132 52.4519 42.0799 52.1606C41.8612 51.9 41.5696 51.5167 41.3508 50.9647C41.2925 50.8114 41.2634 50.6734 41.2196 50.5507C41.1613 50.2901 41.1176 50.0601 41.103 49.8914C41.0738 49.6001 41.1467 49.3395 41.3071 49.0941C41.5841 48.6955 41.9049 48.3889 42.2694 48.1895C42.3569 48.1435 42.4152 48.1129 42.4881 48.0822C42.7506 47.9595 42.9839 47.7756 43.1734 47.5609C43.2318 47.4689 43.3047 47.3769 43.3484 47.2849L43.4359 47.1469C43.6546 46.9936 43.8879 46.8403 44.1212 46.7023C45.0981 46.1043 46.0167 45.629 46.8332 45.2457C46.9207 45.1997 47.0082 45.1537 47.0957 45.123H47.154C47.154 45.123 47.3873 45.1384 47.5185 45.261C47.5623 45.307 47.5914 45.3684 47.606 45.4144C47.6206 45.4604 47.6352 45.5064 47.6352 45.537C47.6498 45.583 47.6498 45.6137 47.6498 45.629Z" fill="white"/>
<path d="M46.1196 50.168C46.1196 50.444 46.0905 50.7506 46.0176 51.0572V50.8733L46.0467 50.6739C46.0467 50.6739 46.0467 50.5359 46.0613 50.4899C46.0759 50.3826 46.105 50.2753 46.1196 50.168Z" fill="white"/>
<path d="M42.3413 46.1186V46.2259H42.3267C42.3121 46.4252 42.2392 46.5939 42.108 46.7012C42.0496 46.7472 41.9913 46.7779 41.933 46.8086C41.8601 46.8546 41.7872 46.8852 41.6997 46.9312C41.4227 47.0845 41.1748 47.2685 40.9561 47.4679C40.6499 47.7285 40.402 48.0198 40.2125 48.3111C39.8771 48.8171 39.7313 49.4151 39.7896 50.0284C39.8042 50.2277 39.8479 50.4423 39.9063 50.6877C39.95 50.933 40.0229 51.209 40.125 51.4849C40.402 52.2056 40.7811 52.7115 41.0581 53.0488C41.1311 53.1408 41.1456 53.2328 41.0727 53.2942C41.029 53.3402 40.9998 53.4015 40.9415 53.4628C40.8249 53.6161 40.6936 53.8001 40.5332 53.9841C39.7167 54.9501 38.4482 56.192 36.611 57.1733C34.5405 58.2619 32.645 58.5685 31.4785 58.6299H31.464C31.3473 58.6299 31.2744 58.5379 31.2744 58.4152C31.3182 57.8786 31.3911 57.1886 31.5369 56.3913C31.7847 54.9807 32.2805 53.2328 33.1991 51.393C33.3595 51.071 33.5344 50.7337 33.724 50.4117C34.2781 49.4611 34.8759 48.6331 35.5029 47.8972C37.063 46.0266 38.7106 44.8767 39.7605 44.248L40.3145 44.2787H40.4458L41.4664 45.076C41.5393 45.1373 41.6268 45.1833 41.6997 45.2293C41.7289 45.2447 41.7434 45.26 41.7726 45.26C41.7726 45.26 41.933 45.352 42.0205 45.3826C42.0351 45.3826 42.0642 45.4133 42.0788 45.4133C42.21 45.444 42.3121 45.5666 42.3267 45.72C42.3413 45.8426 42.3413 45.9806 42.3413 46.1186Z" fill="white"/>
<path d="M40.4458 44.2938H40.3147L39.7607 44.248C39.8482 44.187 39.9357 44.1411 40.0085 44.0953H40.0377C40.0377 44.0953 40.0669 44.0801 40.096 44.0801C40.1252 44.0801 40.1689 44.0953 40.198 44.1106L40.4458 44.2938Z" fill="white"/>
<path d="M48.2026 58.186C48.2026 58.186 48.1589 58.2013 48.1297 58.2013C47.9839 58.2013 47.7944 58.0173 47.7507 57.956C47.6924 57.8946 47.6487 57.818 47.5904 57.7413C47.2697 57.312 46.949 56.7907 46.6429 56.1774C46.5408 55.9628 46.4388 55.7634 46.3513 55.5488C46.1035 54.9968 45.9286 54.4755 45.812 54.0156C45.7683 53.8929 45.7391 53.7856 45.71 53.6782C45.7245 53.6476 45.7245 53.6322 45.7245 53.6016L45.8412 53.4329L46.1764 52.9883H46.191C46.2785 53.0956 46.3513 53.2029 46.4388 53.3103C46.5554 53.4636 46.672 53.6322 46.7886 53.8162C46.9636 54.0769 47.1239 54.3529 47.2843 54.6595C47.2843 54.6595 47.2843 54.6748 47.2843 54.6902C47.3863 54.8435 47.4592 55.0122 47.5466 55.1808C47.6341 55.3495 47.7216 55.5335 47.7944 55.7328C47.9985 56.2234 48.1443 56.6834 48.2609 57.1127C48.2755 57.1587 48.29 57.2047 48.29 57.2507C48.3046 57.2967 48.3046 57.3427 48.3046 57.3887C48.3629 57.818 48.3192 58.1093 48.188 58.186H48.2026Z" fill="white"/>
</svg>
