<?xml version="1.0" standalone="no"?>
<!DOCTYPE svg PUBLIC "-//W3C//DTD SVG 20010904//EN"
 "http://www.w3.org/TR/2001/REC-SVG-20010904/DTD/svg10.dtd">
<svg version="1.0" xmlns="http://www.w3.org/2000/svg"
 width="960.000000pt" height="960.000000pt" viewBox="0 0 960.000000 960.000000"
 preserveAspectRatio="xMidYMid meet">
<metadata>
Created by potrace 1.14, written by Peter Selinger 2001-2017
</metadata>
<g transform="translate(0.000000,960.000000) scale(0.100000,-0.100000)"
fill="#000000" stroke="none">
<path d="M3194 8635 c0 -142 2 -165 15 -165 19 -1 2967 -1 3102 0 l95 0 0 165
0 165 -1606 0 -1606 0 0 -165z"/>
<path d="M4768 8370 c-18 -9 -125 -70 -237 -134 -112 -64 -208 -116 -212 -116
-5 0 -9 -4 -9 -8 0 -4 -12 -13 -27 -19 -16 -7 -35 -17 -43 -23 -16 -10 -825
-470 -918 -521 -28 -16 -69 -40 -90 -53 l-38 -23 2 -184 c1 -101 2 -185 3
-187 0 -2 14 6 30 17 16 12 32 21 35 21 3 0 27 13 54 29 26 15 70 41 98 56 76
43 167 95 184 105 78 47 265 151 274 153 6 1 13 5 16 9 3 3 34 23 70 43 78 45
351 199 400 227 19 11 53 30 75 41 22 12 42 24 45 27 3 3 21 13 40 24 19 10
49 26 65 36 17 9 50 28 75 42 25 14 66 38 92 52 56 32 9 52 377 -158 150 -86
277 -156 282 -156 5 0 9 -4 9 -10 0 -5 4 -10 9 -10 8 0 598 -332 641 -360 8
-6 22 -13 30 -17 8 -4 68 -38 133 -75 66 -37 122 -68 127 -68 4 0 13 -7 20
-15 7 -9 16 -13 19 -9 3 3 6 87 7 186 l1 180 -36 22 c-38 24 -126 75 -326 187
-33 18 -61 37 -63 41 -2 4 -9 8 -16 8 -7 0 -29 11 -49 24 -19 13 -38 22 -41
18 -3 -3 -6 0 -6 6 0 7 -4 12 -9 12 -5 0 -36 15 -68 34 -62 36 -657 376 -733
418 -25 14 -93 52 -152 86 l-106 60 -34 -18z"/>
<path d="M3416 6910 c-49 -28 -93 -50 -98 -50 -4 0 -8 -3 -8 -8 0 -4 -15 -13
-32 -21 -18 -8 -35 -17 -38 -20 -3 -3 -14 -11 -25 -17 -20 -11 -20 -21 -19
-540 0 -291 3 -549 7 -574 4 -25 9 -70 13 -100 4 -30 10 -65 15 -77 5 -13 7
-23 4 -23 -2 0 2 -18 10 -40 8 -22 11 -40 8 -40 -4 0 -2 -5 5 -12 7 -7 12 -20
12 -29 0 -9 7 -33 15 -53 8 -20 15 -37 14 -38 -6 -17 171 -341 201 -368 3 -3
21 -25 39 -50 42 -55 246 -260 259 -260 6 0 12 -4 14 -8 4 -12 153 -114 218
-150 53 -29 240 -112 264 -116 6 -2 31 -8 56 -15 52 -15 52 -15 145 -35 93
-20 179 -28 300 -29 95 0 242 10 255 18 4 2 29 7 56 11 27 3 52 8 57 11 4 2
19 6 33 9 44 8 198 62 266 92 142 65 316 183 427 286 56 54 172 183 206 231
11 16 26 34 33 42 7 7 11 13 7 13 -3 0 4 15 17 33 39 55 96 163 141 267 16 38
65 195 72 232 3 13 9 46 15 73 21 107 23 167 25 688 l1 538 -27 20 c-15 10
-31 19 -37 19 -5 0 -21 9 -36 21 -14 11 -26 17 -26 12 0 -4 -4 -3 -8 2 -7 10
-14 15 -116 71 l-62 34 -1 -598 c-1 -555 -3 -662 -18 -734 -3 -16 -7 -39 -9
-53 -3 -14 -13 -52 -22 -83 -10 -31 -18 -59 -19 -62 -14 -64 -90 -215 -160
-319 -60 -89 -197 -231 -294 -305 -40 -31 -77 -56 -81 -56 -5 0 -15 -6 -22
-13 -11 -11 -184 -100 -198 -102 -3 -1 -43 -13 -90 -27 -143 -45 -203 -53
-385 -53 -178 1 -250 11 -394 57 -127 40 -308 138 -410 222 -36 29 -171 165
-199 199 -96 118 -217 352 -235 452 -2 11 -9 38 -15 60 -32 117 -34 171 -35
818 0 328 -1 597 -1 597 -1 0 -41 -23 -90 -50z"/>
<path d="M4517 5505 c-113 -29 -176 -135 -164 -276 11 -132 108 -222 227 -213
44 3 110 25 110 36 0 4 6 8 13 8 15 0 50 51 72 104 28 65 21 165 -16 238 -17
34 -76 89 -103 95 -70 17 -98 19 -139 8z m98 -125 c54 -44 57 -178 6 -224 -42
-38 -101 -22 -122 32 -17 43 -18 118 -2 149 28 56 80 75 118 43z"/>
<path d="M4034 5498 c-3 -4 -9 -6 -13 -4 -4 3 -30 -15 -57 -39 l-49 -44 25
-21 c66 -55 68 -56 100 -25 51 49 125 30 115 -28 -4 -22 -78 -96 -125 -126
-14 -8 -46 -33 -71 -53 -43 -36 -46 -41 -45 -86 l1 -47 190 0 190 0 1 40 c0
72 3 70 -96 67 -50 -1 -90 1 -90 5 0 4 19 19 41 33 124 76 166 168 119 259
-27 54 -88 83 -170 80 -33 -1 -63 -6 -66 -11z"/>
<path d="M4947 5496 c-21 -8 -54 -30 -73 -50 l-35 -36 41 -35 c23 -19 45 -35
48 -35 4 1 22 14 41 30 70 59 144 0 88 -71 -6 -9 -42 -39 -79 -67 -38 -28 -74
-56 -80 -62 -7 -5 -23 -18 -36 -28 -19 -14 -24 -28 -25 -67 l-2 -50 190 0 190
0 1 53 c1 59 10 55 -116 53 l-75 -2 35 30 c19 17 38 30 43 31 14 0 88 81 97
106 23 61 8 129 -40 176 -38 37 -142 49 -213 24z"/>
<path d="M5452 5462 c-20 -26 -40 -49 -43 -52 -5 -4 -93 -110 -124 -148 -5 -7
-18 -21 -28 -32 -17 -16 -18 -22 -5 -66 l13 -48 115 -1 115 0 1 -30 c3 -65 -1
-62 67 -61 l63 0 0 46 c-1 43 0 45 27 44 31 0 29 -3 32 53 2 34 -2 44 -16 48
-11 4 -23 3 -29 0 -13 -8 -12 -14 -14 150 l-1 140 -68 2 -67 1 -38 -46z m44
-177 c0 -36 -2 -65 -5 -66 -3 -1 -29 -2 -58 -3 -46 -1 -51 0 -39 14 7 8 32 39
56 68 24 28 44 52 44 52 1 0 2 -29 2 -65z"/>
<path d="M32 3542 l-32 -3 0 -583 0 -582 128 0 127 1 1 245 c1 135 2 251 3
258 2 19 -3 24 241 -262 14 -16 34 -39 45 -50 11 -12 42 -48 70 -81 101 -121
73 -109 255 -110 104 0 160 3 160 10 0 5 -23 35 -50 65 -28 30 -78 86 -113
124 -34 38 -69 77 -77 86 -8 9 -44 49 -80 90 -36 41 -75 86 -88 100 -127 138
-119 123 -80 166 55 61 85 94 217 233 69 73 158 168 198 209 39 42 70 78 68
80 -2 2 -73 4 -158 4 l-155 0 -33 -37 c-18 -20 -44 -49 -58 -65 -14 -15 -51
-56 -81 -90 -30 -34 -68 -77 -85 -95 -98 -108 -161 -179 -168 -191 -4 -8 -13
-14 -20 -14 -9 0 -12 61 -11 245 l0 245 -35 1 c-20 0 -63 1 -96 2 -33 1 -75 1
-93 -1z"/>
<path d="M1585 3542 l-40 -3 -98 -252 c-54 -139 -100 -256 -101 -262 -3 -11
-22 -60 -35 -90 -12 -28 -32 -79 -96 -245 -31 -80 -60 -154 -64 -165 -36 -85
-60 -145 -58 -146 1 -1 64 -3 139 -4 l137 -2 25 61 c41 103 51 131 48 139 -2
8 -9 8 262 9 191 0 211 -2 223 -18 7 -10 13 -23 13 -29 0 -5 13 -44 29 -85
l28 -75 142 -1 c79 -1 141 3 141 8 0 8 -16 49 -112 288 -17 41 -33 80 -37 85
-3 6 -6 12 -6 15 0 4 -62 160 -85 215 -42 98 -50 119 -50 131 0 8 -5 14 -12
14 -6 0 -9 2 -6 5 3 3 -32 96 -77 207 l-82 201 -94 1 c-52 0 -112 0 -134 -2z
m145 -432 c23 -63 45 -124 50 -135 5 -11 22 -59 38 -106 l28 -86 -160 1 c-137
1 -161 3 -158 16 4 20 91 260 103 285 6 12 11 27 13 35 2 8 6 24 10 35 5 11
13 33 18 48 6 15 12 26 14 25 2 -2 21 -55 44 -118z"/>
<path d="M2508 3542 c-21 -2 -38 -6 -39 -10 0 -9 0 -1099 0 -1133 l1 -26 127
1 128 1 1 225 c1 124 2 225 3 226 0 1 103 -101 227 -226 l225 -227 155 1 c85
0 154 2 154 3 0 1 -95 97 -211 213 -117 115 -210 210 -208 211 2 0 25 2 51 3
25 2 59 7 75 11 15 5 34 9 41 11 22 4 96 52 129 83 56 54 97 160 96 250 -3
195 -107 326 -293 368 -56 13 -553 24 -662 15z m602 -247 c59 -30 81 -68 85
-143 3 -63 -25 -117 -75 -146 -31 -18 -55 -21 -212 -23 -98 -2 -179 0 -179 4
-6 37 -3 319 3 323 4 3 83 5 175 4 140 -1 174 -4 203 -19z"/>
<path d="M4052 3539 c-10 -4 -33 -48 -55 -105 -21 -55 -43 -108 -47 -119 -5
-11 -37 -92 -71 -180 -33 -88 -65 -169 -70 -180 -4 -11 -37 -94 -72 -185 -36
-91 -83 -213 -106 -271 -22 -58 -41 -110 -41 -115 0 -7 51 -10 137 -10 l136 1
36 95 c20 52 39 100 43 105 8 13 455 12 468 -1 5 -5 24 -52 42 -104 l34 -95
142 0 c100 -1 142 3 142 10 0 11 -63 168 -97 244 -8 18 -16 39 -17 45 -1 6
-10 29 -20 51 -10 22 -24 58 -33 80 -8 22 -21 54 -28 70 -7 17 -32 77 -55 135
-23 58 -48 121 -57 140 -8 19 -19 44 -23 55 -4 11 -33 81 -63 155 -30 74 -58
145 -62 158 -3 12 -12 22 -18 23 -79 4 -232 3 -245 -2z m202 -521 c42 -113 76
-212 76 -220 0 -12 -28 -14 -155 -14 -109 -1 -155 3 -155 11 0 6 14 49 31 96
17 46 32 89 34 94 1 6 5 19 9 30 9 24 37 101 62 168 9 26 18 46 20 44 1 -1 37
-95 78 -209z"/>
<path d="M4993 3542 c-28 -3 -33 -7 -34 -30 -1 -32 -1 -1112 0 -1128 1 -16
651 -11 711 5 95 27 158 74 204 154 32 54 40 88 39 174 -1 103 -64 209 -144
245 -29 13 -39 28 -18 28 5 0 30 20 53 44 87 87 102 231 38 346 -28 50 -32 55
-83 93 -45 34 -109 57 -178 64 -59 6 -537 10 -588 5z m568 -225 c57 -38 73
-140 32 -196 -37 -49 -72 -58 -233 -58 l-147 -1 1 140 1 140 160 -4 c134 -2
164 -6 186 -21z m-126 -440 c121 -3 159 -17 188 -66 49 -83 4 -211 -78 -224
-11 -1 -24 -5 -30 -8 -5 -3 -75 -5 -155 -5 l-145 1 -1 152 0 151 39 0 c21 1
41 3 44 6 3 2 10 3 16 0 7 -2 62 -6 122 -7z"/>
<path d="M6511 3540 c-32 -5 -35 -9 -76 -113 -24 -59 -44 -109 -44 -110 0 -1
-4 -13 -9 -27 -6 -14 -31 -79 -56 -145 -26 -66 -51 -129 -56 -140 -5 -11 -32
-81 -60 -155 -29 -74 -56 -144 -61 -155 -4 -11 -24 -60 -43 -110 -19 -49 -40
-103 -47 -120 -7 -16 -13 -34 -15 -40 -2 -5 -6 -19 -9 -30 -6 -20 -3 -21 132
-21 l139 0 33 91 c18 49 34 96 36 103 3 6 19 12 37 13 163 2 440 0 444 -3 2
-3 6 -14 9 -24 2 -11 10 -35 18 -54 7 -19 21 -56 31 -81 l16 -45 140 0 c98 0
140 3 140 11 0 9 -29 88 -75 200 -5 11 -9 22 -10 25 -1 3 -7 19 -14 35 -25 56
-60 144 -251 618 -60 148 -110 270 -112 273 -7 6 -199 10 -237 4z m119 -336
c0 -8 4 -22 10 -32 5 -9 28 -71 51 -137 22 -66 47 -133 54 -150 7 -16 17 -46
23 -66 l10 -36 -163 1 -163 0 10 26 c6 14 30 81 54 150 24 69 48 134 53 145 5
11 17 43 27 72 16 48 34 62 34 27z"/>
<path d="M7408 3539 c-6 -4 -9 -27 -7 -53 2 -25 2 -46 -2 -46 -3 0 -3 -15 -1
-32 2 -18 3 -44 3 -58 -1 -66 0 -139 2 -183 1 -26 -1 -47 -4 -47 -3 0 -3 -15
-1 -32 2 -18 3 -44 3 -58 -1 -112 -1 -133 3 -139 3 -4 1 -13 -4 -20 -4 -8 -4
-27 0 -42 5 -16 5 -29 1 -29 -4 0 -5 -15 -3 -32 2 -18 3 -44 3 -58 -1 -66 0
-139 2 -183 1 -26 -1 -47 -4 -47 -5 0 -4 -12 4 -85 2 -19 10 -20 124 -21 105
-1 123 1 127 15 2 9 4 123 3 254 -1 132 1 241 4 243 4 2 24 -17 45 -43 22 -26
46 -55 54 -64 8 -8 40 -44 70 -80 30 -35 62 -73 72 -84 10 -11 29 -33 43 -50
26 -30 84 -97 137 -158 l26 -31 165 -1 c184 -1 179 -3 115 66 -47 50 -113 124
-183 203 -33 38 -69 78 -80 90 -11 12 -48 54 -81 92 -34 38 -78 87 -98 109
-19 22 -36 42 -36 45 0 3 39 46 86 95 76 80 155 164 371 394 34 36 60 67 58
69 -2 2 -73 4 -159 4 l-155 -1 -38 -42 c-21 -23 -42 -47 -48 -53 -5 -6 -46
-52 -90 -101 -119 -134 -145 -163 -197 -219 -26 -28 -48 -54 -48 -58 0 -4 -8
-12 -17 -17 -17 -8 -18 6 -17 240 l1 249 -26 1 c-147 4 -215 3 -223 -2z"/>
<path d="M8630 3542 l-35 -3 2 -557 c1 -306 2 -569 2 -583 l1 -25 127 0 128 1
1 240 c1 132 2 242 3 245 0 3 107 5 237 5 227 0 237 -1 244 -20 3 -11 6 -117
5 -235 -1 -118 0 -220 2 -226 2 -6 48 -10 126 -10 l122 1 3 583 c2 549 1 582
-15 583 -67 4 -225 0 -231 -6 -4 -4 -7 -109 -7 -233 l0 -227 -240 -2 c-132 -1
-242 2 -245 7 -3 5 -5 110 -5 234 0 125 -2 226 -5 227 -19 2 -192 3 -220 1z"/>
<path d="M6518 1935 c-1 -1 -30 -5 -63 -8 -106 -10 -194 -50 -263 -118 -30
-29 -63 -80 -62 -94 0 -3 -6 -20 -13 -38 -23 -55 -4 -237 24 -237 5 0 9 -5 9
-12 0 -24 114 -110 145 -108 3 0 18 -6 33 -13 25 -13 44 -18 137 -33 17 -3 57
-10 90 -15 96 -16 140 -36 157 -72 43 -91 -27 -168 -156 -173 -101 -3 -173 33
-201 100 l-15 36 -120 0 c-78 0 -120 -4 -120 -11 0 -61 51 -164 102 -207 17
-14 35 -30 42 -36 16 -16 96 -52 131 -61 64 -15 83 -17 165 -19 246 -6 427
128 435 323 7 177 -103 304 -290 335 -16 3 -47 8 -69 11 -21 4 -46 8 -55 10
-9 1 -36 6 -60 10 -58 10 -102 29 -125 54 -21 24 -24 89 -5 120 19 30 84 55
148 56 91 2 179 -53 184 -115 2 -26 5 -26 132 -25 l110 1 -2 42 c-5 125 -122
245 -273 279 -8 2 -40 6 -70 9 -30 3 -60 7 -67 9 -6 2 -13 2 -15 0z"/>
<path d="M2 1516 c4 -447 4 -446 76 -541 78 -104 205 -159 367 -158 125 0 179
12 264 59 99 53 170 158 186 272 5 41 9 472 6 727 l-1 41 -119 0 -119 1 -1
-58 c-1 -33 -2 -65 -2 -71 -1 -7 0 -33 0 -58 0 -25 0 -52 0 -60 0 -8 0 -35 0
-60 0 -25 0 -52 0 -60 0 -8 0 -35 0 -60 0 -25 0 -52 0 -60 0 -8 0 -35 0 -60 4
-103 -4 -206 -16 -230 -35 -69 -94 -106 -175 -109 -129 -5 -213 58 -224 167
-8 75 -8 167 -1 179 4 7 3 14 -1 17 -5 3 -6 26 -2 50 4 25 3 51 -1 58 -4 6 -4
19 1 29 5 9 7 19 4 21 -7 8 -10 108 -2 108 4 0 3 12 0 28 -4 15 -5 50 -2 77 3
28 2 64 -1 82 -4 18 -3 33 2 35 5 2 4 10 -1 18 -7 12 -34 15 -125 16 l-116 2
3 -402z"/>
<path d="M1149 1911 c-5 -26 -3 -1065 2 -1073 6 -9 30 -10 187 -9 l47 1 0 340
c0 187 2 340 5 340 3 0 79 -112 170 -247 91 -136 170 -253 175 -259 6 -6 21
-30 35 -53 14 -23 35 -54 47 -69 13 -15 23 -33 23 -39 0 -14 62 -17 223 -14
l33 1 0 543 0 544 -120 0 -121 1 1 -343 c0 -243 -3 -339 -10 -331 -16 17 -37
47 -216 316 -90 135 -167 247 -172 248 -4 2 -8 8 -8 12 0 13 -49 84 -63 91
-16 8 -237 8 -238 0z"/>
<path d="M2353 1373 l0 -543 36 -1 c79 -2 195 1 199 5 2 3 4 247 4 543 l1 538
-120 1 -120 1 0 -544z"/>
<path d="M2730 1913 c0 -5 58 -142 110 -258 10 -22 32 -74 50 -115 18 -41 47
-108 66 -148 19 -41 34 -77 34 -81 0 -4 11 -29 24 -57 13 -27 38 -83 56 -124
18 -41 38 -88 46 -105 7 -16 29 -66 48 -110 l35 -80 43 -5 c24 -3 75 -4 113
-2 66 3 72 5 82 30 68 158 145 333 208 477 10 22 19 42 20 45 1 3 7 18 14 35
13 31 19 44 70 158 17 38 31 70 31 72 0 3 12 30 26 62 15 32 41 92 59 134 l33
76 -133 -1 c-73 -1 -135 -3 -137 -6 -2 -3 -22 -52 -45 -110 -23 -58 -47 -118
-54 -135 -7 -16 -13 -32 -14 -35 -5 -15 -27 -68 -35 -85 -5 -11 -23 -56 -41
-100 -17 -44 -37 -93 -44 -110 -7 -16 -29 -69 -48 -118 l-34 -87 -25 57 c-14
32 -47 112 -73 178 -25 66 -51 128 -56 139 -6 10 -12 26 -14 35 -2 9 -11 34
-21 56 -10 22 -18 42 -19 45 -1 3 -5 14 -10 25 -4 11 -29 72 -54 135 l-47 116
-132 1 c-73 1 -132 -1 -132 -4z"/>
<path d="M4035 1911 c-3 -2 -5 -247 -5 -543 0 -505 1 -538 18 -539 16 0 693 0
740 1 21 0 22 3 22 103 l0 104 -252 1 c-139 0 -261 1 -270 1 -16 1 -18 13 -18
116 0 102 2 115 18 116 9 1 121 1 247 1 l231 1 0 98 0 99 -249 0 -248 0 2 119
1 120 242 0 c132 0 253 0 269 0 l27 1 0 103 0 103 -385 0 c-212 0 -388 -2
-390 -5z"/>
<path d="M5030 1876 c-2 -432 0 -1039 4 -1043 4 -4 134 -6 212 -4 21 1 21 5
22 184 0 100 1 195 1 211 1 27 18 13 214 -183 l212 -213 130 0 c72 1 137 1
145 2 8 0 -75 90 -185 200 l-200 200 48 1 c26 1 50 2 55 4 4 1 21 5 37 10 17
4 39 13 50 19 11 5 23 10 27 11 15 0 89 79 113 119 28 48 33 67 39 149 8 109
-26 203 -98 271 -39 37 -135 91 -144 81 -3 -2 -14 1 -26 7 -15 9 -118 13 -338
14 l-318 2 0 -42z m578 -180 c17 -4 32 -12 32 -17 0 -5 6 -9 14 -9 8 0 24 -20
36 -45 18 -37 21 -56 16 -98 -4 -28 -11 -53 -16 -55 -6 -2 -10 -9 -10 -16 0
-12 -52 -47 -80 -54 -28 -7 -311 -8 -322 -1 -9 6 -15 210 -9 294 1 13 288 13
339 1z"/>
<path d="M7180 1373 l0 -543 65 -1 c36 0 79 -1 95 -1 17 0 41 1 55 1 l25 1 -2
543 -3 542 -117 1 -118 1 0 -544z"/>
<path d="M7589 1911 c-1 -3 -2 -50 -3 -103 l-1 -97 105 0 c58 0 128 0 157 0
l51 -1 0 -435 c-1 -240 1 -438 4 -440 5 -6 65 -8 171 -6 l67 1 0 440 0 440 28
1 c15 0 85 0 155 0 l128 0 -3 102 -3 102 -427 1 c-236 0 -429 -2 -429 -5z"/>
<path d="M8530 1904 c0 -8 5 -14 10 -14 6 0 10 -6 10 -14 0 -8 4 -16 8 -18 4
-1 27 -34 51 -73 24 -38 48 -71 53 -73 4 -2 8 -7 8 -12 0 -5 59 -97 131 -205
71 -108 133 -206 137 -218 4 -12 7 -118 6 -234 -1 -148 2 -213 10 -213 55 -3
219 0 222 3 2 2 4 104 4 226 l1 223 202 306 c112 169 206 312 209 318 5 8 -33
11 -129 10 l-137 -1 -73 -115 c-40 -63 -80 -129 -89 -147 -9 -18 -22 -37 -30
-44 -8 -6 -14 -18 -14 -25 0 -8 -4 -14 -8 -14 -5 0 -16 -16 -25 -35 -9 -19
-20 -35 -25 -35 -4 0 -23 26 -42 58 -19 31 -38 59 -42 60 -5 2 -8 8 -8 13 0 6
-25 48 -55 94 -30 47 -55 87 -55 89 0 2 -15 26 -32 53 l-33 49 -132 1 c-108 1
-133 -2 -133 -13z"/>
</g>
</svg>
