<?xml version="1.0" standalone="no"?>
<!DOCTYPE svg PUBLIC "-//W3C//DTD SVG 20010904//EN"
 "http://www.w3.org/TR/2001/REC-SVG-20010904/DTD/svg10.dtd">
<svg version="1.0" xmlns="http://www.w3.org/2000/svg"
 width="976.000000pt" height="976.000000pt" viewBox="0 0 976.000000 976.000000"
 preserveAspectRatio="xMidYMid meet">
<metadata>
Created by potrace 1.14, written by Peter Selinger 2001-2017
</metadata>
<g transform="translate(0.000000,976.000000) scale(0.100000,-0.100000)"
fill="#000000" stroke="none">
<path d="M4589 9756 c-2 -2 -47 -7 -99 -10 -52 -3 -106 -8 -120 -11 -14 -2
-45 -7 -70 -9 -52 -6 -124 -16 -160 -22 -14 -2 -43 -7 -65 -10 -22 -3 -47 -8
-55 -10 -8 -3 -30 -8 -49 -10 -18 -3 -81 -16 -139 -30 -57 -15 -111 -27 -118
-28 -7 -1 -17 -5 -20 -9 -4 -4 -15 -7 -25 -7 -10 0 -89 -23 -176 -52 -87 -28
-160 -52 -163 -53 -3 -1 -14 -5 -25 -10 -100 -41 -134 -52 -139 -47 -3 3 -6 0
-6 -6 0 -7 -8 -12 -18 -12 -10 0 -22 -4 -27 -8 -6 -5 -29 -16 -52 -25 -57 -22
-274 -129 -358 -177 -38 -22 -77 -43 -85 -46 -23 -10 -236 -143 -282 -177 -10
-6 -41 -28 -69 -47 -50 -34 -279 -209 -289 -220 -3 -3 -34 -30 -70 -60 -158
-134 -392 -367 -515 -515 -22 -26 -44 -53 -50 -59 -5 -6 -35 -42 -66 -81 -203
-255 -390 -547 -537 -840 -75 -150 -182 -386 -188 -415 0 -3 -6 -18 -13 -35
-22 -55 -65 -170 -66 -175 -1 -8 -65 -213 -75 -240 -25 -67 -111 -446 -135
-595 -12 -77 -16 -103 -20 -145 -5 -50 -12 -104 -19 -165 -28 -216 -28 -857
-1 -1016 2 -13 6 -51 10 -84 3 -33 8 -78 11 -100 3 -22 7 -56 9 -75 2 -19 4
-35 5 -35 1 0 3 -9 4 -20 3 -23 13 -78 21 -115 2 -14 7 -38 11 -55 11 -58 55
-260 58 -270 7 -21 35 -124 41 -146 24 -104 137 -420 220 -614 61 -141 207
-429 281 -550 36 -60 71 -119 78 -130 35 -62 262 -383 286 -405 3 -3 34 -41
70 -85 167 -206 435 -479 600 -612 19 -15 42 -35 50 -43 8 -8 25 -22 36 -30
57 -40 219 -166 222 -172 2 -5 9 -8 15 -8 7 0 24 -11 39 -25 15 -14 30 -25 33
-25 3 0 27 -15 53 -33 68 -48 232 -146 337 -202 50 -26 95 -51 100 -55 35 -25
444 -204 490 -215 6 -1 21 -7 35 -12 33 -14 233 -79 290 -94 72 -20 74 -20 90
-23 9 -1 20 -5 25 -8 6 -3 35 -11 65 -17 56 -11 82 -17 123 -26 56 -13 185
-37 212 -40 17 -2 48 -6 70 -10 22 -3 58 -8 80 -10 22 -3 58 -7 80 -10 220
-28 737 -27 930 0 17 3 55 7 85 10 30 2 66 7 80 9 37 7 101 17 130 21 54 8 88
14 150 29 36 8 77 17 91 20 50 8 223 57 334 93 61 19 115 36 120 38 11 2 38
12 70 25 11 4 58 23 105 41 206 79 517 234 687 342 24 15 47 27 52 27 5 0 11
3 13 8 1 4 62 46 133 94 129 87 305 220 399 301 124 107 159 141 286 268 157
157 291 309 422 479 72 94 98 131 98 139 0 5 4 11 8 13 7 3 109 154 185 274
37 59 146 257 187 339 19 39 38 72 42 73 5 2 8 10 8 17 0 7 16 46 35 86 19 41
35 79 35 85 0 7 4 14 10 16 5 2 11 12 13 23 2 11 9 31 14 45 18 43 95 241 98
250 0 3 17 55 37 115 33 97 84 272 93 315 2 8 10 42 18 75 9 33 18 71 21 85 3
14 10 50 15 80 6 30 13 66 16 80 3 14 8 41 11 60 3 19 8 49 11 65 3 17 6 41 8
55 1 14 5 43 8 65 20 137 36 301 42 445 10 196 5 511 -9 655 -2 22 -7 75 -11
118 -3 43 -8 88 -10 100 -3 11 -7 41 -10 66 -3 25 -7 55 -9 66 -2 11 -7 42
-10 68 -4 27 -9 59 -12 70 -6 31 -13 67 -19 102 -4 17 -17 80 -31 140 -14 61
-27 117 -29 125 -12 54 -63 226 -102 345 -130 395 -296 742 -553 1151 -40 63
-144 209 -152 212 -4 2 -8 8 -8 13 0 10 -34 54 -173 224 -204 249 -432 471
-740 721 -10 9 -67 50 -125 92 -59 42 -108 80 -110 85 -2 4 -8 7 -12 7 -5 0
-54 29 -110 65 -133 87 -303 181 -477 266 -78 38 -144 69 -147 69 -3 0 -29 11
-58 24 -108 48 -420 159 -483 171 -11 2 -20 4 -20 5 0 1 -7 3 -15 5 -8 2 -51
13 -95 25 -44 11 -91 23 -104 26 -12 3 -51 11 -85 19 -67 16 -300 55 -356 60
-19 2 -35 4 -35 5 0 0 -31 3 -70 6 -38 3 -81 7 -95 10 -28 6 -605 15 -611 10z
m586 -170 c33 -2 81 -7 108 -10 26 -3 66 -8 90 -11 23 -3 53 -7 67 -9 14 -3
59 -10 100 -16 85 -14 78 -13 185 -35 44 -9 87 -18 95 -20 36 -7 242 -63 270
-73 8 -3 20 -6 25 -7 20 -6 171 -56 190 -64 11 -5 70 -28 130 -52 213 -82 514
-237 738 -380 97 -63 389 -274 428 -311 8 -7 46 -40 84 -73 155 -132 360 -337
481 -482 27 -32 57 -65 66 -74 10 -9 18 -20 18 -25 1 -5 23 -34 50 -64 28 -30
50 -59 50 -63 0 -4 9 -18 21 -30 24 -26 227 -324 259 -382 13 -22 34 -60 48
-85 13 -25 28 -49 32 -55 20 -26 147 -280 199 -398 77 -173 189 -479 216 -587
2 -8 17 -62 34 -120 16 -57 27 -108 25 -112 -3 -4 -1 -8 4 -8 6 0 9 -6 9 -12
-1 -7 6 -47 15 -88 10 -41 20 -88 23 -105 2 -16 7 -41 10 -55 3 -14 8 -41 11
-60 4 -19 9 -44 11 -55 5 -23 10 -69 17 -140 2 -27 8 -66 11 -85 4 -19 8 -53
10 -75 1 -22 6 -94 11 -160 14 -199 8 -630 -10 -790 -2 -16 -7 -55 -10 -85
-13 -126 -16 -146 -20 -166 -2 -12 -7 -45 -11 -75 -4 -30 -9 -57 -11 -60 -2
-3 -6 -25 -9 -49 -3 -23 -7 -45 -10 -50 -2 -4 -6 -22 -9 -41 -2 -19 -14 -72
-25 -119 -12 -47 -23 -95 -26 -108 -3 -12 -7 -31 -9 -42 -6 -24 -49 -168 -78
-255 -11 -33 -21 -67 -23 -75 -4 -17 -81 -221 -100 -265 -7 -16 -24 -57 -38
-90 -42 -100 -149 -320 -159 -323 -4 -2 -8 -12 -8 -21 0 -10 -9 -30 -20 -44
-11 -14 -20 -28 -20 -32 0 -9 -146 -250 -213 -350 -77 -115 -232 -321 -302
-402 -5 -6 -32 -37 -60 -70 -75 -87 -359 -371 -450 -448 -44 -38 -82 -71 -85
-74 -3 -4 -23 -19 -45 -36 -22 -16 -45 -34 -51 -40 -7 -5 -24 -19 -40 -30 -15
-11 -33 -26 -40 -32 -7 -7 -17 -13 -22 -13 -6 0 -12 -4 -14 -9 -4 -11 -201
-145 -318 -216 -175 -107 -386 -215 -570 -293 -286 -121 -670 -235 -897 -267
-12 -2 -34 -6 -50 -9 -63 -14 -88 -18 -203 -31 -30 -3 -66 -8 -80 -10 -146
-25 -694 -24 -875 0 -22 3 -58 8 -80 10 -22 2 -53 6 -70 9 -16 3 -48 7 -70 11
-23 3 -52 8 -65 10 -14 3 -40 7 -58 10 -18 2 -36 6 -40 9 -4 2 -28 7 -52 10
-59 7 -283 66 -429 113 -64 20 -118 37 -121 37 -7 2 -114 43 -165 64 -21 10
-42 17 -45 18 -3 0 -31 12 -64 27 -32 15 -60 27 -62 27 -5 0 -242 118 -308
154 -84 45 -306 180 -326 198 -11 10 -22 18 -26 18 -6 0 -103 68 -114 80 -3 3
-18 14 -35 25 -52 32 -265 207 -265 216 0 5 -5 9 -11 9 -6 0 -25 12 -42 27
-66 60 -374 370 -407 412 -19 24 -46 55 -60 70 -14 14 -48 55 -75 91 -28 36
-52 67 -55 70 -29 29 -210 287 -210 300 0 4 -4 10 -9 12 -15 5 -179 287 -260
448 -69 134 -192 412 -206 463 -2 4 -4 9 -5 12 -1 3 -3 8 -5 13 -1 4 -4 14 -8
22 -21 54 -66 188 -69 205 -2 11 -5 22 -9 25 -6 6 -69 238 -94 345 -9 39 -19
81 -22 95 -3 14 -7 34 -9 45 -1 11 -5 31 -8 45 -17 69 -44 245 -60 390 -33
291 -38 717 -11 990 14 145 30 279 40 330 3 13 7 42 10 65 3 22 8 47 10 55 2
8 7 30 10 48 21 125 85 379 131 522 15 47 28 87 29 90 3 15 49 150 60 175 8
17 30 73 50 125 56 144 211 456 310 625 78 134 227 362 244 375 3 3 17 22 31
42 14 21 28 38 33 38 4 0 7 6 7 13 0 6 13 26 28 42 15 17 43 50 62 75 19 25
37 47 40 50 3 3 32 37 64 75 71 83 355 367 445 445 35 30 69 60 75 65 6 6 52
42 101 80 50 38 95 73 100 78 6 4 48 35 95 67 47 33 90 63 95 67 28 22 177
113 185 113 6 0 10 4 10 8 0 4 12 13 28 20 15 6 63 32 107 57 69 40 321 165
331 165 2 0 27 11 56 24 48 21 85 37 98 41 3 1 19 7 35 14 69 29 388 132 480
155 106 26 261 58 360 75 33 6 73 13 89 15 17 3 57 8 90 12 34 3 75 8 91 10
17 2 75 7 130 10 55 3 101 7 102 8 5 4 474 -3 538 -8z"/>
<path d="M5023 9278 c-5 -7 -36 -83 -67 -168 -60 -162 -87 -235 -107 -285 -7
-16 -13 -33 -14 -37 -2 -5 -4 -10 -5 -13 -1 -3 -3 -8 -5 -12 -9 -34 -19 -42
-46 -38 -27 3 -48 -8 -32 -18 8 -5 123 -11 151 -8 23 2 12 17 -15 19 -15 1
-31 6 -35 10 -4 4 7 46 25 92 l32 85 70 -3 c39 -2 75 -5 81 -7 9 -2 29 -68 25
-82 0 -2 6 -21 14 -44 21 -57 20 -59 -22 -59 -27 0 -34 -3 -26 -11 15 -15 200
-22 208 -9 3 6 -3 11 -14 11 -12 1 -26 2 -33 3 -10 1 -36 83 -52 161 -2 11
-11 43 -19 72 -9 28 -13 54 -10 57 4 3 1 6 -6 6 -7 0 -10 3 -8 8 3 4 -4 41
-15 82 -11 41 -27 103 -36 138 -16 63 -22 71 -39 50z m-8 -181 c4 -23 10 -46
13 -52 3 -5 7 -16 8 -25 4 -29 15 -74 20 -82 3 -4 -24 -8 -60 -8 -67 0 -83 9
-70 38 4 9 8 19 8 22 9 37 61 158 66 155 5 -3 11 -24 15 -48z"/>
<path d="M4278 9245 c-2 -2 -28 -6 -58 -10 -30 -3 -62 -8 -70 -10 -8 -2 -37
-6 -64 -10 -56 -7 -69 -12 -61 -25 3 -5 18 -7 33 -4 27 5 28 4 30 -34 2 -22 4
-48 6 -59 3 -11 7 -44 11 -74 3 -30 8 -65 10 -79 27 -185 36 -263 31 -275 -3
-8 -17 -15 -31 -15 -14 0 -25 -5 -25 -11 0 -10 67 -6 140 10 20 4 43 7 53 5 9
-1 17 4 17 11 0 10 -10 12 -35 9 -33 -4 -35 -2 -36 26 -1 16 -2 33 -3 38 -5
17 -18 137 -15 142 1 3 -3 15 -9 27 -19 34 7 52 69 49 58 -3 97 -33 104 -81 6
-46 35 -136 52 -161 21 -33 68 -46 114 -33 53 16 60 39 10 32 -34 -5 -39 -3
-50 25 -7 16 -14 40 -15 53 -13 106 -56 161 -134 175 -15 3 -28 9 -30 15 -4
10 -55 12 -65 2 -10 -9 -56 -13 -61 -4 -3 3 -7 27 -10 51 -3 25 -8 67 -11 94
-8 64 -8 59 -6 72 0 6 7 11 14 12 6 0 40 2 73 5 34 3 66 2 71 -2 24 -15 41
-69 40 -123 -2 -46 -6 -59 -26 -75 -13 -11 -20 -23 -15 -26 15 -9 86 31 108
60 43 58 26 147 -34 178 -25 13 -114 27 -122 20z"/>
<path d="M5550 9206 c0 -9 3 -15 8 -15 32 5 41 -2 37 -31 -2 -16 -7 -39 -10
-51 -4 -11 -8 -31 -10 -42 -2 -12 -6 -31 -8 -42 -3 -11 -13 -56 -22 -100 -10
-44 -21 -98 -26 -120 -5 -22 -12 -56 -15 -75 -12 -65 -27 -78 -62 -56 -10 6
-13 3 -10 -10 2 -11 13 -19 28 -20 14 -1 63 -12 110 -24 148 -38 221 -33 271
21 66 71 39 181 -56 232 -30 16 -30 16 -5 17 68 4 105 27 130 82 20 45 13 97
-18 132 -18 19 -112 71 -112 61 0 -3 -8 -1 -18 4 -10 5 -38 12 -62 16 -25 4
-49 10 -55 13 -5 4 -15 7 -21 8 -6 1 -26 5 -43 9 -24 5 -31 3 -31 -9z m191
-51 c97 -33 112 -59 89 -155 -20 -82 -65 -103 -165 -77 -11 3 -23 6 -27 6 -4
1 -5 9 -3 19 3 16 31 145 40 185 4 18 14 37 19 37 2 0 23 -7 47 -15z m12 -290
c32 -21 27 -11 34 -67 7 -63 -19 -151 -49 -165 -32 -16 -77 -22 -84 -12 -3 5
-17 9 -32 9 -40 0 -54 13 -47 42 3 13 7 31 9 39 2 8 6 32 10 54 5 22 15 63 22
91 l15 52 48 -13 c26 -7 60 -20 74 -30z"/>
<path d="M3502 9053 c0 -10 -1 -148 -1 -306 l-2 -288 -36 -15 c-62 -26 -25
-29 52 -3 44 14 75 30 75 38 0 9 -6 11 -17 6 -51 -21 -50 -23 -50 83 l-1 99
75 25 74 25 38 -51 c21 -28 46 -63 55 -78 18 -27 18 -28 -7 -37 -28 -11 -45
-31 -25 -31 7 0 48 13 91 29 42 16 77 26 77 22 0 -3 4 1 9 9 14 21 3 32 -21
19 -22 -12 -36 -1 -75 64 -10 15 -21 27 -25 27 -4 0 -8 6 -8 13 0 7 -11 24
-25 39 -14 15 -25 30 -25 33 0 3 -40 63 -90 133 -49 70 -95 135 -102 145 -7 9
-18 17 -25 17 -6 0 -12 -8 -11 -17z m97 -226 c40 -57 57 -89 49 -92 -7 -3 -38
-13 -69 -24 l-55 -19 -1 120 c0 66 3 116 7 111 4 -4 35 -47 69 -96z"/>
<path d="M6430 8892 c-25 -30 -52 -62 -61 -71 -9 -9 -72 -81 -140 -161 -68
-80 -128 -150 -134 -156 -7 -9 -17 -8 -37 2 -16 8 -29 10 -33 4 -6 -9 35 -33
108 -63 31 -14 37 -14 37 -2 0 8 -11 17 -25 21 -33 8 -31 21 6 64 17 19 43 50
58 68 l27 32 73 -32 72 -33 -6 -90 c-4 -49 -9 -93 -12 -98 -2 -4 -13 -2 -24 4
-11 5 -28 8 -37 6 -10 -2 23 -23 82 -51 63 -30 102 -44 108 -38 6 6 -1 14 -21
23 -28 13 -30 17 -26 54 6 55 14 147 21 230 3 39 7 88 9 110 2 22 7 76 11 120
3 44 8 83 10 86 2 4 -2 11 -9 17 -9 7 -24 -5 -57 -46z m-24 -102 c-1 -16 -3
-30 -6 -30 -3 0 -6 -37 -8 -82 -1 -45 -4 -84 -6 -86 -2 -2 -12 1 -23 7 -10 6
-39 20 -66 31 -46 19 -47 20 -30 38 17 18 80 92 113 133 21 26 27 24 26 -11z"/>
<path d="M7146 8763 c-22 -75 -2 -128 62 -160 36 -18 48 -20 75 -11 33 11 70
42 61 51 -3 3 -19 1 -36 -5 -58 -21 -149 49 -143 110 2 28 -12 39 -19 15z"/>
<path d="M2849 8754 c-94 -28 -161 -125 -161 -233 1 -70 5 -89 36 -157 53
-115 162 -194 264 -190 49 1 54 -1 72 -29 25 -41 63 -61 119 -64 8 -1 -44 -38
-115 -82 -71 -45 -131 -85 -134 -88 -3 -3 -27 -21 -55 -40 -197 -135 -504
-430 -680 -651 -107 -135 -121 -155 -128 -172 -3 -10 -11 -18 -17 -18 -5 0
-10 -4 -10 -9 0 -7 -79 -133 -98 -156 -4 -5 -21 -35 -37 -65 -17 -30 -32 -57
-35 -60 -18 -17 -119 -218 -113 -224 4 -3 1 -6 -5 -6 -7 0 -12 -4 -12 -10 0
-5 -16 -44 -35 -86 -19 -41 -35 -77 -35 -79 0 -1 -8 -20 -17 -41 -9 -22 -18
-43 -19 -49 -1 -5 -17 -48 -34 -94 -62 -167 -145 -485 -166 -636 -4 -22 -7
-49 -9 -60 -30 -206 -39 -348 -39 -570 1 -193 8 -353 18 -405 2 -14 7 -54 10
-89 4 -35 8 -73 11 -85 3 -11 7 -37 10 -56 5 -40 13 -84 21 -120 3 -14 8 -36
10 -50 4 -25 7 -38 39 -155 9 -33 18 -71 21 -85 19 -94 194 -555 217 -571 5
-3 8 -9 8 -13 -4 -20 143 -286 238 -431 49 -76 152 -221 174 -245 7 -8 33 -40
57 -70 81 -99 103 -123 250 -270 119 -119 207 -199 315 -282 6 -5 28 -22 50
-40 52 -40 304 -206 375 -246 91 -51 342 -172 358 -172 4 0 21 -7 37 -16 56
-29 375 -132 465 -150 14 -3 33 -7 42 -10 19 -6 41 -10 118 -24 128 -22 150
-26 240 -36 30 -4 69 -8 85 -11 59 -8 452 -9 530 -2 104 10 184 19 215 24 14
2 45 7 70 10 55 8 224 43 265 55 17 5 41 11 55 14 20 3 145 41 238 71 7 3 13
4 15 4 9 -1 270 112 352 151 117 57 299 160 303 172 2 4 8 8 14 8 22 0 328
222 399 290 15 14 42 37 60 52 95 75 343 342 455 488 27 36 51 67 54 70 3 3
19 25 35 50 17 25 34 50 38 55 17 20 124 192 148 235 13 25 26 47 29 50 10 9
158 316 181 375 5 11 15 38 24 60 18 44 76 204 80 220 1 6 5 17 8 25 19 52 89
318 101 390 3 19 8 46 11 60 3 14 8 41 10 60 3 19 8 44 10 56 3 11 7 43 10 70
3 27 8 59 10 71 31 184 26 713 -10 958 -2 17 -7 53 -10 80 -4 28 -8 58 -11 67
-6 20 -10 44 -19 94 -9 57 -40 184 -75 304 -17 58 -33 110 -34 115 -2 6 -5 17
-8 25 -3 8 -13 38 -23 65 -9 28 -21 61 -27 75 -6 14 -14 34 -19 45 -42 106
-103 241 -154 340 -73 140 -165 299 -177 303 -4 2 -8 8 -8 13 0 9 -32 57 -109
164 -19 28 -40 55 -46 62 -5 7 -14 18 -20 25 -146 189 -279 329 -500 528 -95
85 -365 281 -460 334 -34 19 -58 33 -97 59 -16 10 -28 15 -28 10 0 -4 -4 -3
-8 3 -9 13 -224 120 -234 117 -5 -2 -8 1 -8 5 0 5 -6 9 -12 9 -7 1 -62 22
-123 48 -60 25 -110 46 -110 45 0 -1 -13 3 -28 9 -16 6 -34 11 -41 11 -6 0
-17 5 -24 12 -7 7 -12 9 -12 6 0 -4 -31 4 -70 17 -38 13 -70 22 -70 20 0 -3
-12 0 -27 6 -16 6 -39 12 -53 14 -14 3 -45 9 -70 16 -25 6 -54 12 -65 14 -105
19 -146 26 -185 30 -25 3 -54 8 -66 10 -119 25 -621 25 -774 1 -14 -3 -47 -7
-75 -11 -81 -10 -119 -16 -137 -21 -10 -3 -29 -7 -43 -10 -14 -2 -35 -6 -47
-8 -90 -16 -373 -96 -410 -117 -10 -5 -23 -9 -29 -9 -14 0 -235 -92 -312 -131
-33 -16 -69 -31 -80 -33 -12 -2 -35 -9 -50 -15 -60 -23 -110 -2 -143 61 -13
25 -12 30 4 46 47 47 70 164 50 252 -27 113 -119 219 -218 248 -63 18 -75 19
-121 6z m73 -23 c14 -2 71 -67 105 -120 87 -135 126 -260 100 -319 -26 -59
-94 -92 -154 -77 -44 11 -114 92 -159 185 -88 179 -91 248 -14 308 36 28 64
33 122 23z m2065 -296 c129 -6 187 -10 248 -19 22 -3 56 -8 75 -10 53 -7 185
-32 273 -52 9 -2 26 -6 38 -9 11 -2 29 -7 39 -10 10 -3 27 -8 37 -10 60 -12
304 -97 390 -136 24 -10 45 -19 47 -19 12 0 208 -98 298 -149 123 -70 252
-151 256 -163 2 -4 8 -8 12 -8 8 0 108 -71 160 -113 196 -158 420 -376 520
-507 19 -25 40 -49 47 -55 6 -5 41 -50 77 -100 36 -49 74 -101 86 -115 11 -14
20 -29 20 -34 0 -4 14 -25 30 -46 17 -21 30 -41 30 -44 0 -3 16 -30 35 -60 53
-84 158 -288 218 -426 51 -117 141 -363 151 -413 3 -12 14 -53 26 -92 11 -38
22 -81 25 -95 3 -14 7 -35 10 -47 12 -52 15 -71 25 -123 6 -30 12 -66 15 -80
7 -36 16 -100 21 -145 2 -22 6 -56 8 -75 14 -114 19 -217 19 -395 0 -251 -14
-429 -49 -625 -2 -14 -7 -41 -10 -60 -3 -19 -7 -42 -9 -50 -3 -8 -7 -33 -11
-55 -3 -22 -10 -48 -16 -58 -5 -10 -8 -21 -5 -23 3 -3 -2 -26 -10 -52 -8 -26
-17 -58 -19 -72 -6 -29 -101 -317 -114 -345 -5 -11 -27 -63 -49 -116 -47 -113
-152 -323 -163 -327 -4 -2 -8 -8 -8 -14 0 -6 -23 -49 -52 -97 -192 -319 -431
-607 -688 -831 -41 -36 -79 -71 -83 -77 -4 -7 -12 -13 -17 -13 -5 0 -22 -12
-37 -26 -15 -15 -75 -60 -133 -100 -58 -41 -109 -77 -115 -82 -27 -21 -146
-92 -154 -92 -5 0 -16 -7 -24 -14 -20 -20 -271 -146 -377 -189 -115 -46 -124
-50 -130 -52 -3 0 -56 -18 -118 -38 -96 -32 -189 -57 -262 -72 -8 -2 -33 -8
-55 -13 -22 -6 -56 -13 -75 -16 -19 -3 -46 -8 -60 -11 -14 -3 -45 -8 -70 -11
-25 -3 -56 -7 -70 -9 -70 -11 -293 -27 -365 -26 -65 1 -309 12 -340 15 -22 3
-65 7 -95 10 -30 3 -66 8 -80 11 -29 7 -61 13 -110 21 -155 25 -557 142 -617
180 -13 8 -23 12 -23 9 0 -4 -12 1 -27 9 -16 8 -50 25 -78 37 -105 46 -319
159 -323 171 -2 4 -8 8 -13 8 -6 0 -67 38 -137 84 -260 173 -491 378 -717 637
-44 50 -225 290 -225 298 0 4 -8 16 -17 27 -10 11 -25 31 -33 45 -8 13 -43 71
-78 129 -75 126 -186 350 -236 478 -45 115 -87 227 -86 227 1 0 -1 7 -4 15 -5
13 -38 127 -41 140 -1 3 -7 25 -14 50 -14 46 -19 67 -27 110 -3 14 -8 34 -11
45 -3 11 -7 29 -9 40 -2 11 -5 31 -8 45 -14 62 -32 178 -42 262 -3 29 -7 64
-10 78 -22 134 -22 638 0 755 2 11 7 52 11 90 4 39 9 79 11 90 2 11 6 36 9 55
3 19 7 46 10 60 3 14 8 36 10 50 14 82 52 235 93 372 31 102 122 350 131 358
3 3 7 12 9 20 6 24 111 239 152 310 21 36 46 81 57 100 17 31 146 230 165 255
4 6 42 55 85 110 42 55 84 109 94 120 273 304 515 516 764 670 44 27 82 52 85
55 3 3 14 10 25 16 11 6 47 26 79 44 118 65 254 129 381 178 124 48 164 63
175 67 56 18 126 39 130 40 3 1 14 4 25 8 11 3 31 8 45 11 14 3 54 12 90 21
69 18 72 18 165 34 102 18 119 20 170 27 94 12 120 13 259 18 76 3 141 7 144
10 2 3 8 3 13 0 4 -2 61 -7 126 -9z"/>
<path d="M4913 8196 c-4 -5 -1 -12 5 -14 7 -2 12 -8 12 -12 0 -5 43 -75 95
-155 52 -80 95 -149 95 -154 0 -5 4 -11 8 -13 6 -2 126 -183 182 -274 8 -13
53 -83 100 -154 47 -72 90 -138 95 -147 6 -10 12 -20 15 -23 3 -3 16 -21 28
-40 45 -72 19 -9 -115 280 -19 41 -52 113 -73 160 -20 47 -53 119 -73 160 -44
94 -96 208 -142 308 l-36 77 -52 2 c-29 1 -71 3 -95 6 -24 2 -46 -1 -49 -7z"/>
<path d="M4588 8195 c-1 -1 -30 -5 -63 -8 -85 -8 -145 -18 -145 -26 0 -4 21
-29 46 -56 52 -58 203 -220 254 -275 50 -54 142 -152 245 -265 50 -54 113
-121 140 -150 28 -29 84 -90 125 -135 41 -45 89 -97 105 -114 17 -17 51 -55
78 -83 26 -29 47 -50 47 -48 0 4 -158 239 -219 326 -33 47 -27 38 -191 279
-77 113 -143 210 -147 215 -5 6 -37 53 -72 105 -36 52 -85 124 -110 160 -24
36 -46 66 -47 68 -2 4 -42 11 -46 7z"/>
<path d="M5407 8077 c41 -95 55 -131 53 -135 0 -1 6 -15 14 -30 8 -15 21 -43
29 -62 8 -19 22 -52 31 -72 9 -21 24 -55 33 -75 9 -21 18 -42 19 -48 5 -20
152 -353 164 -371 11 -18 11 -18 5 1 -5 17 -63 231 -70 260 -1 6 -4 17 -8 25
-3 8 -12 44 -21 80 -9 36 -18 72 -21 80 -13 50 -60 227 -77 295 -12 44 -26 86
-33 93 -12 13 -20 15 -95 27 -19 3 -40 7 -47 9 -6 3 4 -32 24 -77z"/>
<path d="M4050 8100 c-14 -4 -78 -25 -142 -45 -65 -21 -118 -40 -118 -44 1 -3
38 -34 83 -67 118 -89 586 -443 600 -454 7 -6 39 -30 72 -55 33 -24 65 -48 70
-53 6 -4 66 -50 135 -102 69 -52 127 -97 128 -102 2 -4 10 -8 18 -8 8 0 14 -4
14 -8 0 -4 13 -16 30 -25 16 -10 35 -23 42 -30 7 -7 40 -33 73 -57 33 -25 62
-47 65 -50 12 -12 160 -120 160 -117 0 3 -48 54 -107 114 -60 61 -244 249
-409 419 -166 170 -386 396 -489 502 -103 105 -191 192 -194 191 -3 0 -17 -4
-31 -9z"/>
<path d="M5770 8042 c0 -5 3 -12 7 -16 4 -4 9 -19 11 -34 1 -15 10 -54 19 -87
8 -33 16 -67 18 -75 2 -8 13 -53 25 -100 12 -47 23 -92 25 -100 4 -19 35 -150
40 -170 3 -8 11 -40 19 -70 l15 -55 -5 75 c-3 41 -7 84 -9 95 -2 11 -7 56 -10
100 -3 44 -8 98 -10 120 -3 22 -7 67 -10 100 -3 33 -7 87 -10 119 -6 64 -17
86 -46 86 -10 0 -21 5 -24 10 -7 12 -55 13 -55 2z"/>
<path d="M6105 7908 c3 -7 7 -51 10 -98 13 -223 16 -277 20 -305 2 -16 4 -51
4 -77 1 -27 4 -48 9 -48 4 0 7 17 7 38 -1 20 1 41 3 45 2 4 5 40 7 78 2 39 6
101 10 137 3 37 8 100 10 140 l4 72 -36 15 c-43 18 -54 19 -48 3z"/>
<path d="M3424 7851 c-133 -70 -234 -131 -234 -141 0 -5 174 -94 905 -463 198
-100 362 -184 365 -187 3 -3 140 -72 305 -154 165 -83 302 -153 303 -158 2 -4
11 -8 19 -8 9 0 31 -9 49 -21 76 -47 25 -4 -123 102 -87 62 -160 115 -163 119
-3 3 -13 10 -22 15 -37 21 -573 410 -576 417 -2 4 -8 8 -13 8 -8 0 -64 39
-134 93 -76 58 -304 219 -317 224 -10 3 -18 8 -18 12 0 3 -21 20 -45 36 -25
17 -45 33 -45 38 0 4 -6 7 -14 7 -8 0 -21 6 -28 13 -7 6 -38 31 -69 53 l-55
42 -90 -47z"/>
<path d="M6389 7768 c-1 -4 -5 -44 -13 -143 -4 -44 -9 -96 -11 -115 -2 -19 -7
-62 -9 -95 -7 -77 2 -54 39 100 9 39 19 79 22 90 9 41 12 50 13 50 1 0 3 9 5
20 2 11 6 30 10 41 5 16 1 26 -16 38 -21 15 -37 20 -40 14z"/>
<path d="M6625 7598 c-10 -33 -75 -280 -75 -286 1 -4 14 20 29 53 16 33 27 63
24 67 -2 5 1 8 6 8 6 0 11 9 11 20 0 11 4 20 8 20 5 0 9 6 9 13 0 6 8 29 18
50 14 30 15 40 5 52 -15 18 -29 19 -35 3z"/>
<path d="M2928 7523 c-10 -2 -18 -9 -18 -14 0 -5 -4 -9 -9 -9 -20 0 -284 -251
-274 -261 13 -11 173 -57 177 -50 2 3 2 35 1 71 -4 76 13 120 58 152 40 29
113 29 153 1 41 -29 202 -203 310 -333 16 -19 36 -43 44 -53 12 -14 78 -40
135 -53 6 -1 96 -28 202 -59 l192 -57 22 21 c92 86 232 87 324 3 17 -15 51
-44 77 -65 27 -21 51 -51 57 -70 11 -31 17 -34 119 -65 59 -18 115 -35 125
-37 9 -2 21 -6 25 -9 5 -3 22 -8 38 -11 40 -8 43 -9 99 -27 43 -14 196 -60
248 -74 9 -3 17 -1 17 5 0 6 -5 11 -10 11 -6 0 -61 24 -123 54 -208 100 -287
136 -297 136 -5 0 -10 5 -10 10 0 6 -6 10 -14 10 -7 0 -68 27 -135 60 -67 33
-123 60 -125 60 -2 0 -79 36 -172 81 -93 45 -200 96 -239 114 -38 18 -119 56
-180 85 -60 29 -143 68 -183 86 -40 19 -147 70 -238 114 -92 44 -168 80 -170
80 -2 0 -50 23 -106 50 -56 28 -102 49 -103 49 0 -1 -8 -3 -17 -6z"/>
<path d="M6804 7373 c-19 -43 -44 -95 -54 -115 -34 -67 -12 -41 55 62 59 91
72 130 43 130 -5 0 -25 -35 -44 -77z"/>
<path d="M2922 7321 c-18 -11 -9 -140 17 -253 21 -93 106 -292 139 -326 6 -7
12 -20 12 -28 0 -8 4 -14 8 -14 4 0 15 -13 25 -29 29 -49 57 -81 179 -203 64
-64 132 -124 150 -134 18 -9 35 -20 38 -23 3 -4 16 -14 30 -23 l26 -16 16 62
c9 35 30 86 47 115 17 29 28 58 25 64 -8 14 -146 200 -154 207 -3 3 -21 25
-40 50 -19 25 -39 50 -45 56 -5 6 -23 28 -40 49 -16 21 -35 43 -40 49 -6 6
-26 31 -45 56 -90 117 -308 350 -326 350 -5 0 -15 -4 -22 -9z"/>
<path d="M7009 7258 c-7 -13 -15 -25 -18 -28 -12 -10 -61 -79 -61 -86 0 -4 -8
-17 -17 -28 -19 -23 78 74 115 116 20 22 21 27 8 37 -12 10 -17 8 -27 -11z"/>
<path d="M7128 7042 c-68 -71 -95 -108 -53 -72 16 14 34 30 41 35 6 6 22 17
34 25 31 21 60 46 60 53 0 2 -6 7 -14 10 -8 3 -36 -18 -68 -51z"/>
<path d="M6095 7028 c-164 -21 -294 -82 -457 -213 -32 -26 -149 -172 -168
-210 -8 -17 -18 -32 -21 -35 -8 -7 -65 -159 -73 -195 -3 -16 -9 -41 -12 -55
-39 -174 -7 -433 72 -581 10 -19 18 -36 19 -39 2 -11 59 -95 66 -98 5 -2 9 -9
9 -16 0 -16 105 -122 170 -173 101 -77 249 -140 370 -159 60 -10 193 -11 240
-2 25 5 54 10 65 12 110 21 257 95 356 180 79 68 85 74 146 157 77 104 153
291 158 390 1 20 5 40 8 45 12 20 -1 242 -18 314 -104 439 -508 734 -930 678z"/>
<path d="M2407 6997 c-8 -7 -27 -30 -43 -52 -16 -22 -33 -44 -37 -50 -4 -5
-39 -57 -77 -115 -38 -58 -73 -109 -78 -115 -8 -10 -21 -40 -22 -52 -1 -7 11
-10 85 -18 114 -12 142 -15 185 -20 25 -3 67 -7 93 -10 66 -6 142 -14 207 -21
79 -8 118 -12 180 -18 78 -8 151 -16 183 -21 32 -5 34 4 8 31 -43 46 -121 172
-168 269 -38 79 -38 79 -69 86 -36 9 -231 61 -346 93 -67 19 -90 22 -101 13z"/>
<path d="M7265 6859 c-101 -72 -101 -76 2 -25 68 34 91 50 87 61 -4 8 -9 15
-13 15 -3 -1 -37 -23 -76 -51z"/>
<path d="M4055 6832 c-44 -15 -82 -46 -115 -93 -19 -28 -42 -58 -51 -67 -35
-38 -87 -110 -115 -157 -36 -62 -44 -76 -67 -108 -27 -38 -57 -127 -57 -170 0
-24 8 -49 20 -64 11 -14 17 -30 13 -35 -7 -13 -12 -15 135 60 68 34 130 62
139 62 8 0 29 10 46 22 23 16 46 23 80 23 l47 0 -2 47 c-2 27 -6 48 -9 48 -4
0 -9 10 -13 23 -3 13 -17 40 -30 60 -14 20 -29 52 -35 71 -8 30 -6 41 13 68
29 44 75 59 157 52 60 -5 67 -4 71 14 4 13 -3 25 -20 38 -14 10 -48 38 -76 62
-27 23 -55 42 -60 42 -6 0 -20 2 -31 4 -11 3 -29 1 -40 -2z"/>
<path d="M7365 6649 c-55 -27 -92 -48 -83 -45 9 3 36 10 60 17 24 7 46 13 51
15 4 1 8 2 10 3 1 2 12 4 23 6 43 9 76 25 71 38 -7 23 -32 17 -132 -34z"/>
<path d="M3660 6661 c5 -9 17 -25 25 -36 16 -20 16 -20 31 -1 21 29 18 32 -26
44 -35 9 -38 8 -30 -7z"/>
<path d="M4204 6459 c30 -77 32 -79 66 -80 19 -1 44 -3 55 -4 11 -2 47 -6 80
-9 33 -4 74 -8 90 -10 134 -17 177 -17 231 -1 59 17 63 22 23 29 -13 2 -24 5
-24 6 0 2 -1 2 -110 30 -44 11 -88 23 -97 25 -10 3 -26 7 -35 9 -10 3 -56 16
-103 30 -46 14 -86 23 -89 21 -2 -2 -11 0 -21 5 -10 5 -35 13 -57 18 l-40 9
31 -78z"/>
<path d="M5060 6520 c0 -5 5 -10 11 -10 5 0 7 5 4 10 -3 6 -8 10 -11 10 -2 0
-4 -4 -4 -10z"/>
<path d="M7528 6455 c-43 -12 -78 -21 -78 -19 0 2 -15 -3 -34 -11 -18 -8 -36
-11 -40 -8 -3 4 -6 1 -6 -6 0 -9 14 -11 53 -5 28 3 71 8 93 9 23 1 47 6 53 9
6 4 15 5 20 2 14 -9 41 4 41 19 0 29 -25 32 -102 10z"/>
<path d="M4925 6330 c-9 -14 13 -22 73 -25 31 -2 48 -1 37 1 -11 3 -39 11 -62
19 -24 7 -45 10 -48 5z"/>
<path d="M1992 6317 c-8 -11 -76 -174 -101 -242 -6 -16 -16 -43 -22 -60 -7
-16 -13 -34 -14 -40 -2 -5 -10 -34 -19 -64 -23 -79 -22 -82 22 -77 39 5 130
13 251 21 41 3 99 8 129 11 31 3 85 7 121 9 36 3 98 8 136 11 39 4 96 7 127 8
32 0 58 3 58 6 0 3 24 6 53 6 158 4 153 2 201 63 61 78 215 231 232 231 9 0
36 30 27 31 -4 0 -17 2 -28 5 -11 2 -54 6 -95 9 -41 3 -93 8 -115 10 -22 2
-80 7 -130 10 -49 4 -110 8 -135 11 -25 2 -76 6 -115 9 -38 2 -99 7 -135 10
-36 4 -94 8 -130 11 -36 3 -92 7 -125 9 -33 3 -88 7 -122 9 -40 3 -65 1 -71
-7z"/>
<path d="M4737 6244 c-42 -14 -108 -41 -145 -61 -137 -74 -237 -123 -250 -123
-7 0 -22 -5 -33 -10 -14 -8 -17 -15 -10 -28 20 -37 69 -76 135 -107 l68 -33
32 33 c38 39 67 73 126 145 24 30 52 62 60 70 44 42 114 143 98 140 -2 -1 -38
-12 -81 -26z"/>
<path d="M3326 6185 c-81 -55 -73 -48 -165 -132 -259 -238 -441 -614 -455
-943 l-1 -35 60 2 c48 2 162 26 220 47 180 64 339 176 467 328 l39 48 -35 57
c-49 80 -68 137 -69 213 -1 55 3 73 27 114 32 55 76 98 123 121 39 19 43 24
48 69 4 33 2 37 -58 77 -34 23 -73 50 -86 61 -13 10 -29 18 -35 18 -7 0 -43
-20 -80 -45z"/>
<path d="M7627 6213 c-2 -1 -184 -14 -230 -16 -63 -2 -4 -16 93 -22 58 -3 121
-8 140 -10 43 -4 101 -7 117 -6 8 1 8 8 0 31 -11 29 -14 30 -65 28 -29 -2 -54
-4 -55 -5z"/>
<path d="M4105 6162 c21 -59 16 -76 -73 -262 -29 -61 -36 -88 -38 -145 -1 -38
-3 -71 -4 -72 -1 -2 -3 -11 -4 -20 -1 -10 -6 -29 -10 -41 -6 -18 -3 -29 13
-46 12 -12 21 -28 21 -34 0 -7 4 -12 8 -12 10 0 84 -137 112 -209 49 -127 228
-230 426 -247 152 -14 184 17 145 140 -6 17 -13 75 -16 128 -15 242 -96 373
-292 470 -50 24 -106 62 -131 87 -49 48 -132 207 -132 252 0 17 -7 32 -19 38
-17 10 -18 8 -6 -27z"/>
<path d="M3885 6111 c-125 -65 -212 -121 -224 -144 -6 -12 -39 -39 -71 -59
-119 -74 -130 -157 -40 -297 22 -34 40 -71 40 -82 0 -25 71 -59 109 -53 49 9
57 14 69 47 14 37 50 80 80 96 26 14 39 63 45 166 3 73 9 91 60 198 61 125 64
136 45 155 -18 18 -36 13 -113 -27z"/>
<path d="M4823 6088 c-18 -20 -17 -20 87 -14 107 7 153 20 77 22 -23 0 -65 3
-94 6 -44 5 -55 2 -70 -14z"/>
<path d="M7376 5970 c6 -6 19 -12 30 -14 10 -2 64 -16 119 -31 55 -15 108 -28
118 -28 9 -1 17 -4 17 -7 0 -4 6 -7 13 -8 6 0 22 -3 35 -6 12 -3 30 -8 40 -10
9 -2 39 -10 65 -16 26 -7 49 -11 51 -9 4 4 -19 77 -26 84 -1 2 -30 6 -63 9
-33 3 -76 8 -95 11 -32 4 -65 7 -200 21 -25 2 -60 6 -79 9 -23 3 -31 1 -25 -5z"/>
<path d="M4940 5869 c-89 -11 -151 -18 -225 -25 -38 -4 -77 -8 -85 -10 -8 -1
-24 -3 -35 -3 -17 -1 -14 -7 18 -35 l38 -33 122 33 c67 19 151 41 187 50 121
30 113 39 -20 23z"/>
<path d="M7460 5694 c199 -97 326 -158 419 -201 l74 -34 -8 43 c-4 24 -8 52
-10 63 -1 15 -17 24 -61 38 -83 26 -286 87 -305 91 -9 3 -63 19 -120 36 -57
17 -113 33 -124 36 -11 2 50 -30 135 -72z"/>
<path d="M5059 5660 c-8 -5 -27 -11 -42 -14 -15 -2 -32 -8 -38 -12 -6 -3 -25
-10 -43 -15 -17 -4 -56 -15 -86 -24 -30 -9 -60 -17 -67 -19 -21 -4 -24 -12
-17 -40 7 -31 17 -32 64 -6 19 10 46 24 60 30 91 40 200 96 200 102 0 10 -11
10 -31 -2z"/>
<path d="M2709 5635 c-3 -2 -31 -6 -64 -9 -65 -7 -140 -15 -195 -21 -55 -6
-130 -14 -195 -20 -33 -3 -78 -8 -100 -11 -22 -3 -62 -7 -90 -9 -70 -7 -196
-20 -284 -30 -41 -5 -41 -5 -47 -41 -2 -16 -7 -39 -9 -52 -3 -12 -8 -44 -11
-70 -3 -26 -7 -58 -9 -72 -10 -63 -27 -330 -21 -330 1 0 26 7 56 16 29 9 61
17 71 19 49 10 185 49 195 56 6 5 13 7 15 4 3 -2 29 3 59 11 99 28 235 65 255
69 54 12 254 68 264 74 12 8 18 30 26 87 7 47 53 202 70 235 9 16 13 29 10 29
-3 0 1 13 10 29 8 17 11 32 6 35 -4 3 -10 4 -12 1z"/>
<path d="M7229 5566 c7 -9 19 -16 26 -16 8 0 15 -3 17 -8 2 -4 28 -25 58 -46
30 -22 188 -135 350 -251 162 -116 300 -215 307 -218 9 -6 11 13 8 74 -2 45
-8 85 -12 89 -20 19 -766 391 -754 376z"/>
<path d="M3882 5502 c-12 -12 -22 -28 -22 -35 0 -58 95 -264 152 -331 37 -44
58 -35 53 22 -7 75 -73 231 -130 307 -12 17 -24 36 -27 44 -3 12 -9 10 -26 -7z"/>
<path d="M5200 5481 c0 -7 -4 -10 -9 -7 -5 4 -11 2 -13 -3 -1 -5 -10 -11 -18
-13 -8 -2 -17 -5 -20 -8 -3 -3 -80 -42 -172 -88 -175 -87 -181 -92 -155 -140
l13 -23 45 33 c24 19 54 40 66 48 44 31 258 184 267 192 5 4 7 11 3 15 -4 3
-7 1 -7 -6z"/>
<path d="M7195 5310 c50 -52 119 -124 155 -160 36 -36 191 -195 344 -353 154
-158 281 -285 283 -283 7 6 12 50 17 133 l5 83 -102 77 c-107 81 -107 81 -146
113 -13 11 -27 20 -30 20 -3 0 -17 10 -31 23 -14 12 -45 37 -70 55 -70 52
-373 281 -390 295 -8 6 -40 30 -70 51 -53 38 -52 36 35 -54z"/>
<path d="M5300 5289 c-49 -39 -55 -44 -81 -61 -14 -9 -32 -23 -40 -30 -15 -13
-190 -148 -240 -183 -63 -45 -625 -470 -634 -480 -5 -6 -34 -28 -62 -49 -49
-35 -65 -55 -45 -57 28 -3 51 -12 118 -48 l76 -41 127 129 c69 71 250 256 401
411 151 156 309 316 350 357 69 68 87 98 30 52z"/>
<path d="M3755 5272 c-22 -7 -47 -15 -55 -17 -8 -2 -62 -18 -120 -35 -58 -18
-109 -33 -115 -34 -5 -1 -23 -7 -40 -13 -16 -6 -66 -21 -110 -33 -44 -13 -105
-35 -135 -51 -94 -48 -200 -88 -274 -104 -12 -2 -31 -6 -43 -9 -12 -2 -50 -7
-85 -11 -63 -6 -188 -36 -328 -80 -41 -13 -114 -35 -162 -49 -49 -14 -125 -37
-170 -51 -46 -14 -92 -27 -103 -30 -11 -2 -58 -16 -105 -30 -47 -15 -89 -28
-95 -29 -5 -1 -36 -10 -69 -20 l-58 -17 6 -87 c7 -88 10 -114 21 -187 4 -22 8
-51 10 -65 21 -138 44 -240 56 -240 5 0 9 5 9 10 0 6 4 10 9 10 5 0 58 23 118
51 59 28 135 64 168 79 33 15 114 53 180 85 272 130 511 243 595 282 159 74
391 185 575 273 72 35 135 64 140 66 6 1 76 34 157 73 81 39 152 71 158 71 5
0 10 5 10 11 0 10 -88 179 -99 190 -3 3 -24 -1 -46 -9z"/>
<path d="M6996 5208 c11 -19 48 -72 54 -78 3 -3 10 -12 15 -21 22 -35 95 -145
103 -154 4 -5 53 -75 107 -155 54 -80 186 -273 294 -430 107 -157 219 -320
247 -363 l53 -78 12 43 c7 24 14 50 15 59 0 9 4 21 7 26 4 6 10 28 13 49 8 48
12 69 14 69 1 0 3 7 5 16 1 9 -16 37 -39 61 -22 25 -80 87 -128 139 -47 52
-103 112 -125 135 -41 43 -204 219 -249 269 -39 43 -233 251 -274 295 -19 20
-54 58 -78 83 -41 45 -61 60 -46 35z"/>
<path d="M5448 5133 c-32 -35 -120 -130 -183 -198 -16 -17 -55 -58 -85 -91
-109 -119 -256 -277 -290 -314 -19 -20 -80 -86 -135 -145 -55 -60 -117 -127
-138 -149 -36 -39 -37 -40 -19 -60 20 -24 88 -105 103 -124 14 -18 19 -13 85
85 32 49 61 90 64 93 7 7 142 206 156 231 6 10 18 27 27 37 10 10 17 24 17 30
0 7 3 12 8 12 4 0 16 16 26 35 11 19 23 35 28 35 4 0 8 4 8 10 0 5 28 49 61
97 130 185 310 453 305 453 -3 0 -20 -17 -38 -37z"/>
<path d="M6820 5107 c0 -5 12 -34 26 -65 14 -31 49 -106 76 -167 28 -60 64
-139 80 -175 33 -72 168 -365 218 -475 17 -38 42 -90 54 -115 13 -25 23 -47
23 -50 0 -3 17 -41 38 -85 20 -44 71 -154 112 -245 41 -91 90 -196 108 -235
18 -38 42 -92 54 -119 12 -26 24 -46 26 -44 4 4 68 130 70 138 3 8 24 58 45
104 11 25 20 51 20 58 0 7 -23 49 -52 93 -29 44 -94 145 -145 225 -51 80 -96
150 -100 155 -5 6 -24 35 -43 65 -19 30 -37 57 -40 60 -3 3 -11 17 -19 33 -8
15 -18 27 -23 27 -5 0 -6 5 -3 10 3 6 2 10 -3 10 -5 0 -16 12 -24 28 -7 15
-37 63 -65 107 -149 230 -182 281 -190 291 -4 5 -12 18 -18 27 -5 9 -44 69
-85 133 -41 63 -80 123 -85 132 -41 66 -55 86 -55 79z"/>
<path d="M5600 4970 c-19 -33 -38 -60 -42 -60 -5 0 -8 -5 -8 -12 0 -6 -11 -26
-25 -44 -14 -18 -25 -36 -25 -40 0 -4 -8 -17 -18 -28 -10 -12 -45 -64 -78
-116 -32 -52 -62 -99 -66 -105 -21 -26 -58 -87 -58 -95 0 -4 -3 -10 -8 -12 -4
-1 -32 -41 -61 -88 -30 -47 -59 -88 -65 -92 -6 -4 -7 -8 -3 -8 4 0 -5 -17 -20
-37 -25 -33 -19 -30 61 30 49 37 105 75 124 84 30 14 43 33 93 139 33 68 59
125 59 128 0 3 18 44 41 92 22 49 51 111 64 139 21 46 75 160 83 178 2 4 0 7
-5 7 -4 0 -24 -27 -43 -60z"/>
<path d="M6657 4933 c13 -48 33 -122 44 -163 12 -41 25 -91 29 -110 5 -19 20
-78 35 -130 14 -52 28 -103 30 -112 3 -10 7 -26 10 -35 2 -10 16 -61 30 -113
15 -52 30 -111 34 -131 4 -19 10 -40 14 -46 3 -5 8 -23 11 -39 6 -34 110 -423
126 -471 6 -18 13 -40 15 -50 1 -10 11 -47 20 -83 10 -36 18 -71 18 -77 0 -7
3 -13 7 -13 3 0 6 -8 6 -17 1 -10 11 -54 23 -98 48 -170 53 -191 61 -225 15
-60 68 -254 75 -272 6 -15 9 -15 21 -3 8 7 14 18 14 23 0 6 4 12 8 14 10 4
113 143 130 175 7 12 18 27 24 35 7 7 19 25 26 39 12 23 11 32 -12 83 -14 31
-26 59 -26 61 0 2 -11 28 -24 57 -13 29 -42 96 -64 148 -23 52 -49 113 -58
135 -10 22 -18 42 -19 45 -1 3 -9 23 -19 45 -17 39 -31 72 -159 370 -36 83
-104 242 -152 355 -48 113 -98 229 -111 258 -13 28 -35 80 -50 115 -14 34 -35
82 -47 107 -11 25 -21 47 -22 50 -1 11 -59 145 -65 153 -4 5 4 -31 17 -80z"/>
<path d="M4085 4917 c-88 -45 -163 -86 -166 -90 -3 -5 -8 -8 -10 -6 -4 3 -175
-83 -649 -324 -735 -375 -1139 -578 -1146 -576 -4 0 -10 -3 -13 -8 -3 -5 -59
-35 -124 -68 -137 -69 -130 -47 -65 -215 42 -108 138 -321 149 -330 3 -3 9
-15 13 -27 8 -26 28 -30 48 -10 7 7 29 24 48 37 19 13 38 29 42 35 5 6 8 6 8
0 0 -6 3 -6 8 0 4 6 43 36 87 68 44 31 85 60 90 64 6 5 33 24 60 43 28 19 52
38 53 43 2 4 10 7 17 7 7 0 15 4 17 8 2 4 25 23 53 42 27 19 54 39 60 43 9 8
187 135 244 175 13 9 42 31 65 47 22 17 104 75 181 130 77 55 145 103 150 108
6 4 29 21 51 37 l42 30 1 147 c1 166 12 200 70 219 51 16 303 7 377 -15 28 -8
38 -3 113 50 45 33 86 59 92 59 5 0 9 4 9 9 0 5 24 24 53 42 28 18 54 36 57
39 3 3 76 57 163 119 86 61 157 114 157 116 0 7 -105 25 -173 30 l-72 4 -160
-82z"/>
<path d="M5819 4923 c-39 -89 -48 -108 -75 -173 -15 -36 -34 -81 -42 -100 -9
-19 -16 -37 -17 -40 -1 -3 -8 -21 -17 -41 -33 -75 -33 -81 -1 -73 51 12 60 23
77 86 9 35 19 71 21 81 3 9 7 26 10 38 2 11 7 29 10 39 3 10 7 27 9 37 2 10
15 57 29 106 13 48 23 87 21 87 -2 0 -13 -21 -25 -47z"/>
<path d="M6446 4904 c3 -27 7 -65 9 -84 2 -19 6 -66 10 -105 9 -86 12 -120 20
-210 3 -38 8 -86 10 -105 2 -19 7 -64 10 -100 7 -90 15 -169 19 -210 2 -19 7
-66 10 -105 4 -38 8 -92 11 -120 3 -27 7 -75 10 -105 11 -113 16 -166 20 -200
3 -19 7 -62 9 -95 6 -64 14 -154 21 -220 2 -22 7 -69 10 -105 3 -36 8 -81 10
-100 3 -19 7 -64 10 -100 6 -69 12 -140 21 -230 3 -30 7 -73 9 -95 3 -37 11
-126 20 -215 2 -19 6 -64 10 -100 10 -106 10 -106 58 -68 23 18 47 37 53 43 6
5 37 33 70 62 64 55 106 95 142 135 l23 25 -55 227 c-31 124 -58 236 -60 249
-10 45 -37 153 -47 184 -5 17 -9 35 -8 40 1 4 0 15 -4 23 -6 16 -85 340 -93
380 -4 23 -9 46 -21 90 -2 8 -6 24 -8 35 -2 11 -10 45 -18 75 -15 55 -73 294
-83 340 -7 34 -12 54 -14 60 -1 3 -2 8 -1 12 0 4 -4 19 -9 33 -10 25 -13 40
-25 100 -3 17 -9 39 -12 50 -4 11 -8 25 -9 32 -1 7 -9 40 -18 75 -8 35 -36
148 -61 253 -25 104 -48 191 -51 194 -2 3 -2 -17 2 -45z"/>
<path d="M6241 4914 c0 -11 3 -14 6 -6 3 7 2 16 -1 19 -3 4 -6 -2 -5 -13z"/>
<path d="M6022 4857 c-7 -29 -14 -63 -17 -77 -3 -14 -8 -33 -11 -42 -3 -9 -7
-27 -10 -40 -3 -13 -7 -34 -10 -48 -3 -14 -7 -32 -9 -40 -2 -8 -4 -15 -5 -15
-1 0 -3 -10 -6 -22 -3 -19 1 -23 20 -23 30 0 37 11 42 58 4 45 11 124 20 212
3 36 8 68 10 72 3 4 1 9 -4 12 -5 3 -14 -18 -20 -47z"/>
<path d="M6239 4879 c0 -8 -2 -34 -4 -59 -2 -25 -6 -91 -9 -147 -3 -56 -7
-105 -8 -110 -1 -4 12 -23 29 -41 l31 -34 -3 54 c-4 72 -15 232 -21 292 -4 47
-13 75 -15 45z"/>
<path d="M3509 4446 c-1 -1 -3 -351 -4 -778 l-1 -778 45 -1 c131 -3 293 -24
376 -49 17 -5 41 -11 55 -14 91 -15 337 -132 430 -204 64 -49 220 -211 220
-228 0 -2 9 -14 19 -25 10 -11 36 -55 57 -97 20 -42 39 -80 41 -84 12 -23 -8
-3 -29 29 -24 36 -121 138 -165 174 -76 62 -319 199 -352 199 -6 0 -19 4 -29
9 -45 25 -263 82 -367 96 -111 15 -214 24 -310 27 l-70 3 1 50 c2 76 18 433
29 660 3 66 8 170 10 230 2 61 7 153 11 205 10 147 10 200 2 200 -4 0 -7 -8
-6 -17 0 -23 -9 -117 -18 -168 -3 -22 -7 -58 -9 -80 -6 -86 -17 -209 -20 -225
-2 -9 -6 -54 -10 -101 -3 -46 -8 -100 -10 -119 -4 -39 -14 -133 -20 -200 -2
-25 -7 -70 -10 -100 -3 -30 -8 -77 -10 -105 -8 -104 -16 -191 -20 -230 -2 -22
-7 -75 -10 -118 l-6 -78 53 8 c110 16 452 8 549 -13 13 -3 33 -7 44 -8 173
-30 388 -109 549 -203 44 -26 83 -50 86 -53 3 -3 34 -27 68 -53 35 -26 62 -47
60 -47 -3 0 -49 22 -102 49 -82 42 -111 54 -146 62 -3 0 -11 5 -17 11 -7 6
-13 7 -13 4 0 -4 -9 -2 -21 4 -24 14 -171 58 -214 66 -16 3 -57 11 -90 18 -33
8 -67 14 -75 14 -8 0 -26 3 -40 6 -92 22 -669 31 -690 10 -15 -15 -21 -94 -7
-95 7 -1 30 0 52 2 22 2 155 3 295 3 262 1 369 -5 520 -29 19 -3 51 -8 70 -11
19 -3 42 -8 50 -11 8 -3 19 -5 23 -4 20 4 325 -80 359 -99 9 -5 31 -12 48 -15
l31 -5 -4 737 c-1 406 -6 752 -10 768 -5 17 -13 48 -19 70 -6 22 -12 45 -13
50 -2 6 -12 32 -24 57 -11 26 -21 50 -21 53 0 19 -114 177 -162 225 -59 59
-70 68 -138 116 -100 70 -341 171 -450 189 -19 3 -48 8 -65 12 -32 6 -37 7
-127 18 -48 6 -225 14 -229 11z"/>
<path d="M6005 4442 c-56 -5 -270 -38 -270 -42 0 -2 -10 -4 -55 -13 -54 -11
-205 -71 -265 -104 -22 -13 -51 -28 -65 -35 -14 -7 -27 -15 -30 -18 -3 -3 -21
-17 -40 -30 -161 -112 -279 -279 -334 -471 -16 -53 -19 -71 -32 -164 -8 -60
-8 -1424 0 -1432 4 -4 10 -3 14 3 8 11 212 76 330 104 120 29 137 32 231 45
30 3 63 9 75 11 83 17 606 26 743 13 l63 -7 -5 46 c-2 25 -9 50 -15 56 -7 7
-100 11 -278 10 -246 -1 -305 -4 -402 -19 -19 -3 -48 -7 -65 -9 -87 -11 -350
-82 -397 -107 -13 -7 -23 -11 -23 -10 0 9 -207 -90 -217 -104 -4 -5 -10 -7
-13 -3 -8 7 139 115 203 148 26 14 49 28 52 32 5 6 88 44 205 93 31 14 151 51
189 60 78 17 180 36 231 42 78 10 383 10 458 0 l58 -7 -6 67 c-3 38 -8 100
-11 138 -3 39 -8 88 -10 110 -3 22 -7 65 -9 95 -3 30 -7 78 -10 105 -6 62 -15
165 -19 225 -4 42 -13 136 -21 205 -2 17 -6 66 -10 110 -3 44 -8 96 -11 115
-4 36 -14 132 -19 185 -7 85 -18 145 -27 145 -5 0 -7 -4 -4 -8 5 -8 12 -124
21 -347 3 -80 10 -237 20 -435 2 -36 6 -135 10 -220 3 -85 8 -187 9 -226 l3
-71 -56 2 c-31 0 -64 -3 -73 -7 -9 -5 -20 -4 -23 2 -4 6 -12 7 -18 3 -7 -4
-23 -8 -37 -9 -166 -15 -200 -20 -310 -45 -339 -78 -580 -214 -758 -427 -23
-27 -42 -56 -42 -63 0 -7 -3 -9 -6 -6 -11 11 73 171 126 239 44 57 184 197
192 192 4 -3 8 -1 8 4 0 12 104 79 180 117 30 15 66 33 80 40 52 26 261 87
340 99 89 14 195 23 276 25 l41 1 -1 778 -1 777 -70 0 c-38 0 -83 -1 -100 -3z"/>
<path d="M6195 4050 c3 -5 8 -10 11 -10 2 0 4 5 4 10 0 6 -5 10 -11 10 -5 0
-7 -4 -4 -10z"/>
<path d="M3238 3729 c-48 -38 -90 -69 -93 -69 -2 0 -15 -9 -27 -19 -22 -19
-226 -174 -284 -216 -15 -11 -32 -25 -38 -30 -6 -6 -45 -35 -86 -65 -41 -30
-84 -62 -95 -72 -11 -9 -72 -55 -135 -102 -120 -90 -145 -109 -182 -139 -13
-10 -30 -22 -38 -27 -14 -8 4 -43 65 -121 11 -15 29 -39 40 -55 28 -40 173
-212 216 -256 l36 -37 264 271 c145 148 294 301 332 339 37 38 67 72 68 76 0
5 2 15 4 24 1 10 6 52 9 95 4 44 9 93 11 109 3 17 7 62 10 100 3 39 7 86 9
105 13 102 15 149 9 153 -5 3 -47 -26 -95 -64z"/>
<path d="M3218 2731 c-1 -5 -46 -55 -98 -111 -52 -56 -108 -117 -125 -134 -16
-18 -58 -63 -93 -100 -41 -44 -60 -71 -55 -80 23 -38 265 -216 438 -321 18
-11 25 -3 87 89 37 56 72 107 78 114 8 9 4 12 -17 13 -15 1 -31 1 -34 1 -3 -1
-27 -4 -52 -7 -78 -11 -136 32 -139 101 0 22 10 185 17 259 12 127 14 185 6
185 -5 0 -11 -4 -13 -9z"/>
<path d="M3744 2108 c-35 -54 -64 -103 -64 -108 0 -6 -3 -10 -8 -10 -4 0 -18
-20 -32 -45 -14 -25 -28 -45 -31 -45 -8 0 -33 -59 -28 -64 9 -8 90 -47 126
-60 131 -48 226 -81 283 -98 117 -35 106 -39 151 59 22 49 44 97 49 108 6 11
39 83 74 160 l65 140 -27 8 c-58 16 -234 39 -304 40 -16 0 -28 3 -28 6 0 3
-36 6 -81 7 l-80 0 -65 -98z"/>
<path d="M5726 2203 c-2 -2 -30 -6 -62 -9 -32 -3 -70 -7 -84 -9 -166 -20 -223
-33 -216 -50 2 -7 -1 -18 -7 -24 -6 -6 -8 -11 -5 -11 4 0 1 -21 -7 -47 -8 -27
-16 -59 -19 -73 -3 -14 -17 -72 -31 -130 -14 -58 -34 -142 -44 -187 l-19 -83
35 6 c20 3 45 7 56 10 12 2 39 6 62 10 47 7 70 12 70 14 0 1 9 3 20 5 40 5 76
14 169 41 94 26 96 27 97 58 1 17 3 40 4 51 2 11 6 54 10 95 4 41 8 86 10 100
1 14 5 60 9 102 4 42 9 86 11 97 2 11 -1 24 -8 28 -13 8 -45 12 -51 6z"/>
<path d="M6049 2178 c-1 -18 -2 -44 -4 -58 -1 -14 -5 -70 -9 -125 -4 -55 -9
-122 -11 -148 -4 -46 -3 -48 18 -41 35 10 269 129 339 172 l63 39 0 87 c0 103
-4 114 -38 99 -13 -6 -46 -9 -73 -8 -27 2 -102 6 -166 10 l-118 6 -1 -33z"/>
<path d="M4576 2023 c-10 -26 -27 -66 -36 -88 -10 -22 -37 -85 -60 -139 -23
-54 -45 -106 -50 -115 -4 -9 -15 -33 -23 -53 l-16 -36 42 -7 c23 -4 55 -9 71
-11 45 -7 190 -16 313 -18 131 -2 114 -19 158 154 15 58 33 125 41 150 7 25
15 54 17 65 1 11 6 26 10 33 5 6 6 12 4 12 -3 0 1 21 9 47 8 25 12 48 10 50
-2 3 -34 -7 -69 -22 -86 -34 -99 -36 -132 -19 -22 11 -35 12 -64 3 -29 -8 -45
-7 -81 6 -120 43 -122 42 -144 -12z"/>
<path d="M6944 8570 c-115 -46 -222 -211 -216 -335 3 -64 73 -185 108 -185 8
0 14 -4 14 -9 0 -5 20 -17 45 -28 40 -17 63 -19 133 -11 8 1 31 19 53 40 34
33 42 37 60 28 22 -12 35 -8 25 8 -3 5 -38 31 -78 58 -40 27 -74 52 -76 57 -5
11 -32 9 -32 -3 0 -5 12 -17 28 -27 15 -9 29 -18 31 -20 12 -8 -55 -87 -86
-99 -32 -14 -38 -13 -79 6 -72 36 -98 90 -80 169 21 89 147 275 213 314 63 36
115 27 170 -31 37 -38 48 -83 39 -149 -7 -53 8 -55 36 -5 10 18 25 43 33 56
17 25 8 40 -17 31 -10 -4 -23 9 -38 38 -52 98 -176 140 -286 97z"/>
<path d="M630 5321 c-58 -14 -96 -67 -84 -116 8 -31 43 -43 60 -21 14 20 6 59
-11 52 -6 -2 -18 0 -25 4 -19 12 14 60 43 62 12 0 29 2 37 3 27 3 51 -16 66
-51 26 -62 -7 -132 -116 -243 -38 -39 -70 -76 -70 -81 0 -6 0 -13 0 -17 0 -5
57 -8 127 -8 l128 -1 3 54 c2 35 -1 51 -8 47 -5 -3 -10 -12 -10 -20 0 -8 -5
-17 -12 -21 -14 -9 -178 -13 -178 -4 0 3 18 20 40 38 127 106 184 184 169 235
-4 15 -5 27 -2 27 12 0 -57 60 -69 61 -7 0 -24 2 -38 4 -14 1 -36 0 -50 -4z"/>
<path d="M1025 5322 c-68 -15 -126 -173 -102 -278 17 -70 73 -142 115 -145 39
-4 63 1 86 16 35 23 79 117 74 155 -3 16 -1 30 2 30 10 0 3 55 -15 115 -23 81
-85 123 -160 107z m88 -50 c22 -38 32 -194 17 -275 -16 -82 -64 -107 -113 -59
-42 43 -42 284 1 350 23 35 70 27 95 -16z"/>
<path d="M8563 5317 c-45 -24 -73 -71 -64 -106 9 -34 35 -49 56 -31 24 20 15
55 -15 55 -43 1 -10 60 38 70 63 12 108 -39 99 -113 -5 -50 -31 -87 -125 -183
-41 -42 -72 -83 -70 -90 4 -11 34 -14 131 -15 l127 -1 1 29 c3 68 1 81 -11 73
-5 -3 -7 -12 -4 -19 9 -23 -17 -31 -107 -31 -66 0 -85 3 -82 12 3 7 8 13 12
13 12 0 150 130 173 163 41 57 29 126 -28 163 -29 19 -104 25 -131 11z"/>
<path d="M9017 5310 c-9 -11 -17 -24 -17 -29 0 -5 -3 -11 -8 -13 -13 -5 -109
-163 -123 -201 -7 -20 -10 -39 -6 -43 3 -3 39 -7 79 -8 l73 -1 1 -35 c0 -48
-5 -60 -27 -60 -10 0 -19 -3 -19 -7 0 -5 32 -8 70 -9 58 -1 70 1 70 15 0 11
-3 12 -8 4 -16 -25 -33 3 -30 48 3 40 6 44 32 47 26 3 28 1 24 -23 -3 -14 -1
-24 4 -23 5 2 9 7 9 11 -1 4 -1 31 -2 60 -1 36 -3 45 -8 28 -7 -26 -46 -47
-56 -30 -4 5 -6 42 -5 82 4 179 1 207 -18 207 -10 0 -25 -9 -35 -20z m-2 -150
c0 -75 -4 -113 -12 -118 -13 -8 -111 -7 -120 2 -3 3 5 24 17 48 23 45 107 178
113 178 1 0 2 -50 2 -110z"/>
<path d="M7691 2611 c-24 -24 -17 -57 12 -65 30 -8 61 28 47 54 -15 27 -38 32
-59 11z"/>
<path d="M7855 2577 c-43 -50 -115 -160 -110 -165 4 -4 17 6 29 21 l23 28 184
-147 c101 -81 188 -151 193 -155 5 -5 2 -19 -8 -34 -10 -14 -16 -31 -14 -37 4
-10 77 83 123 155 22 34 3 36 -24 1 l-20 -25 -30 22 c-17 13 -31 26 -31 31 0
4 -6 8 -14 8 -8 0 -16 3 -18 8 -1 4 -25 25 -53 47 -27 22 -55 44 -61 50 -7 5
-25 20 -40 32 -113 87 -134 106 -134 119 0 8 3 14 8 14 4 0 13 9 20 20 10 16
10 20 0 20 -7 -1 -18 -6 -23 -13z"/>
<path d="M1900 2431 c0 -5 7 -16 15 -25 8 -8 15 -19 15 -24 0 -11 -270 -272
-282 -272 -4 0 -8 -6 -8 -14 0 -8 -4 -16 -10 -18 -5 -1 -13 -24 -16 -49 -8
-59 14 -109 73 -166 41 -40 56 -47 110 -46 28 0 83 23 83 34 0 5 5 9 10 9 6 0
23 12 38 28 56 54 187 178 216 201 l29 25 18 -22 c9 -12 20 -18 23 -13 5 8
-18 39 -80 110 -1 1 -8 0 -14 -4 -7 -4 -4 -13 10 -25 13 -11 19 -24 14 -31 -7
-12 -42 -45 -203 -196 -114 -108 -172 -122 -236 -56 -35 36 -45 66 -37 110 5
27 89 116 256 271 66 62 68 63 83 43 14 -21 33 -28 33 -13 0 4 -16 25 -36 47
-20 22 -46 51 -58 65 -26 31 -46 45 -46 31z"/>
<path d="M7533 2172 c-37 -38 -103 -105 -145 -148 l-76 -80 45 -54 c49 -60 58
-66 68 -51 3 6 2 11 -2 11 -10 0 -38 68 -36 88 0 6 1 21 2 31 0 11 13 33 27
51 l26 31 37 -39 c20 -21 95 -100 166 -176 72 -75 132 -142 134 -147 2 -6 -7
-21 -20 -35 -13 -14 -17 -24 -10 -24 18 0 151 142 144 153 -3 5 -16 -2 -29
-14 l-25 -23 -87 93 c-48 52 -124 132 -168 179 -45 48 -80 92 -77 99 9 22 67
51 99 49 17 -2 48 -13 68 -25 45 -28 46 -15 3 30 -77 80 -67 80 -144 1z"/>
<path d="M2380 1901 c0 -6 10 -17 21 -25 l22 -15 -39 -53 c-21 -29 -42 -57
-47 -63 -4 -5 -31 -41 -58 -80 -66 -92 -91 -125 -106 -141 -7 -7 -13 -17 -13
-22 0 -5 -9 -17 -20 -27 -18 -16 -22 -17 -37 -3 -10 9 -24 13 -31 11 -7 -3 9
-22 40 -46 29 -23 56 -46 60 -52 4 -5 8 -1 8 10 0 11 -9 26 -20 33 -20 12 -20
13 5 40 14 15 25 30 25 35 0 4 13 22 30 40 16 18 30 37 30 44 0 6 4 13 8 15 4
2 43 51 86 110 43 59 82 111 88 114 6 4 8 3 5 -3 -3 -5 -9 -34 -12 -64 -3 -30
-8 -71 -10 -91 -9 -71 -14 -113 -20 -168 -4 -30 -8 -66 -10 -80 -2 -14 -7 -54
-10 -90 -3 -36 -8 -72 -10 -80 -5 -15 11 -49 18 -40 2 3 70 97 152 210 147
204 165 225 175 212 3 -4 13 -13 23 -21 14 -11 17 -11 17 1 0 18 -101 99 -113
91 -5 -3 4 -16 19 -29 16 -13 23 -23 17 -24 -7 0 -13 -5 -13 -10 0 -6 -9 -20
-20 -32 -11 -12 -20 -28 -20 -35 0 -8 -4 -12 -9 -8 -5 3 -12 -4 -16 -15 -3
-11 -12 -26 -18 -32 -7 -7 -24 -29 -37 -48 -26 -38 -29 -42 -60 -80 l-20 -25
5 45 c3 25 7 63 9 85 3 22 8 69 12 105 4 36 7 77 8 93 1 15 3 27 6 27 3 0 5
23 5 51 0 50 -1 52 -55 95 -56 45 -70 52 -70 35z"/>
<path d="M7105 1769 c-5 -6 -33 -27 -60 -47 -28 -20 -90 -66 -138 -101 -48
-35 -87 -71 -87 -79 0 -12 4 -12 20 3 20 18 21 18 39 -1 11 -10 76 -104 145
-208 124 -186 126 -189 106 -206 -11 -10 -20 -23 -20 -29 0 -11 35 9 80 46 8
7 65 49 125 94 61 45 114 85 119 89 8 8 -8 41 -50 107 -28 41 -35 33 -19 -20
15 -50 1 -106 -33 -135 -74 -62 -112 -86 -121 -75 -17 20 -81 114 -81 119 0 3
-11 20 -25 38 -31 40 -31 42 -3 57 38 20 73 20 96 -1 43 -40 41 -18 -5 53 -52
78 -71 102 -78 95 -3 -2 1 -18 7 -35 10 -28 9 -36 -13 -67 -13 -20 -31 -36
-39 -36 -14 1 -60 62 -60 81 0 5 -4 9 -10 9 -5 0 -10 7 -10 15 0 8 -4 15 -10
15 -5 0 -10 7 -10 15 0 9 -7 18 -15 21 -8 4 -15 12 -15 18 0 14 73 76 89 76 6
0 11 4 11 9 0 8 28 19 70 27 8 2 30 -9 48 -23 18 -14 35 -23 38 -20 7 7 -7 37
-17 37 -5 0 -9 6 -9 13 -1 15 -35 57 -47 57 -4 -1 -12 -6 -18 -11z"/>
<path d="M3076 1574 c-21 -20 -20 -37 2 -56 24 -22 62 -7 62 25 0 43 -35 60
-64 31z"/>
<path d="M2969 1462 c28 -24 31 -30 20 -43 -8 -8 -32 -51 -54 -96 -21 -46 -43
-83 -47 -83 -4 0 -7 -3 -6 -7 4 -11 -111 -233 -120 -233 -4 0 -17 6 -28 14
-13 10 -25 11 -35 5 -8 -5 -9 -9 -2 -9 6 0 18 -6 25 -12 8 -7 23 -18 33 -24
11 -6 46 -25 78 -43 58 -32 78 -28 31 6 l-26 19 87 170 c103 199 134 256 144
266 3 4 19 1 35 -7 31 -16 39 -16 28 1 -6 9 -39 30 -135 83 -53 30 -68 26 -28
-7z"/>
<path d="M6585 1414 c-72 -38 -170 -88 -175 -89 -23 -4 -150 -78 -150 -86 0
-6 6 -25 14 -42 8 -18 20 -46 27 -64 7 -17 17 -29 21 -27 8 5 2 59 -8 76 -3 4
-1 8 4 8 6 0 8 9 5 20 -4 15 5 30 31 55 21 19 42 35 47 35 9 0 55 -93 131
-265 52 -117 79 -178 85 -187 2 -4 -10 -14 -27 -23 -17 -9 -28 -20 -25 -25 6
-9 179 72 190 89 9 15 -11 14 -36 -1 -24 -15 -26 -12 -80 107 -20 44 -47 105
-61 135 -68 148 -88 194 -88 204 0 12 54 36 82 36 22 0 98 -58 98 -75 0 -8 6
-12 13 -9 10 4 5 22 -22 74 -20 39 -38 70 -41 70 -3 0 -18 -7 -35 -16z"/>
<path d="M5888 1278 c-15 -15 -16 -21 -6 -38 7 -11 15 -20 18 -21 3 0 13 -2
23 -4 24 -4 39 27 28 58 -11 28 -37 31 -63 5z"/>
<path d="M3320 1280 c0 -6 11 -16 25 -22 l24 -11 -5 -196 c-11 -372 -10 -381
2 -381 6 0 20 12 32 28 231 306 287 378 294 380 4 2 8 10 8 18 0 12 8 14 35
10 58 -10 40 10 -35 36 -45 16 -70 21 -70 14 0 -6 14 -17 31 -23 l30 -12 -67
-88 c-36 -48 -76 -101 -88 -116 -11 -16 -26 -34 -32 -40 -5 -7 -22 -30 -37
-52 -15 -22 -27 -35 -28 -30 -4 40 -3 178 1 180 3 2 5 55 5 119 l-1 117 33 -6
c52 -8 39 15 -17 30 -8 2 -40 16 -89 36 -51 22 -51 22 -51 9z"/>
<path d="M5968 1146 c-37 -12 -71 -25 -74 -29 -4 -4 -16 -7 -26 -7 -18 0 -24
-11 -11 -23 3 -4 12 -2 19 4 17 14 46 8 50 -11 1 -8 16 -60 34 -115 17 -55 32
-107 34 -115 2 -8 6 -22 9 -30 18 -46 59 -201 54 -206 -5 -5 -29 -11 -51 -13
-6 -1 -5 -6 1 -12 8 -8 37 -3 107 21 53 17 96 36 96 41 0 12 -12 11 -44 -1
-26 -9 -30 -5 -41 47 -2 10 -8 32 -15 48 -6 17 -11 30 -10 30 1 0 -1 7 -4 15
-7 22 -77 261 -83 285 -15 62 -16 68 -4 61 6 -4 11 -2 11 3 0 6 3 10 8 10 18
-3 32 2 32 11 0 14 -14 12 -92 -14z"/>
<path d="M3970 1050 c0 -6 13 -13 28 -16 l29 -6 -14 -66 c-7 -37 -15 -87 -19
-112 -11 -85 -13 -95 -15 -95 -1 0 -3 -9 -4 -20 -5 -38 -17 -110 -26 -159 -5
-27 -9 -50 -9 -51 0 -1 -13 0 -30 3 -16 2 -30 0 -30 -5 0 -7 77 -25 165 -39
29 -4 74 -13 125 -24 70 -15 110 -19 111 -12 0 4 2 14 4 22 7 35 15 72 20 94
8 41 -9 37 -30 -6 -34 -70 -79 -83 -199 -58 -52 11 -57 14 -53 33 3 12 13 67
22 122 10 55 19 102 21 104 2 2 18 0 36 -5 34 -10 71 -65 61 -91 -3 -7 0 -13
6 -13 11 0 12 1 16 35 3 25 14 90 21 133 4 20 2 32 -5 32 -6 0 -11 -7 -11 -15
0 -29 -38 -55 -81 -55 l-41 0 5 38 c3 20 8 46 10 57 3 12 8 47 12 79 l8 58 42
-5 c119 -15 161 -41 171 -107 4 -22 10 -40 14 -40 9 0 28 117 21 128 -3 4 -15
7 -26 7 -11 0 -31 3 -44 8 -13 4 -36 9 -50 11 -58 8 -165 27 -170 31 -18 10
-91 15 -91 5z"/>
<path d="M5571 1024 c-9 -11 -16 -13 -24 -5 -32 32 -172 -6 -195 -52 -37 -72
-33 -149 11 -195 19 -20 101 -51 152 -57 49 -6 112 -28 132 -47 33 -31 25
-110 -14 -144 -48 -42 -53 -45 -62 -39 -5 3 -12 1 -15 -3 -4 -7 -45 -8 -53 -2
-2 2 -6 3 -10 4 -29 8 -62 32 -83 61 -14 19 -28 35 -32 35 -8 0 -3 -58 8 -112
7 -33 15 -35 32 -8 10 17 16 19 33 9 62 -33 187 6 223 70 29 50 31 145 4 192
-30 53 -67 72 -163 84 -90 11 -114 17 -134 36 -11 11 -22 24 -22 29 -1 6 -2
16 -3 23 -1 6 0 17 3 22 3 6 6 16 7 22 5 32 62 61 114 58 54 -3 73 -13 99 -50
28 -41 42 -38 32 7 -4 18 -8 36 -9 41 -1 4 -2 14 -2 22 0 19 -11 19 -29 -1z"/>
<path d="M4648 962 c-45 -4 -51 -22 -8 -22 l30 0 0 -147 c1 -82 2 -196 3 -256
2 -94 0 -108 -15 -113 -10 -3 -22 -3 -27 1 -5 3 -12 1 -15 -4 -9 -14 13 -18
99 -15 106 2 107 2 100 14 -4 6 -14 10 -23 9 -39 -3 -40 -1 -40 136 l-1 135
52 -5 c41 -4 58 -12 80 -35 15 -17 27 -40 28 -53 6 -118 18 -165 51 -192 23
-19 38 -24 68 -21 21 2 43 7 49 10 21 13 11 25 -16 20 -45 -8 -55 7 -59 85 -2
40 -11 87 -18 106 -15 35 -67 75 -98 75 -33 0 -18 16 26 28 122 32 145 166 38
221 -37 19 -201 31 -304 23z m262 -52 c33 -38 25 -146 -12 -169 -39 -24 -135
-33 -147 -13 -5 8 -6 192 -2 211 1 2 33 1 71 -1 57 -4 74 -10 90 -28z"/>
</g>
</svg>
